<svg width="711" height="310" viewBox="0 0 711 310" fill="none" xmlns="http://www.w3.org/2000/svg">
<path d="M524.059 178.368C524.565 180.307 522.021 182.752 522.308 184.68C522.595 186.608 525.385 188.491 525.467 190.43C525.549 192.37 523.525 194.436 523.388 196.387C523.252 198.338 525.946 200.691 525.604 202.619C525.262 204.547 521.652 206.097 521.091 207.991C520.53 209.884 521.556 212.272 520.79 214.12C520.024 215.967 519.532 218.102 518.561 219.881C517.59 221.66 514.964 222.865 513.788 224.564C512.612 226.262 510.151 227.25 508.783 228.845C507.416 230.44 508.619 233.86 507.074 235.33C505.529 236.799 504.038 238.669 502.315 239.989C500.592 241.309 495.19 238.956 493.303 240.127C491.416 241.298 492.496 246.221 490.486 247.231C488.476 248.241 486.028 249.079 483.894 249.894C481.761 250.709 477.74 247.507 475.511 248.127C473.282 248.746 471.272 249.114 468.961 249.538C466.704 249.952 464.94 252.132 462.684 252.35C460.428 252.568 458.103 250.675 455.819 250.686C453.535 250.698 451.429 251.157 449.159 250.973C446.889 250.789 444.304 252.603 442.062 252.224C439.819 251.845 438.164 249.653 435.976 249.091C433.788 248.528 430.369 250.675 428.263 249.929C426.157 249.183 423.272 249.24 421.262 248.322C419.251 247.404 419.798 242.813 417.897 241.722C415.997 240.632 415.067 238.773 413.303 237.545C411.538 236.317 406.41 238.233 404.783 236.868C403.155 235.502 402.786 233.046 401.309 231.565C399.832 230.084 397.439 229.097 396.126 227.502C394.814 225.907 395.839 225.712 394.704 224.024C394.732 225.964 395.634 225.792 395.374 227.697C395.114 229.602 393.309 231.427 392.776 233.298C392.243 235.169 392.954 237.487 392.147 239.312C391.34 241.137 390.602 243.157 389.562 244.89C388.523 246.623 388.14 248.907 386.896 250.548C385.651 252.19 380.441 251.501 378.991 253.027C377.542 254.554 376.407 256.103 374.807 257.504C373.207 258.904 370.567 259.122 368.817 260.396C367.066 261.67 368.954 266.743 367.08 267.891C365.207 269.038 363.019 270.094 361.022 271.104C359.025 272.114 356.113 271.896 354.034 272.757C351.955 273.618 349.248 273.273 347.087 273.996C344.926 274.72 343.244 276.544 341.015 277.118C338.786 277.692 335.846 275.684 333.576 276.108C331.237 276.544 329.282 278.404 326.971 278.668C324.659 278.932 322.362 281.239 320.024 281.342C317.685 281.445 315.046 281.181 312.707 281.112C310.369 281.044 308.085 278.553 305.76 278.323C303.435 278.094 300.345 280.734 298.047 280.32C295.75 279.907 294.711 275.064 292.468 274.49C290.225 273.916 286.642 276.326 284.482 275.569C282.321 274.811 281.514 271.494 279.449 270.565C277.384 269.635 275.538 268.556 273.582 267.454C271.627 266.353 269.111 265.962 267.319 264.688C265.528 263.414 264.598 261.452 262.998 260.006C261.398 258.56 260.44 256.861 259.059 255.254C257.678 253.647 254.15 254.474 253.001 252.741C251.223 253.693 249.91 253.062 247.982 253.842C246.054 254.623 243.442 253.659 241.418 254.244C239.394 254.829 238.71 259.455 236.604 259.845C234.307 260.27 231.49 259.168 229.22 259.34C226.95 259.512 224.584 255.725 222.286 255.656C219.989 255.587 217.965 255.943 215.695 255.621C213.425 255.3 210.17 258.548 207.968 257.986C205.767 257.423 204.085 255.289 201.992 254.497C199.9 253.705 196.837 254.141 194.867 253.119C192.898 252.098 190.15 251.547 188.344 250.319C186.539 249.091 184.679 247.461 183.079 246.061C181.479 244.661 181.903 241.619 180.536 240.047C179.168 238.474 177.951 237.407 176.843 235.697C175.353 237.12 174.122 238.05 172.508 239.393C170.895 240.735 171.114 243.857 169.404 245.108C167.695 246.359 163.25 244.867 161.445 246.026C159.64 247.186 158.943 249.619 157.042 250.675C155.141 251.731 153.965 253.888 151.996 254.841C150.026 255.794 146.101 253.682 144.05 254.531C141.999 255.38 141.684 259.374 139.578 260.109C137.472 260.844 133.835 258.215 131.674 258.846C129.513 259.478 127.024 258.663 124.823 259.191C122.621 259.719 121.664 264.023 119.435 264.424C117.165 264.838 114.566 263.851 112.31 264.149C110.053 264.447 107.729 264.585 105.459 264.757C103.188 264.929 100.905 265.802 98.6209 265.859C96.3372 265.917 94.0944 262.691 91.8106 262.622C89.5269 262.554 86.8465 267.374 84.5764 267.19C82.3063 267.007 79.8995 266.33 77.6431 266.02C75.3867 265.71 72.9798 265.274 70.7507 264.838C68.5217 264.401 67.4413 260.235 65.2396 259.684C63.0379 259.133 59.2772 262.439 57.1302 261.773C54.9831 261.108 54.819 256.344 52.7267 255.552C50.6344 254.761 46.6686 257.171 44.6446 256.253C42.6207 255.334 40.925 253.785 38.9968 252.752C37.0686 251.719 34.7985 250.927 32.9523 249.779C31.1061 248.632 29.8207 246.772 28.0839 245.521C26.3471 244.27 26.7574 241.137 25.1437 239.771C23.53 238.405 19.1539 239.197 17.6633 237.728C16.1727 236.259 14.1625 234.985 12.8223 233.424C11.4821 231.863 10.2513 230.073 9.0616 228.42C7.87185 226.768 11.1129 223.118 10.0736 221.385C9.03424 219.652 3.45473 219.697 2.59319 217.896C1.73165 216.094 3.44106 213.511 2.75729 211.652C2.07353 209.793 2.59319 207.796 2.10088 205.89C1.5949 203.974 2.72994 202 2.42909 200.083C2.12823 198.166 -1.01708 196.548 -1.14016 194.608C-1.26324 192.668 -4.21709 190.637 -4.13504 188.697C-4.05299 186.758 -3.69743 184.634 -3.42393 182.706C-3.15042 180.778 -2.83589 178.666 -2.38461 176.749C-1.93332 174.833 2.70259 173.742 3.33166 171.872C3.96072 170.001 4.3026 168.142 5.12312 166.317C5.94363 164.492 2.93507 161.278 3.90602 159.499C4.87696 157.72 7.33851 156.435 8.47356 154.736C9.60861 153.037 11.8787 151.855 13.1642 150.225C14.4497 148.596 14.0257 145.864 15.4343 144.315C16.8428 142.765 22.1762 143.924 23.7215 142.455C25.2668 140.986 24.8429 138.094 26.4976 136.717C28.1523 135.339 28.4805 132.688 30.2446 131.403C32.0087 130.117 37.1779 132.459 39.0378 131.277C40.8976 130.094 41.8002 128.04 43.7421 126.973C45.684 125.905 46.0258 122.68 48.0635 121.704C50.1011 120.729 52.4669 120.247 54.5592 119.386C56.6515 118.525 57.8413 116.85 60.0156 116.104C59.8926 115.644 58.949 117.102 58.8259 116.643C58.3062 114.669 63.0789 111.937 62.737 109.963C62.3951 107.989 59.5917 106.325 59.4139 104.339C59.2362 102.354 61.2875 100.357 61.2875 98.3596C61.2875 96.3626 58.1011 94.3196 58.2652 92.3341C58.4293 90.3485 59.7695 88.4318 60.0977 86.4577C60.4259 84.4836 59.5507 82.2915 60.0567 80.3403C60.5627 78.3892 63.6533 77.0004 64.3234 75.0837C64.9934 73.167 61.0413 69.896 61.8618 68.0252C62.6823 66.1544 65.0345 64.6279 66.0191 62.8145C67.0037 61.0011 70.7918 60.324 71.9405 58.5679C73.0892 56.8119 74.5798 55.3313 75.8653 53.6442C77.1508 51.957 77.3285 49.696 78.7508 48.0892C80.173 46.4823 81.2533 44.646 82.8123 43.131C84.3713 41.616 86.4089 40.4797 88.091 39.0566C89.773 37.6334 91.2089 36.0151 93.0141 34.6952C94.8192 33.3753 95.0107 30.2764 96.9252 29.0713C98.8397 27.8662 103.079 29.3927 105.089 28.3023C107.1 27.212 108.604 25.5133 110.696 24.5493C112.789 23.5852 115.428 23.6655 117.616 22.8277C119.804 21.9898 122.471 22.5752 124.713 21.8751C126.956 21.1749 127.435 16.1594 129.732 15.5855C132.03 15.0116 134.341 13.9557 136.693 13.5196C139.031 13.0949 142.327 17.0202 144.666 16.7332C147.004 16.4463 148.932 12.7965 151.284 12.6473C153.637 12.4981 156.18 13.5425 158.546 13.5311C160.912 13.5196 163.113 16.4693 165.466 16.607C167.818 16.7447 170.553 13.6344 172.891 13.9098C175.23 14.1853 177.91 13.577 180.235 13.9902C182.56 14.4034 185.226 14.3574 187.497 14.9083C189.767 15.4593 192.228 16.1594 194.457 16.848C196.686 17.5366 198.738 19.0057 200.898 19.8321C203.059 20.6585 203.565 24.3427 205.644 25.2953C207.722 26.2479 211.592 24.6755 213.603 25.7429C215.613 26.8103 214.765 31.3208 216.666 32.503C218.567 33.6852 222.109 32.5604 223.914 33.8459C225.295 32.3423 227.579 31.9062 229.097 30.4945C230.615 29.0828 232.611 28.199 234.252 26.8906C235.893 25.5822 237.001 23.9065 238.751 22.7129C240.502 21.5192 242.17 20.3256 244.03 19.2468C245.89 18.1679 247.763 17.2382 249.733 16.2741C251.702 15.3101 252.7 12.8654 254.751 12.039C256.803 11.2127 258.471 9.43369 260.591 8.74505C262.71 8.05641 265.309 8.25152 267.497 7.70061C269.685 7.1497 271.572 5.25596 273.801 4.84278C276.058 4.4296 278.642 4.67062 280.885 4.40664C283.128 4.14266 285.767 5.92164 288.037 5.80687C290.307 5.6921 292.605 6.57583 294.875 6.61026C297.145 6.64469 299.374 6.74798 301.63 6.93162C303.887 7.11526 305.747 9.05493 307.976 9.38778C310.205 9.72062 312.543 9.05494 314.745 9.53699C316.947 10.019 320.106 7.86129 322.266 8.48106C324.427 9.10083 324.824 13.4048 326.916 14.1623C329.008 14.9198 330.786 15.7692 332.796 16.6759C334.807 17.5826 338.471 15.9413 340.386 16.9742C342.301 18.0072 343.777 19.5911 345.596 20.7503C347.415 21.9095 350.875 21.5078 352.571 22.7932C354.266 24.0787 352.01 28.6926 353.583 30.0928C355.155 31.493 357.74 31.9062 359.176 33.3982C360.612 34.8903 361.419 36.6004 362.69 38.1958C363.962 39.7911 369.843 39.0566 370.95 40.7437C372.058 42.4309 370.102 47.389 371.046 49.1451C372.372 47.5153 371.538 42.3046 373.043 40.8011C374.547 39.2976 376.461 37.7367 378.143 36.3709C379.825 35.0051 381.822 33.513 383.668 32.3079C385.514 31.1028 387.976 30.1731 389.973 29.1517C391.969 28.1302 395.552 29.3812 397.685 28.5434C399.819 27.7055 402.39 28.1646 404.619 27.5334C406.848 26.9021 408.544 25.2149 410.855 24.7903C413.138 24.3656 415.326 23.654 417.597 23.4474C419.867 23.2409 422.219 24.5378 424.516 24.5493C426.814 24.5607 429.275 22.4948 431.559 22.7244C433.843 22.9539 436.4 22.7244 438.656 23.149C440.913 23.5737 443.005 24.8936 445.193 25.5133C447.381 26.1331 450.513 25.2264 452.619 26.0413C454.725 26.8562 456.858 28.0957 458.855 29.0828C460.851 30.0698 462.698 31.5733 464.571 32.7211C466.445 33.8688 466.814 36.6808 468.551 37.9777C470.287 39.2746 473.392 39.4353 474.978 40.8699C476.564 42.3046 476.414 44.9903 477.85 46.5282C479.286 48.0662 480.954 49.3976 482.212 51.0503C483.47 52.703 487.272 53.1965 488.352 54.9296C489.433 56.6627 489.884 58.8089 490.773 60.6223C491.662 62.4357 492.879 64.2951 493.576 66.1659C494.274 68.0367 493.152 70.3895 493.645 72.3062C494.151 74.2574 493.44 76.3922 493.727 78.3318C494.014 80.2715 493.959 82.2685 494.055 84.2311C494.151 86.1937 494.602 88.1793 494.479 90.1419C494.356 92.1045 493.248 93.9868 492.92 95.9265C492.592 97.8661 490.54 99.4385 489.993 101.355C489.446 103.272 493.016 106.187 492.25 108.046C491.484 109.906 487.71 110.824 486.752 112.614C485.795 114.405 484.66 116.035 483.484 117.745C482.308 119.455 482.923 122.118 481.556 123.724C480.188 125.331 475.675 124.723 474.116 126.192C472.557 127.661 471.081 131.254 469.344 132.585C471.614 133.159 474.855 135.73 477.057 136.499C479.258 137.268 481.911 136.797 484.004 137.75C486.096 138.702 488.134 139.517 490.103 140.653C492.072 141.79 494.807 141.985 496.64 143.27C498.472 144.556 501.043 145.244 502.711 146.679C504.38 148.114 506.458 149.399 507.963 150.96C509.467 152.521 507.771 156.022 509.098 157.697C510.424 159.373 512.448 160.532 513.57 162.3C514.691 164.067 517.344 165.203 518.274 167.051C519.204 168.899 518.944 171.114 519.669 173.031C520.394 174.948 523.58 176.359 524.1 178.322L524.059 178.368Z" fill="white"/>
<path d="M471.436 132.23C473.173 130.898 476.934 130.898 478.506 129.418C480.079 127.937 478.78 124.471 480.161 122.853C481.542 121.234 481.829 119.214 483.005 117.504C484.181 115.794 489.925 116.001 490.896 114.199C491.867 112.397 489.419 109.355 490.185 107.473C490.951 105.591 494.917 104.42 495.477 102.492C496.038 100.564 491.525 97.8092 491.867 95.8466C492.209 93.884 497.693 92.3231 497.816 90.3375C497.939 88.3519 497.118 86.1827 497.023 84.1972C496.927 82.2116 493.959 80.3982 493.658 78.4126C493.358 76.427 491.06 74.912 490.54 72.9609C490.034 71.0442 494.233 68.0945 493.549 66.2582C492.865 64.4218 489.064 63.3889 488.202 61.6099C487.34 59.8309 486.821 57.8798 485.754 56.1697C484.687 54.4595 485.139 51.8886 483.908 50.2588C482.677 48.6291 478.315 48.7898 476.906 47.2748C475.498 45.7598 476.209 42.6953 474.636 41.2836C473.063 39.8719 470.069 39.6194 468.346 38.3454C466.622 37.0715 465.775 34.8219 463.915 33.6856C462.055 32.5494 459.361 32.4002 457.378 31.4132C455.395 30.4261 454.711 27.1206 452.619 26.3058C450.527 25.4909 447.491 26.2369 445.303 25.6057C443.115 24.9744 440.585 25.3072 438.328 24.8826C436.072 24.4579 433.925 23.5053 431.614 23.2872C429.303 23.0692 426.978 21.5427 424.653 21.5312C422.328 21.5197 420.126 24.0906 417.815 24.2972C415.504 24.5038 413.138 23.9988 410.855 24.4235C408.544 24.8482 407.053 27.2928 404.865 27.9241C402.677 28.5553 400.434 28.716 398.328 29.5538C396.222 30.3917 393.432 30.0588 391.449 31.0803C389.467 32.1018 387.429 33.1118 385.583 34.3169C383.737 35.522 382.287 37.1174 380.605 38.4717C378.923 39.826 376.065 40.3425 374.547 41.846C373.029 43.3495 372.482 47.5043 371.169 49.1341C370.225 47.3781 370.718 43.1544 369.61 41.4787C368.502 39.803 367.805 37.7486 366.533 36.1647C365.261 34.5809 361.829 34.2021 360.42 32.7101C359.012 31.218 360.092 27.7289 358.533 26.3402C356.974 24.9514 354.95 23.6316 353.241 22.3461C351.531 21.0607 347.648 21.8526 345.829 20.6819C344.01 19.5112 342.123 18.4782 340.195 17.4453C338.266 16.4123 337.473 13.6578 335.449 12.7511C333.425 11.8444 331.142 11.1098 329.049 10.3408C326.957 9.57187 324.099 10.2835 321.924 9.66369C319.75 9.04392 317.343 9.262 315.114 8.77996C312.885 8.29791 311.435 4.61369 309.179 4.28085C306.923 3.948 303.887 8.43565 301.603 8.25201C299.319 8.06837 297.336 3.94803 295.039 3.9136C292.741 3.87917 290.252 3.06426 287.955 3.17904C285.658 3.29381 284.085 8.97507 281.801 9.25053C279.517 9.52598 276.263 4.86618 274.02 5.27936C271.791 5.69255 269.685 6.9895 267.538 7.52894C265.391 8.06837 263.49 9.60632 261.398 10.2835C259.305 10.9606 256.283 10.2031 254.259 11.018C252.235 11.8329 252.126 15.8499 250.184 16.8026C248.242 17.7552 243.852 15.5975 242.006 16.6648C240.16 17.7322 240.406 21.3476 238.656 22.5412C236.905 23.7348 234.307 24.148 232.68 25.445C231.052 26.7419 230.109 28.6701 228.604 30.0703C227.1 31.4705 225.445 32.7675 224.078 34.271C222.273 32.9741 220.837 31.2869 218.936 30.1047C217.035 28.9226 213.124 30.2884 211.127 29.221C209.131 28.1536 210.197 22.633 208.105 21.6919C206.013 20.7508 203.168 20.7278 200.994 19.9014C198.82 19.0751 194.635 22.5297 192.406 21.8411C190.177 21.1525 189.507 16.6419 187.223 16.091C184.939 15.5401 182.71 14.3464 180.385 13.9332C178.061 13.5201 175.681 12.4642 173.315 12.1772C170.949 11.8903 168.091 15.3105 165.712 15.1728C163.332 15.0351 161.049 11.7411 158.655 11.7411C156.262 11.7411 154.033 15.3105 151.654 15.4597C149.274 15.6089 146.977 15.4597 144.611 15.7467C142.245 16.0336 139.866 15.8385 137.527 16.2746C135.175 16.7108 133.657 19.4309 131.387 19.9932C129.117 20.5556 125.602 17.9503 123.373 18.6504C121.144 19.3505 119.667 21.646 117.507 22.4838C115.346 23.3217 114.115 25.5138 112.036 26.4779C109.958 27.442 105.418 24.9629 103.421 26.0418C101.424 27.1207 102.628 32.0329 100.727 33.238C98.8261 34.4432 94.8739 33.3872 93.0825 34.7071C91.291 36.027 90.5799 38.2766 88.8979 39.6998C87.2158 41.1229 83.9337 41.2836 82.3747 42.7986C80.8158 44.3136 81.8961 47.5502 80.4739 49.157C79.0516 50.7638 76.3986 51.5558 75.1132 53.2429C73.8277 54.9301 70.1764 55.4925 69.0277 57.2485C67.879 59.0046 70.0396 62.1608 69.0414 63.9857C68.0431 65.8106 65.8277 67.1534 64.9935 69.0357C64.1593 70.918 64.9935 73.2019 64.3371 75.1301C63.6807 77.0583 64.4328 79.1357 63.9268 81.0868C63.4208 83.038 57.5268 84.1742 57.1849 86.1598C56.843 88.1453 59.7695 90.4638 59.6054 92.4723C59.4413 94.4808 56.3234 96.432 56.337 98.4405C56.3507 100.449 57.349 102.515 57.5268 104.523C57.7046 106.532 58.4977 108.518 58.8396 110.515C59.1815 112.512 58.3746 114.738 58.8806 116.712C59.0037 117.171 61.2465 117.194 61.3695 117.653C59.2088 118.399 57.0481 119.111 54.9695 119.96C52.8909 120.81 51.7695 123.163 49.7592 124.115C47.749 125.068 45.0823 125.079 43.1541 126.135C41.2259 127.191 37.6976 126.514 35.8652 127.685C34.0327 128.855 33.9369 131.966 32.1865 133.24C30.4361 134.514 27.2908 134.582 25.6497 135.948C24.0087 137.314 24.5967 140.482 23.0651 141.939C21.5335 143.397 16.3232 142.41 14.9146 143.959C13.5061 145.509 14.4907 148.619 13.2189 150.249C11.9471 151.879 8.50095 152.533 7.37958 154.232C6.2582 155.93 10.3471 159.878 9.37616 161.634C8.40522 163.39 7.53 165.009 6.70949 166.834C5.88897 168.658 3.64623 169.955 3.00349 171.826C2.36075 173.697 0.80177 175.338 0.336811 177.255C-0.128148 179.172 1.07528 181.238 0.80177 183.177C0.528265 185.117 -2.94525 186.839 -3.01363 188.801C-3.082 190.764 1.38981 192.623 1.51289 194.574C1.63596 196.525 0.487239 198.408 0.80177 200.347C1.1163 202.287 -2.65807 204.846 -2.15209 206.763C-1.65978 208.668 -1.52302 210.849 -0.852936 212.674C-0.182848 214.499 4.38469 215.325 5.24623 217.104C6.10777 218.883 7.2018 220.547 8.22744 222.269C9.25309 223.99 9.63599 225.999 10.8257 227.64C12.0155 229.281 11.6463 231.887 13.0001 233.459C14.354 235.032 16.2958 236.34 17.7865 237.809C19.2771 239.278 23.1198 238.922 24.7472 240.288C26.3745 241.654 25.5814 245.2 27.3181 246.463C29.0549 247.725 31.954 247.886 33.8002 249.034C35.6464 250.182 38.3404 250.239 40.2823 251.283C42.2242 252.328 43.072 254.91 45.096 255.828C47.1199 256.747 49.0481 257.963 51.1541 258.767C53.2601 259.57 56.1593 258.767 58.3199 259.444C60.4806 260.121 62.614 260.729 64.8294 261.28C67.0448 261.831 69.0277 262.99 71.2841 263.426C73.5405 263.863 75.7012 264.723 77.9713 265.033C80.2414 265.343 82.826 263.346 85.1235 263.53C87.4209 263.713 89.6226 262.91 91.9338 262.979C94.2449 263.048 96.4466 266.055 98.7714 265.997C101.096 265.94 103.435 266.192 105.746 266.009C108.057 265.825 110.259 264.987 112.556 264.677C114.854 264.368 117.698 266.296 119.954 265.883C122.183 265.469 124.317 264.218 126.477 263.702C128.638 263.185 130.607 261.716 132.741 261.096C134.874 260.477 137.336 260.27 139.414 259.536C141.493 258.801 143.927 258.365 145.937 257.527C147.948 256.689 149.219 254.417 151.175 253.476C153.131 252.534 154.772 251.077 156.645 250.021C158.519 248.965 161.937 249.562 163.729 248.426C165.52 247.289 165.165 243.789 166.874 242.549C168.584 241.31 171.852 241.424 173.452 240.093C175.052 238.762 175.161 239.255 176.652 237.844C177.773 239.554 178.867 238.796 180.235 240.357C181.602 241.918 184.584 242.331 186.184 243.731C187.784 245.132 186.608 249.252 188.399 250.469C190.191 251.685 194.074 250.744 196.044 251.765C198.013 252.787 199.244 255.209 201.363 256.012C203.483 256.815 205.616 258.285 207.832 258.847C210.047 259.409 213.069 257.802 215.367 258.124C217.664 258.445 220.016 257.871 222.341 257.94C224.666 258.009 226.881 258.055 229.206 257.871C231.531 257.688 233.514 256.678 235.811 256.253C237.917 255.863 241.09 258.537 243.086 257.963C245.083 257.389 245.507 253.372 247.408 252.603C249.309 251.834 252.085 251.869 253.863 250.916C255.011 252.661 255.777 254.933 257.172 256.54C258.567 258.147 261.548 258.583 263.162 260.041C264.775 261.498 263.299 265.768 265.117 267.065C266.936 268.362 270.697 267.707 272.68 268.832C274.663 269.957 275.716 272.482 277.822 273.423C279.928 274.364 281.856 276.063 284.058 276.832C286.259 277.601 290.444 273.722 292.728 274.318C295.011 274.915 296.721 276.625 299.059 277.027C301.398 277.429 303.422 279.047 305.801 279.288C308.181 279.529 310.465 281.847 312.858 281.916C315.251 281.985 317.658 278.955 320.037 278.852C322.417 278.749 324.304 276.097 326.683 275.833C329.063 275.569 331.907 278.439 334.246 278.014C336.516 277.601 339.593 279.322 341.781 278.772C343.969 278.221 344.571 273.526 346.704 272.826C348.837 272.126 350.943 271.541 352.995 270.703C355.046 269.865 358.779 271.472 360.735 270.485C362.69 269.498 363.196 266.479 365.043 265.366C366.889 264.253 369.596 263.943 371.319 262.68C373.043 261.418 375.996 261.016 377.583 259.627C379.169 258.239 379.648 255.828 381.07 254.325C382.492 252.821 380.851 249.539 382.082 247.921C383.313 246.302 387.497 246.142 388.523 244.431C389.549 242.721 389.781 240.632 390.574 238.831C391.367 237.029 394.54 235.674 395.073 233.804C395.607 231.933 392.202 229.385 392.461 227.468C392.721 225.551 394.13 223.554 394.116 221.615C395.251 223.302 394.622 226.24 395.921 227.812C397.22 229.385 400.051 230.165 401.514 231.634C402.978 233.103 406.123 233.264 407.737 234.618C409.35 235.973 408.448 239.749 410.198 240.965C411.949 242.182 415.805 241.195 417.706 242.274C419.607 243.353 421.48 244.34 423.491 245.258C425.501 246.176 426.472 249.022 428.578 249.768C430.684 250.514 433.939 248.701 436.127 249.275C438.315 249.849 440.079 251.605 442.335 251.995C444.592 252.385 447.026 251.226 449.323 251.41C451.621 251.593 453.74 252.856 456.038 252.833C458.335 252.81 460.359 250.962 462.657 250.744C464.954 250.526 467.539 252.489 469.795 252.075C472.106 251.651 475.033 252.661 477.234 252.052C479.436 251.444 480.038 247.209 482.158 246.394C484.277 245.579 487.928 247.209 489.939 246.211C491.949 245.212 494.602 244.684 496.476 243.513C498.349 242.343 498.787 239.519 500.496 238.188C502.205 236.856 505.036 236.317 506.582 234.848C508.127 233.379 510.164 232.025 511.546 230.429C512.927 228.834 511.04 225.448 512.229 223.738C513.419 222.028 516.209 221.11 517.194 219.319C518.178 217.529 518.684 215.578 519.464 213.718C520.243 211.859 519.327 209.655 519.888 207.75C520.448 205.845 523.949 204.433 524.305 202.482C524.66 200.531 522.992 198.385 523.129 196.411C523.265 194.436 527.081 192.416 526.999 190.442C526.917 188.468 524.92 186.471 524.619 184.509C524.318 182.546 519.546 181.329 519.026 179.39C518.506 177.416 519.341 175.338 518.629 173.456C517.918 171.574 519.956 168.773 519.04 166.948C518.123 165.123 515.074 164.056 513.953 162.312C512.831 160.567 512.311 158.49 510.999 156.837C509.686 155.184 506.65 154.633 505.159 153.084C503.669 151.534 501.057 151.075 499.402 149.652C497.747 148.229 499.525 143.741 497.706 142.467C495.887 141.193 491.101 143.259 489.146 142.146C487.19 141.033 488.106 135.948 486.028 134.996C483.949 134.043 479.354 137.498 477.166 136.729C474.978 135.96 473.775 132.884 471.504 132.298L471.436 132.23Z" stroke="#7FD5FF" stroke-width="5" stroke-miterlimit="10"/>
<path d="M706.098 236.671C706.441 237.986 704.717 239.643 704.912 240.95C705.106 242.258 706.998 243.534 707.053 244.849C707.109 246.164 705.737 247.564 705.644 248.887C705.551 250.21 707.378 251.805 707.146 253.112C706.914 254.42 704.467 255.47 704.087 256.754C703.706 258.038 704.402 259.656 703.883 260.909C703.363 262.162 703.03 263.609 702.371 264.815C701.713 266.022 699.933 266.839 699.136 267.99C698.338 269.142 696.669 269.811 695.742 270.893C694.815 271.974 695.631 274.293 694.583 275.289C693.536 276.285 692.525 277.553 691.357 278.448C690.189 279.343 686.527 277.748 685.247 278.541C683.968 279.335 684.7 282.673 683.337 283.358C681.974 284.043 680.315 284.611 678.868 285.163C677.422 285.716 674.696 283.545 673.185 283.965C671.674 284.385 670.311 284.634 668.744 284.922C667.214 285.202 666.018 286.681 664.489 286.828C662.959 286.976 661.383 285.692 659.834 285.7C658.286 285.708 656.858 286.019 655.319 285.895C653.78 285.77 652.028 287 650.507 286.743C648.987 286.486 647.865 285 646.382 284.619C644.898 284.237 642.58 285.692 641.153 285.187C639.725 284.681 637.768 284.72 636.406 284.097C635.043 283.475 635.414 280.362 634.125 279.623C632.836 278.884 632.206 277.623 631.01 276.791C629.814 275.958 626.337 277.258 625.234 276.332C624.13 275.406 623.88 273.74 622.879 272.737C621.877 271.733 620.255 271.064 619.365 269.982C618.475 268.901 619.17 268.768 618.401 267.624C618.419 268.939 619.031 268.823 618.855 270.114C618.679 271.406 617.455 272.643 617.093 273.912C616.732 275.18 617.214 276.752 616.667 277.989C616.12 279.226 615.619 280.596 614.915 281.771C614.21 282.946 613.95 284.494 613.107 285.607C612.263 286.719 608.731 286.253 607.748 287.288C606.765 288.322 605.995 289.373 604.911 290.322C603.826 291.272 602.037 291.419 600.85 292.283C599.663 293.147 600.943 296.586 599.672 297.364C598.402 298.142 596.919 298.858 595.565 299.543C594.212 300.228 592.237 300.08 590.828 300.663C589.418 301.247 587.583 301.014 586.118 301.504C584.653 301.994 583.512 303.231 582.001 303.62C580.49 304.009 578.497 302.648 576.958 302.936C575.372 303.231 574.046 304.492 572.479 304.671C570.913 304.85 569.355 306.414 567.77 306.484C566.184 306.554 564.395 306.375 562.809 306.328C561.224 306.281 559.676 304.593 558.1 304.437C556.523 304.282 554.428 306.071 552.871 305.791C551.313 305.511 550.608 302.227 549.088 301.838C547.567 301.449 545.138 303.083 543.673 302.57C542.208 302.056 541.661 299.807 540.261 299.177C538.862 298.547 537.61 297.815 536.284 297.068C534.958 296.322 533.252 296.057 532.038 295.193C530.823 294.33 530.193 292.999 529.108 292.018C528.023 291.038 527.374 289.886 526.438 288.797C525.501 287.708 523.109 288.268 522.331 287.093C521.125 287.739 520.235 287.311 518.928 287.84C517.621 288.369 515.85 287.716 514.478 288.112C513.106 288.509 512.642 291.645 511.214 291.91C509.657 292.197 507.747 291.45 506.208 291.567C504.669 291.684 503.065 289.116 501.507 289.069C499.95 289.023 498.577 289.264 497.038 289.046C495.499 288.828 493.293 291.03 491.8 290.649C490.307 290.268 489.167 288.82 487.748 288.284C486.33 287.747 484.253 288.042 482.918 287.35C481.583 286.657 479.719 286.284 478.496 285.451C477.272 284.619 476.011 283.514 474.926 282.564C473.841 281.615 474.129 279.553 473.202 278.487C472.275 277.421 471.449 276.697 470.698 275.538C469.688 276.503 468.853 277.133 467.759 278.043C466.665 278.954 466.814 281.07 465.655 281.919C464.496 282.767 461.483 281.755 460.259 282.541C459.035 283.327 458.562 284.977 457.273 285.692C455.985 286.408 455.187 287.871 453.852 288.517C452.517 289.163 449.856 287.731 448.466 288.307C447.075 288.883 446.862 291.591 445.434 292.089C444.006 292.587 441.54 290.805 440.075 291.233C438.61 291.661 436.923 291.108 435.43 291.466C433.937 291.824 433.288 294.742 431.777 295.014C430.238 295.294 428.477 294.625 426.947 294.827C425.417 295.03 423.841 295.123 422.302 295.24C420.763 295.357 419.215 295.948 417.666 295.987C416.118 296.026 414.597 293.839 413.049 293.793C411.501 293.746 409.684 297.014 408.145 296.89C406.605 296.765 404.974 296.306 403.444 296.096C401.914 295.886 400.282 295.59 398.771 295.294C397.26 294.999 396.527 292.174 395.035 291.801C393.542 291.427 390.992 293.668 389.537 293.217C388.081 292.766 387.97 289.536 386.551 288.999C385.133 288.462 382.444 290.097 381.072 289.474C379.7 288.852 378.55 287.801 377.243 287.101C375.936 286.4 374.397 285.864 373.145 285.085C371.893 284.307 371.022 283.047 369.844 282.199C368.667 281.35 368.945 279.226 367.851 278.3C366.757 277.374 363.79 277.911 362.78 276.915C361.769 275.919 360.406 275.055 359.498 273.997C358.589 272.939 357.755 271.725 356.948 270.605C356.141 269.484 358.339 267.01 357.634 265.835C356.929 264.66 353.147 264.691 352.563 263.469C351.979 262.248 353.137 260.497 352.674 259.236C352.21 257.976 352.563 256.622 352.229 255.33C351.886 254.031 352.655 252.692 352.451 251.393C352.247 250.093 350.115 248.996 350.032 247.681C349.948 246.366 347.946 244.989 348.001 243.674C348.057 242.359 348.298 240.919 348.483 239.612C348.669 238.305 348.882 236.873 349.188 235.574C349.494 234.274 352.637 233.535 353.063 232.267C353.49 230.998 353.722 229.738 354.278 228.501C354.834 227.263 352.794 225.085 353.453 223.878C354.111 222.672 355.78 221.801 356.549 220.649C357.319 219.498 358.858 218.696 359.729 217.591C360.601 216.486 360.314 214.634 361.268 213.584C362.223 212.533 365.839 213.319 366.887 212.323C367.935 211.327 367.647 209.367 368.769 208.433C369.891 207.499 370.113 205.702 371.309 204.83C372.505 203.959 376.01 205.546 377.271 204.744C378.532 203.943 379.144 202.55 380.46 201.827C381.777 201.103 382.009 198.916 383.39 198.255C384.771 197.594 386.375 197.267 387.794 196.683C389.212 196.1 390.019 194.964 391.493 194.458C391.41 194.146 390.77 195.135 390.687 194.823C390.334 193.485 393.57 191.633 393.338 190.295C393.106 188.956 391.206 187.828 391.085 186.482C390.965 185.136 392.355 183.782 392.355 182.428C392.355 181.074 390.195 179.689 390.306 178.343C390.418 176.997 391.326 175.697 391.549 174.359C391.771 173.021 391.178 171.534 391.521 170.212C391.864 168.889 393.959 167.947 394.414 166.648C394.868 165.348 392.188 163.131 392.745 161.862C393.301 160.594 394.896 159.559 395.563 158.33C396.231 157.1 398.799 156.641 399.578 155.451C400.357 154.26 401.367 153.256 402.239 152.112C403.11 150.969 403.231 149.436 404.195 148.346C405.159 147.257 405.892 146.012 406.948 144.985C408.005 143.958 409.387 143.187 410.527 142.222C411.668 141.258 412.641 140.16 413.865 139.266C415.089 138.371 415.219 136.27 416.517 135.453C417.815 134.636 420.689 135.671 422.052 134.932C423.414 134.192 424.434 133.041 425.853 132.387C427.271 131.733 429.061 131.788 430.544 131.22C432.028 130.652 433.835 131.049 435.356 130.574C436.876 130.099 437.201 126.699 438.759 126.31C440.316 125.921 441.883 125.205 443.478 124.909C445.063 124.621 447.297 127.283 448.883 127.088C450.468 126.894 451.776 124.419 453.37 124.318C454.965 124.217 456.689 124.925 458.293 124.917C459.897 124.909 461.39 126.909 462.985 127.002C464.579 127.096 466.434 124.987 468.019 125.174C469.604 125.361 471.422 124.948 472.998 125.228C474.574 125.508 476.382 125.477 477.921 125.851C479.46 126.224 481.129 126.699 482.64 127.166C484.151 127.633 485.542 128.629 487.007 129.189C488.472 129.749 488.815 132.247 490.224 132.893C491.633 133.539 494.257 132.473 495.62 133.196C496.983 133.92 496.408 136.978 497.697 137.779C498.985 138.581 501.387 137.818 502.61 138.69C503.547 137.67 505.095 137.375 506.124 136.418C507.153 135.461 508.507 134.861 509.62 133.974C510.732 133.087 511.483 131.951 512.67 131.142C513.857 130.333 514.988 129.524 516.249 128.792C517.51 128.061 518.78 127.43 520.115 126.777C521.45 126.123 522.127 124.466 523.517 123.906C524.908 123.345 526.039 122.139 527.476 121.672C528.913 121.205 530.675 121.338 532.158 120.964C533.642 120.591 534.921 119.307 536.432 119.027C537.962 118.747 539.714 118.91 541.235 118.731C542.755 118.552 544.545 119.758 546.084 119.68C547.623 119.603 549.181 120.202 550.72 120.225C552.259 120.248 553.77 120.318 555.3 120.443C556.829 120.567 558.09 121.882 559.602 122.108C561.113 122.334 562.698 121.882 564.191 122.209C565.684 122.536 567.825 121.073 569.29 121.493C570.755 121.914 571.024 124.831 572.442 125.345C573.861 125.859 575.066 126.434 576.429 127.049C577.792 127.664 580.277 126.551 581.575 127.251C582.873 127.952 583.874 129.026 585.107 129.811C586.34 130.597 588.686 130.325 589.835 131.197C590.985 132.068 589.455 135.196 590.522 136.145C591.588 137.095 593.34 137.375 594.314 138.386C595.287 139.398 595.834 140.557 596.696 141.639C597.559 142.72 601.545 142.222 602.296 143.366C603.047 144.51 601.721 147.872 602.361 149.062C603.26 147.957 602.695 144.425 603.715 143.405C604.735 142.386 606.033 141.328 607.173 140.402C608.313 139.476 609.667 138.464 610.919 137.647C612.17 136.83 613.839 136.2 615.193 135.507C616.546 134.815 618.975 135.663 620.422 135.095C621.868 134.527 623.611 134.838 625.122 134.41C626.634 133.982 627.783 132.838 629.35 132.55C630.898 132.263 632.382 131.78 633.921 131.64C635.46 131.5 637.055 132.379 638.612 132.387C640.17 132.395 641.839 130.994 643.387 131.15C644.935 131.305 646.669 131.15 648.199 131.438C649.729 131.726 651.147 132.62 652.63 133.041C654.114 133.461 656.237 132.846 657.665 133.399C659.093 133.951 660.539 134.791 661.893 135.461C663.246 136.13 664.498 137.149 665.768 137.927C667.038 138.705 667.288 140.612 668.466 141.491C669.643 142.37 671.748 142.479 672.824 143.452C673.899 144.425 673.797 146.245 674.77 147.288C675.744 148.331 676.875 149.233 677.728 150.354C678.581 151.474 681.158 151.809 681.891 152.984C682.623 154.159 682.929 155.614 683.532 156.843C684.135 158.073 684.96 159.333 685.433 160.602C685.905 161.87 685.145 163.465 685.479 164.765C685.822 166.087 685.34 167.535 685.535 168.85C685.729 170.165 685.692 171.519 685.757 172.849C685.822 174.18 686.128 175.526 686.044 176.857C685.961 178.187 685.21 179.463 684.988 180.778C684.765 182.093 683.374 183.159 683.003 184.459C682.633 185.758 685.052 187.735 684.533 188.995C684.014 190.256 681.455 190.878 680.806 192.092C680.157 193.306 679.388 194.411 678.59 195.57C677.793 196.73 678.21 198.535 677.283 199.624C676.356 200.714 673.296 200.301 672.239 201.297C671.182 202.293 670.181 204.729 669.004 205.632C670.543 206.021 672.74 207.764 674.233 208.285C675.725 208.806 677.524 208.487 678.943 209.133C680.361 209.779 681.743 210.331 683.078 211.102C684.413 211.872 686.267 212.004 687.509 212.876C688.752 213.747 690.495 214.214 691.626 215.187C692.757 216.16 694.166 217.031 695.186 218.089C696.206 219.148 695.056 221.521 695.956 222.657C696.855 223.793 698.227 224.579 698.987 225.777C699.748 226.975 701.546 227.746 702.177 228.999C702.807 230.251 702.631 231.753 703.122 233.053C703.614 234.352 705.774 235.309 706.126 236.64L706.098 236.671Z" fill="white"/>
<path d="M670.33 205.39C671.507 204.487 674.057 204.487 675.123 203.484C676.189 202.48 675.308 200.13 676.245 199.033C677.181 197.936 677.376 196.566 678.173 195.407C678.97 194.247 682.864 194.387 683.523 193.166C684.181 191.944 682.521 189.882 683.041 188.606C683.56 187.33 686.249 186.536 686.629 185.229C687.009 183.922 683.949 182.054 684.181 180.724C684.413 179.393 688.131 178.335 688.214 176.989C688.297 175.642 687.741 174.172 687.676 172.826C687.611 171.48 685.6 170.25 685.396 168.904C685.192 167.558 683.634 166.531 683.282 165.208C682.939 163.908 685.785 161.909 685.321 160.664C684.858 159.419 682.28 158.718 681.696 157.512C681.112 156.306 680.76 154.983 680.037 153.824C679.314 152.665 679.619 150.922 678.785 149.817C677.951 148.712 674.993 148.821 674.038 147.794C673.083 146.766 673.565 144.689 672.499 143.732C671.433 142.775 669.402 142.603 668.234 141.74C667.066 140.876 666.491 139.351 665.23 138.581C663.969 137.81 662.143 137.709 660.799 137.04C659.454 136.371 658.991 134.13 657.572 133.577C656.154 133.025 654.095 133.531 652.612 133.103C651.129 132.675 649.413 132.9 647.884 132.612C646.354 132.324 644.898 131.679 643.331 131.531C641.764 131.383 640.188 130.348 638.612 130.34C637.036 130.332 635.543 132.075 633.977 132.216C632.41 132.356 630.806 132.013 629.257 132.301C627.691 132.589 626.68 134.246 625.197 134.674C623.713 135.102 622.193 135.211 620.765 135.779C619.337 136.347 617.446 136.122 616.101 136.814C614.757 137.507 613.376 138.192 612.124 139.009C610.872 139.826 609.89 140.907 608.749 141.825C607.609 142.744 605.671 143.094 604.642 144.113C603.613 145.132 603.242 147.949 602.352 149.054C601.712 147.864 602.046 145 601.295 143.864C600.544 142.728 600.071 141.335 599.209 140.261C598.347 139.188 596.02 138.931 595.065 137.919C594.11 136.908 594.842 134.542 593.785 133.601C592.728 132.659 591.356 131.764 590.197 130.893C589.038 130.021 586.405 130.558 585.172 129.764C583.939 128.971 582.66 128.27 581.352 127.57C580.045 126.87 579.507 125.002 578.135 124.388C576.763 123.773 575.215 123.275 573.796 122.754C572.378 122.232 570.44 122.715 568.966 122.295C567.492 121.874 565.86 122.022 564.349 121.695C562.837 121.369 561.855 118.871 560.325 118.645C558.795 118.419 556.737 121.462 555.188 121.337C553.64 121.213 552.296 118.419 550.738 118.396C549.181 118.373 547.493 117.82 545.936 117.898C544.378 117.976 543.312 121.828 541.764 122.014C540.215 122.201 538.009 119.042 536.488 119.322C534.977 119.602 533.549 120.481 532.093 120.847C530.638 121.213 529.349 122.256 527.931 122.715C526.512 123.174 524.463 122.66 523.091 123.213C521.719 123.765 521.645 126.489 520.328 127.134C519.012 127.78 516.035 126.317 514.784 127.041C513.532 127.765 513.699 130.216 512.512 131.025C511.326 131.834 509.564 132.114 508.461 132.994C507.357 133.873 506.718 135.18 505.698 136.129C504.678 137.079 503.556 137.958 502.629 138.977C501.405 138.098 500.432 136.954 499.143 136.153C497.854 135.351 495.203 136.277 493.849 135.554C492.495 134.83 493.219 131.087 491.8 130.449C490.382 129.811 488.453 129.796 486.979 129.235C485.505 128.675 482.668 131.017 481.157 130.55C479.645 130.084 479.191 127.025 477.643 126.652C476.094 126.278 474.583 125.469 473.007 125.189C471.431 124.909 469.818 124.193 468.214 123.999C466.61 123.804 464.672 126.123 463.059 126.029C461.446 125.936 459.897 123.703 458.275 123.703C456.652 123.703 455.141 126.123 453.528 126.224C451.915 126.325 450.357 126.224 448.753 126.419C447.149 126.613 445.536 126.481 443.951 126.776C442.356 127.072 441.327 128.916 439.788 129.298C438.249 129.679 435.866 127.913 434.355 128.387C432.843 128.862 431.842 130.418 430.377 130.986C428.912 131.554 428.078 133.04 426.669 133.694C425.26 134.348 422.181 132.667 420.828 133.398C419.474 134.13 420.29 137.46 419.001 138.277C417.713 139.094 415.033 138.378 413.819 139.273C412.604 140.168 412.122 141.693 410.982 142.658C409.841 143.623 407.616 143.732 406.559 144.759C405.502 145.786 406.235 147.98 405.27 149.07C404.306 150.159 402.508 150.696 401.636 151.84C400.765 152.984 398.289 153.365 397.51 154.555C396.732 155.746 398.196 157.886 397.52 159.123C396.843 160.36 395.341 161.271 394.775 162.547C394.21 163.823 394.775 165.371 394.33 166.679C393.885 167.986 394.395 169.394 394.052 170.717C393.709 172.04 389.713 172.81 389.481 174.156C389.25 175.502 391.234 177.074 391.122 178.436C391.011 179.798 388.897 181.12 388.906 182.482C388.916 183.844 389.593 185.244 389.713 186.606C389.834 187.968 390.371 189.314 390.603 190.668C390.835 192.022 390.288 193.531 390.631 194.87C390.714 195.181 392.235 195.197 392.318 195.508C390.853 196.014 389.389 196.496 387.979 197.072C386.57 197.648 385.81 199.243 384.447 199.889C383.084 200.535 381.276 200.542 379.969 201.258C378.662 201.974 376.27 201.515 375.027 202.309C373.785 203.102 373.72 205.211 372.533 206.075C371.347 206.938 369.214 206.985 368.102 207.911C366.989 208.837 367.388 210.985 366.349 211.973C365.311 212.961 361.778 212.292 360.824 213.342C359.869 214.393 360.536 216.502 359.674 217.607C358.812 218.711 356.475 219.155 355.715 220.307C354.955 221.458 357.727 224.135 357.069 225.325C356.41 226.516 355.817 227.613 355.261 228.85C354.704 230.088 353.184 230.967 352.748 232.235C352.312 233.504 351.255 234.616 350.94 235.916C350.625 237.215 351.441 238.616 351.255 239.931C351.07 241.246 348.715 242.413 348.669 243.744C348.622 245.074 351.654 246.335 351.738 247.658C351.821 248.98 351.042 250.256 351.255 251.571C351.469 252.887 348.91 254.622 349.253 255.921C349.587 257.213 349.679 258.691 350.134 259.928C350.588 261.166 353.685 261.726 354.269 262.932C354.853 264.138 355.594 265.266 356.29 266.434C356.985 267.601 357.245 268.962 358.051 270.075C358.858 271.188 358.608 272.954 359.526 274.02C360.443 275.086 361.76 275.973 362.77 276.969C363.781 277.965 366.386 277.724 367.49 278.65C368.593 279.576 368.055 281.98 369.233 282.836C370.41 283.692 372.376 283.801 373.627 284.579C374.879 285.357 376.705 285.396 378.022 286.104C379.338 286.813 379.913 288.563 381.285 289.186C382.658 289.808 383.965 290.633 385.393 291.178C386.82 291.722 388.786 291.178 390.251 291.637C391.716 292.096 393.162 292.508 394.664 292.882C396.166 293.255 397.51 294.041 399.04 294.337C400.57 294.633 402.035 295.216 403.574 295.426C405.113 295.636 406.865 294.283 408.423 294.407C409.98 294.532 411.473 293.987 413.04 294.034C414.607 294.08 416.099 296.119 417.676 296.08C419.252 296.041 420.837 296.212 422.404 296.088C423.971 295.963 425.463 295.395 427.021 295.185C428.579 294.975 430.507 296.282 432.037 296.002C433.548 295.722 434.994 294.874 436.459 294.524C437.924 294.174 439.259 293.178 440.706 292.757C442.152 292.337 443.821 292.197 445.23 291.699C446.639 291.201 448.29 290.905 449.652 290.337C451.015 289.769 451.878 288.229 453.203 287.591C454.529 286.953 455.642 285.964 456.912 285.249C458.182 284.533 460.5 284.937 461.715 284.167C462.929 283.397 462.688 281.023 463.847 280.183C465.006 279.343 467.222 279.42 468.306 278.518C469.391 277.615 469.465 277.95 470.476 276.993C471.236 278.152 471.978 277.639 472.905 278.697C473.832 279.755 475.853 280.035 476.938 280.984C478.023 281.934 477.226 284.727 478.44 285.552C479.655 286.377 482.288 285.739 483.623 286.431C484.958 287.124 485.792 288.766 487.229 289.31C488.666 289.855 490.113 290.851 491.615 291.232C493.117 291.614 495.166 290.524 496.723 290.742C498.281 290.96 499.875 290.571 501.452 290.618C503.028 290.664 504.53 290.695 506.106 290.571C507.682 290.446 509.026 289.762 510.584 289.474C512.012 289.209 514.163 291.022 515.516 290.633C516.87 290.244 517.157 287.521 518.446 286.999C519.735 286.478 521.617 286.501 522.822 285.855C523.601 287.038 524.12 288.579 525.066 289.668C526.011 290.758 528.033 291.053 529.127 292.042C530.221 293.03 529.219 295.924 530.452 296.804C531.686 297.683 534.235 297.239 535.58 298.002C536.924 298.764 537.638 300.476 539.066 301.114C540.493 301.752 541.801 302.904 543.293 303.425C544.786 303.947 547.623 301.317 549.171 301.721C550.72 302.126 551.879 303.285 553.464 303.558C555.049 303.83 556.422 304.927 558.035 305.091C559.648 305.254 561.196 306.826 562.819 306.873C564.441 306.919 566.073 304.865 567.686 304.795C569.299 304.725 570.579 302.927 572.192 302.749C573.805 302.57 575.734 304.515 577.319 304.227C578.858 303.947 580.944 305.114 582.428 304.74C583.911 304.367 584.319 301.184 585.765 300.71C587.212 300.235 588.64 299.838 590.03 299.27C591.421 298.702 593.952 299.792 595.278 299.122C596.604 298.453 596.947 296.407 598.198 295.652C599.45 294.897 601.286 294.687 602.454 293.831C603.622 292.975 605.625 292.703 606.7 291.761C607.776 290.82 608.1 289.186 609.064 288.166C610.029 287.147 608.916 284.922 609.75 283.825C610.585 282.727 613.422 282.618 614.117 281.459C614.813 280.3 614.97 278.884 615.508 277.662C616.046 276.44 618.197 275.522 618.558 274.254C618.92 272.985 616.611 271.258 616.787 269.958C616.964 268.659 617.919 267.305 617.909 265.99C618.679 267.134 618.252 269.126 619.133 270.192C620.014 271.258 621.933 271.787 622.925 272.783C623.917 273.779 626.05 273.888 627.144 274.806C628.238 275.724 627.626 278.284 628.812 279.109C629.999 279.934 632.614 279.265 633.902 279.996C635.191 280.728 636.461 281.397 637.824 282.019C639.187 282.642 639.845 284.572 641.273 285.077C642.701 285.583 644.907 284.354 646.391 284.743C647.874 285.132 649.07 286.322 650.6 286.587C652.13 286.851 653.78 286.066 655.338 286.19C656.895 286.315 658.332 287.17 659.89 287.155C661.448 287.139 662.82 285.887 664.377 285.739C665.935 285.591 667.687 286.922 669.217 286.641C670.784 286.353 672.768 287.038 674.261 286.626C675.753 286.213 676.161 283.342 677.598 282.79C679.035 282.237 681.511 283.342 682.874 282.665C684.237 281.988 686.035 281.63 687.305 280.837C688.576 280.043 688.872 278.129 690.031 277.226C691.19 276.323 693.109 275.958 694.157 274.962C695.205 273.966 696.586 273.048 697.522 271.966C698.459 270.884 697.179 268.589 697.986 267.43C698.793 266.27 700.684 265.648 701.352 264.434C702.019 263.22 702.362 261.897 702.891 260.637C703.419 259.376 702.798 257.882 703.178 256.59C703.558 255.299 705.932 254.342 706.173 253.019C706.414 251.696 705.283 250.241 705.375 248.903C705.468 247.564 708.055 246.195 707.999 244.856C707.944 243.518 706.59 242.164 706.386 240.833C706.182 239.503 702.946 238.678 702.594 237.363C702.242 236.025 702.807 234.616 702.325 233.34C701.843 232.064 703.224 230.165 702.603 228.928C701.982 227.691 699.915 226.967 699.154 225.785C698.394 224.602 698.042 223.193 697.152 222.073C696.262 220.952 694.203 220.579 693.193 219.528C692.182 218.478 690.411 218.167 689.29 217.202C688.168 216.237 689.373 213.195 688.14 212.331C686.907 211.467 683.662 212.868 682.336 212.113C681.01 211.358 681.631 207.911 680.222 207.265C678.813 206.619 675.698 208.962 674.214 208.44C672.731 207.919 671.915 205.834 670.376 205.437L670.33 205.39Z" stroke="#7FD5FF" stroke-width="5" stroke-miterlimit="10"/>
</svg>
