<svg width="519" height="239" viewBox="0 0 519 239" fill="none" xmlns="http://www.w3.org/2000/svg">
<path d="M528.056 151.201C528.056 153.369 524.513 155.442 524.375 157.563C524.236 159.684 526.812 162.102 526.549 164.211C526.285 166.32 524.714 168.357 524.312 170.454C523.91 172.551 522.653 174.516 522.113 176.578C521.573 178.639 523.834 181.593 523.156 183.619C522.477 185.644 516.747 186.014 515.918 187.991C515.089 189.969 514.561 191.959 513.593 193.865C512.626 195.771 512.249 197.916 511.13 199.739C510.012 201.561 511.444 204.897 510.175 206.637C509.271 208.46 509.371 210.973 508.24 212.665C507.109 214.357 501.103 212.725 499.758 214.262C498.414 215.799 498.099 217.919 496.566 219.301C495.033 220.683 493.362 221.589 491.653 222.768C489.944 223.948 488.399 224.961 486.539 225.926C484.679 226.891 484.465 231.156 482.493 231.906C480.52 232.657 477.718 231.299 475.657 231.799C473.596 232.3 471.661 233.419 469.537 233.67C467.414 233.92 465.265 232.538 463.129 232.538C459.899 232.538 459.899 230.894 456.67 230.894C453.44 230.894 453.44 235.242 450.211 235.242C446.982 235.242 446.982 231.084 443.752 231.084C440.523 231.084 440.523 234.504 437.293 234.504C434.064 234.504 434.064 236.041 430.834 236.041C427.605 236.041 427.605 232.407 424.376 232.407C421.146 232.407 421.146 231.12 417.917 231.12C414.687 231.12 414.687 235.981 411.458 235.981C408.228 235.981 408.228 234.337 404.999 234.337C401.77 234.337 401.77 236.195 398.54 236.195C395.311 236.195 395.311 231.251 392.081 231.251C388.852 231.251 388.852 232.49 385.622 232.49C382.393 232.49 382.393 231.99 379.164 231.99C375.934 231.99 375.934 233.455 372.705 233.455C369.475 233.455 369.475 234.468 366.246 234.468C363.016 234.468 363.017 234.468 359.787 234.468C356.558 234.468 356.558 235.707 353.328 235.707C350.099 235.707 350.099 231.954 346.869 231.954C343.64 231.954 343.64 234.396 340.41 234.396C337.181 234.396 337.181 233.193 333.952 233.193C330.722 233.193 330.722 231.43 327.493 231.43C324.263 231.43 324.263 234.933 321.047 234.933C317.83 234.933 317.817 232.3 314.6 232.3C311.383 232.3 311.371 232.454 308.154 232.454C304.937 232.454 304.924 230.643 301.708 230.643C298.491 230.643 298.478 234.289 295.249 234.289C292.019 234.289 292.019 235.254 288.79 235.254C285.561 235.254 285.561 234.504 282.344 234.504C279.127 234.504 279.114 232.943 275.897 232.943C272.681 232.943 272.668 231.489 269.439 231.489C266.209 231.489 266.209 234.98 262.98 234.98C259.75 234.98 259.75 232.728 256.521 232.728C253.291 232.728 253.291 231.287 250.062 231.287C246.833 231.287 246.833 232.812 243.603 232.812C240.374 232.812 240.374 235.123 237.144 235.123C233.915 235.123 233.915 236.35 230.685 236.35C227.456 236.35 227.456 233.836 224.227 233.836C220.997 233.836 220.997 234.063 217.768 234.063C214.538 234.063 214.538 231.406 211.309 231.406C208.079 231.406 208.079 230.739 204.85 230.739C201.621 230.739 201.621 231.835 198.391 231.835C195.162 231.835 195.162 236.493 191.932 236.493C188.703 236.493 188.703 236.041 185.473 236.041C182.244 236.041 182.244 235.647 179.015 235.647C175.785 235.647 175.785 230.643 172.556 230.643C169.326 230.643 169.326 231.597 166.097 231.597C162.868 231.597 162.867 232.907 159.638 232.907C156.409 232.907 156.409 233.789 153.179 233.789C149.95 233.789 149.95 231.716 146.72 231.716C143.491 231.716 143.491 232.609 140.262 232.609C137.032 232.609 137.032 232.752 133.803 232.752C130.573 232.752 130.573 233.682 127.344 233.682C124.114 233.682 124.114 234.909 120.885 234.909C117.656 234.909 117.656 236.434 114.426 236.434C111.197 236.434 111.197 231.072 107.967 231.072C104.738 231.072 104.738 232.907 101.508 232.907C98.279 232.907 98.279 232.359 95.0495 232.359C91.8201 232.359 91.8201 235.624 88.5782 235.624C85.3362 235.624 85.3487 232.121 82.1067 232.121C78.8647 232.121 78.8773 232.454 75.6353 232.454C73.3986 232.454 71.2247 233.217 69.0633 232.943C66.902 232.669 64.2381 234.432 62.127 233.896C59.9406 233.598 58.7971 228.88 56.6734 228.404C54.5498 227.927 51.2073 231.537 49.1465 230.894C47.0857 230.25 46.2061 226.354 44.2081 225.556C42.2101 224.758 38.4906 227.153 36.5681 226.188C34.6455 225.223 33.1627 223.138 31.3407 222.018C29.5186 220.898 29.5815 217.264 27.8851 215.977C26.1887 214.691 22.1801 215.811 20.622 214.369C19.0638 212.927 20.1821 209.103 18.7873 207.506C17.3925 205.91 13.0196 206.398 11.8133 204.671C10.607 202.943 11.8511 199.762 10.8458 197.916C9.84051 196.069 5.35444 195.557 4.57536 193.615C3.79627 191.673 7.94302 188.218 7.41525 186.204C6.88749 184.191 6.25919 182.415 5.9953 180.342C5.73142 178.269 4.63825 176.423 4.63825 174.326C4.63825 172.229 4.32404 170.239 4.57536 168.226C4.82667 166.212 6.82466 164.568 7.33986 162.591C7.85506 160.613 4.2361 157.372 4.99005 155.454C5.744 153.536 8.82266 152.428 9.8028 150.593C10.7829 148.758 9.62686 145.589 10.808 143.862C11.9892 142.134 15.6836 142.015 17.0658 140.419C18.4481 138.822 17.7192 135.284 19.2648 133.818C20.8104 132.353 26.2515 135.045 27.9353 133.735C29.6191 132.424 28.4003 127.539 30.2097 126.384C32.0192 125.228 34.1931 124.43 36.1031 123.429C38.0131 122.428 39.8729 121.094 41.8709 120.26C43.8689 119.426 46.4826 119.903 48.5434 119.247C50.6042 118.592 53.3309 120.403 55.4546 119.903C57.5782 119.402 59.4379 118.652 61.5866 118.318C63.7354 117.984 65.6329 116.567 67.8068 116.4C69.9807 116.233 72.0792 116.876 74.2656 116.876C76.4521 116.876 78.6134 115.876 80.7496 116.042C82.8858 116.209 84.5948 119.259 86.7059 119.581C88.8169 119.903 90.2368 115.006 92.3228 115.494C93.3532 113.767 94.5092 114.029 95.6904 112.397C96.8716 110.764 97.0853 108.227 98.4172 106.702C99.7492 105.177 103.167 105.272 104.625 103.866C106.082 102.46 105.818 99.0887 107.414 97.8139C109.01 96.5391 113.597 98.8386 115.293 97.6948C116.99 96.5511 116.663 92.405 118.472 91.4042C120.282 90.4034 122.77 90.3915 124.655 89.5456C126.54 88.6997 129.442 90.2485 131.403 89.5694C133.363 88.8903 134.431 85.6497 136.454 85.1255C138.477 84.6013 140.488 83.5648 142.549 83.2192C144.609 82.8737 146.796 82.3495 148.894 82.1827C150.993 82.0159 153.229 83.5886 155.328 83.5886C156.899 83.5886 157.766 83.0763 159.311 83.1716C160.505 81.3964 160.731 79.4425 162.063 77.7626C163.395 76.0827 167.542 76.5355 169.012 74.9747C170.482 73.414 171.4 71.4244 172.996 69.9708C174.591 68.5173 176.024 66.9208 177.745 65.5984C179.467 64.2759 180.485 62.0123 182.319 60.8209C184.154 59.6295 186.906 59.8201 188.841 58.7836C190.776 57.747 191.832 55.0306 193.842 54.149C195.853 53.2674 199.484 56.2816 201.57 55.5668C203.656 54.8519 205.529 54.2801 207.677 53.7439C209.826 53.2078 211.397 50.9918 213.596 50.6224C215.795 50.2531 217.994 51.1348 220.218 50.956C222.442 50.7773 224.44 50.6344 226.677 50.6344C228.7 50.6344 230.535 50.7773 232.52 50.9203C234.505 51.0633 236.428 50.8131 238.401 51.099C240.374 51.3849 242.824 49.3953 244.759 49.8361C246.694 50.2769 247.813 53.4342 249.71 54.0179C251.608 54.6017 254.586 52.3857 256.433 53.1006C258.28 53.8154 258.996 53.9107 260.781 54.7685C261.811 53.041 262.879 52.7551 264.023 51.0871C265.166 49.4191 265.367 47.0482 266.611 45.4398C267.855 43.8315 269.212 42.1754 270.544 40.6504C271.876 39.1254 274.302 38.3867 275.734 36.9332C277.167 35.4797 280.911 36.2779 282.432 34.8959C283.952 33.5139 284.97 31.8221 286.566 30.5354C288.162 29.2487 287.785 25.6506 289.469 24.4592C291.152 23.2678 295.274 25.4362 297.021 24.3401C298.767 23.244 298.792 19.6817 300.602 18.6809C302.411 17.6801 303.844 15.9526 305.716 15.0591C307.588 14.1655 309.323 12.8311 311.258 12.0448C313.193 11.2585 315.907 12.295 317.88 11.604C319.853 10.913 320.871 7.35067 322.881 6.76688C324.892 6.18309 327.091 5.71845 329.139 5.2538C331.187 4.78915 334.203 8.76844 336.276 8.42293C338.35 8.07742 339.832 4.1458 341.931 3.90752C344.029 3.66924 346.442 7.48172 348.553 7.36258C350.664 7.24344 352.599 7.69618 354.71 7.69618C356.822 7.69618 358.895 7.58895 361.044 7.72001C363.192 7.85106 365.844 3.10928 367.98 3.34756C370.116 3.58584 371.825 7.08856 373.949 7.4579C376.072 7.82723 378.812 5.73036 380.91 6.21884C383.009 6.70731 384.944 8.14892 387.005 8.75653C389.065 9.36415 391.051 10.3887 393.074 11.1155C395.097 11.8423 397.17 12.5809 399.143 13.4268C401.116 14.2727 401.569 17.9542 403.479 18.9073C405.389 19.8604 409.598 16.9772 411.445 18.0495C413.292 19.1217 413.029 23.2916 414.8 24.4711C416.572 25.6506 419.324 25.4957 421.033 26.7705C422.742 28.0453 424.803 28.9389 426.424 30.2971C428.045 31.6553 430.545 32.251 432.078 33.7045C433.611 35.158 434.855 37.0047 436.288 38.5416C437.72 40.0785 436.213 43.9148 437.545 45.5351C438.877 47.1555 442.935 46.8457 444.167 48.5375C445.398 50.2293 446.466 52.0879 447.585 53.8512C448.703 55.6144 448.414 58.1402 449.419 59.9631C450.425 61.7859 454.383 62.322 455.262 64.2044C456.142 66.0869 454.571 68.7437 455.338 70.6619C457.575 70.364 459.635 67.7906 461.935 67.7906C464.234 67.7906 466.635 68.3029 468.783 68.5769C470.932 68.8509 473.018 70.6857 475.116 71.2337C477.215 71.7818 479.351 72.58 481.362 73.3783C483.372 74.1765 483.498 78.3226 485.408 79.3472C487.318 80.3718 490.057 79.7165 491.829 80.9437C493.601 82.1708 496.767 81.7181 498.414 83.1001C500.06 84.4821 500.437 87.0794 501.932 88.6163C503.427 90.1532 502.95 93.0245 504.307 94.6686C505.664 96.3128 509.333 96.2175 510.527 97.9688C511.721 99.7202 510.427 102.746 511.482 104.569C512.538 106.392 516.76 106.618 517.677 108.513C518.594 110.407 515.377 113.826 516.157 115.768C516.936 117.71 522.138 118.127 522.779 120.129C523.42 122.13 525.028 123.953 525.531 125.979C526.033 128.004 526.096 130.22 526.473 132.269C526.85 134.319 525.041 136.701 525.292 138.762C525.543 140.824 527.403 142.778 527.529 144.862C527.654 146.947 527.981 149.08 527.981 151.165L528.056 151.201Z" fill="white"/>
<path d="M527.906 151.2C527.906 149.116 525.644 147.054 525.518 145.017C525.393 142.98 522.804 141.145 522.565 139.12C522.327 137.094 527.391 134.247 527.026 132.233C526.662 130.22 521.095 129.148 520.592 127.158C520.09 125.168 521.02 122.845 520.391 120.891C519.763 118.937 521.673 116.042 520.907 114.136C520.14 112.23 515.34 111.848 514.448 109.99C513.556 108.131 512.5 106.439 511.457 104.652C510.414 102.865 512.827 99.0528 511.646 97.3491C510.464 95.6454 508.768 94.0489 507.448 92.4286C506.129 90.8083 501.857 91.535 500.399 90.0338C498.941 88.5327 498.715 85.9235 497.107 84.5653C495.498 83.2071 492.822 83.219 491.075 82.0157C489.329 80.8124 488.813 77.9173 486.929 76.9046C485.044 75.8919 484.151 72.4964 482.153 71.7101C480.155 70.9237 477.605 70.5663 475.506 70.0302C473.408 69.4941 470.857 69.7562 468.695 69.4821C466.534 69.2081 464.172 73.3899 461.973 73.3899C459.774 73.3899 456.305 72.556 454.069 72.8538C453.302 70.9237 454.408 66.8491 453.528 64.9786C452.649 63.1081 452.033 61.0232 451.04 59.2122C450.048 57.4013 447.974 56.0788 446.856 54.3275C445.738 52.5761 446.102 49.824 444.883 48.1322C443.664 46.4404 438.789 47.2863 437.457 45.666C436.125 44.0457 437.922 39.983 436.489 38.4461C435.057 36.9092 431.714 37.0164 430.194 35.5629C428.673 34.1094 427.58 32.2508 425.959 30.8807C424.338 29.5106 421.184 30.0109 419.475 28.7361C417.766 27.4613 416.685 25.6147 414.901 24.4352C413.117 23.2557 412.84 19.9436 410.98 18.8713C409.121 17.7991 407.776 15.6903 405.866 14.7371C403.956 13.784 399.96 16.8459 397.975 15.9881C395.989 15.1303 394.155 14.3559 392.119 13.6291C390.083 12.9024 388.073 12.6045 386 11.985C383.926 11.3655 382.644 8.39889 380.533 7.91041C378.422 7.42193 375.972 8.76822 373.836 8.39888C371.7 8.02955 370.217 3.51413 368.055 3.26393C365.894 3.01374 363.306 7.52915 361.119 7.41001C358.933 7.29087 356.947 7.33853 354.761 7.33853C352.574 7.33853 350.476 3.80006 348.402 3.9192C346.329 4.03834 344.067 3.66901 341.994 3.89538C339.921 4.12174 338.161 6.85005 336.113 7.19556C334.065 7.54107 331.665 6.49263 329.629 6.94537C327.593 7.3981 326.626 11.4489 324.615 12.0207C322.605 12.5926 320.531 12.545 318.571 13.2241C316.611 13.9032 315.053 15.2018 313.13 16C311.208 16.7983 308.506 15.7856 306.646 16.691C304.786 17.5965 302.085 17.0723 300.275 18.0731C298.466 19.0739 295.764 18.9071 294.017 20.0151C292.271 21.1231 291.24 23.351 289.569 24.5424C287.898 25.7338 288.149 29.1889 286.553 30.4756C284.957 31.7623 280.333 29.9156 278.825 31.2857C277.317 32.6559 277.77 35.9918 276.337 37.4453C274.905 38.8988 273.447 40.3285 272.115 41.8654C270.783 43.4023 270.884 45.94 269.64 47.5365C268.396 49.133 264.588 49.0496 263.445 50.7175C262.301 52.3855 262.992 56.2218 261.949 57.9494C260.165 57.0915 257.225 56.472 255.377 55.7453C253.53 55.0185 251.922 53.982 250.012 53.3863C248.102 52.7906 246.983 49.5023 245.036 49.0496C243.088 48.5968 240.889 48.8351 238.904 48.5373C236.918 48.2394 234.531 52.0519 232.52 51.897C230.51 51.7421 228.776 47.0957 226.765 47.0957C224.528 47.0957 222.53 51.1941 220.344 51.3728C218.157 51.5515 215.468 48.1322 213.294 48.4896C211.121 48.847 209.788 52.8144 207.665 53.3505C205.541 53.8867 202.978 52.8382 200.904 53.5412C198.831 54.2441 196.783 54.9708 194.772 55.8525C192.762 56.7341 191.166 58.2591 189.243 59.2956C187.321 60.3322 186.605 62.8937 184.782 64.0851C182.96 65.2765 180.837 65.7411 179.115 67.0636C177.394 68.386 172.857 66.6824 171.249 68.1359C169.641 69.5894 170.156 73.0325 168.686 74.6052C167.215 76.1778 163.609 76.154 162.277 77.8339C160.945 79.5138 162.868 84.6844 161.674 86.4596C160.128 86.3643 157.024 83.6241 155.454 83.6241C153.355 83.6241 151.257 83.9577 149.196 84.1364C147.135 84.3151 145.414 86.6741 143.378 87.0077C141.342 87.3413 139.558 88.1038 137.56 88.6161C135.562 89.1284 133.614 89.2952 131.667 89.9743C129.719 90.6534 126.703 88.8424 124.831 89.6764C122.958 90.5104 120.232 90.1768 118.435 91.1657C116.638 92.1545 117.467 97.0512 115.771 98.195C114.074 99.3387 112.717 100.578 111.134 101.853C109.551 103.127 106.12 102.401 104.65 103.806C103.18 105.212 100.654 105.82 99.3221 107.345C97.9901 108.87 98.7315 111.932 97.5503 113.552C96.3691 115.172 93.8182 114.589 92.8004 116.304C90.727 115.816 89.1311 119.068 86.9824 118.735C84.8336 118.401 82.8482 118.604 80.6743 118.437C78.5004 118.27 76.5778 117.091 74.3914 117.091C72.2049 117.091 69.9682 115.196 67.8446 115.351C65.721 115.506 63.9869 118.961 61.8758 119.283C59.7648 119.604 56.9751 116.817 54.8892 117.305C52.8033 117.794 50.0765 116.876 48.0408 117.531C46.0051 118.187 43.6553 118.818 41.6825 119.628C39.7096 120.438 37.7116 121.797 35.8267 122.786C33.9419 123.774 34.432 128.564 32.6602 129.696C30.8884 130.828 29.2674 131.947 27.5961 133.234C25.9249 134.521 22.3311 133.758 20.798 135.2C19.265 136.642 17.8827 138.357 16.5256 139.93C15.1685 141.502 15.646 144.374 14.4648 146.077C13.2836 147.781 8.23214 147.495 7.252 149.318C6.27186 151.141 10.004 155.001 9.25001 156.931C8.49605 158.861 6.58602 160.291 6.08339 162.292C5.58075 164.294 5.45514 166.248 5.19126 168.297C4.92738 170.346 5.5933 172.265 5.5933 174.338C5.5933 176.411 2.75343 178.662 3.01731 180.712C3.2812 182.761 5.2289 184.631 5.75666 186.633C6.28443 188.634 6.78705 190.672 7.55357 192.602C8.32009 194.532 10.8081 195.652 11.8134 197.498C12.8187 199.345 13.1831 201.359 14.402 203.098C15.6209 204.837 14.3643 208.364 15.7717 209.972C17.1791 211.581 22.0169 210.127 23.5876 211.581C25.1583 213.034 23.2106 218.277 24.9322 219.587C26.6537 220.898 30.6748 219.313 32.5094 220.457C34.344 221.601 34.5325 225.508 36.4802 226.497C38.4279 227.486 41.7579 225.854 43.7935 226.664C45.8292 227.474 48.0157 227.641 50.1142 228.284C52.2127 228.928 54.374 228.868 56.5228 229.345C58.6715 229.821 60.8077 229.952 62.9942 230.262C65.1053 230.798 66.9273 232.716 69.1388 232.99C71.3504 233.264 73.4867 233.789 75.7108 233.789C78.9403 233.789 78.9402 232.216 82.1696 232.216C85.3991 232.216 85.3991 231.513 88.6285 231.513C91.8579 231.513 91.8579 230.572 95.0874 230.572C98.3168 230.572 98.3168 231.906 101.546 231.906C104.776 231.906 104.776 232.24 108.005 232.24C111.234 232.24 111.234 235.266 114.464 235.266C117.693 235.266 117.693 232.204 120.923 232.204C124.152 232.204 124.152 233.574 127.382 233.574C130.611 233.574 130.611 234.134 133.84 234.134C137.07 234.134 137.07 235.85 140.299 235.85C143.529 235.85 143.529 232.585 146.758 232.585C149.988 232.585 149.988 231.299 153.217 231.299C156.446 231.299 156.446 235.278 159.676 235.278C162.905 235.278 162.905 232.144 166.135 232.144C169.364 232.144 169.364 233.36 172.594 233.36C175.823 233.36 175.823 232.883 179.052 232.883C182.282 232.883 182.282 230.691 185.511 230.691C188.741 230.691 188.741 231.287 191.97 231.287C195.2 231.287 195.2 231.68 198.429 231.68C201.658 231.68 201.658 233.205 204.888 233.205C208.117 233.205 208.117 232.752 211.347 232.752C214.576 232.752 214.576 235.921 217.793 235.921C221.01 235.921 221.022 236.338 224.239 236.338C227.456 236.338 227.469 231.203 230.686 231.203C233.902 231.203 233.915 236.255 237.132 236.255C240.349 236.255 240.361 234.539 243.591 234.539C246.82 234.539 246.82 232.049 250.05 232.049C253.279 232.049 253.279 230.655 256.496 230.655C259.713 230.655 259.725 231.882 262.942 231.882C266.159 231.882 266.171 233.276 269.401 233.276C272.63 233.276 272.63 235.314 275.86 235.314C279.089 235.314 279.089 232.216 282.319 232.216C285.548 232.216 285.548 231.644 288.778 231.644C292.007 231.644 292.007 233.681 295.236 233.681C298.466 233.681 298.466 230.965 301.695 230.965C304.925 230.965 304.925 232.645 308.154 232.645C311.383 232.645 311.383 230.655 314.613 230.655C317.842 230.655 317.842 230.822 321.072 230.822C324.301 230.822 324.301 234.313 327.531 234.313C330.76 234.313 330.76 232.895 333.989 232.895C337.219 232.895 337.219 235.659 340.448 235.659C343.678 235.659 343.678 231.477 346.907 231.477C350.137 231.477 350.137 232.037 353.366 232.037C356.595 232.037 356.595 235.063 359.825 235.063C363.054 235.063 363.054 230.953 366.284 230.953C369.513 230.953 369.513 235.576 372.743 235.576C375.972 235.576 375.972 234.861 379.201 234.861C382.431 234.861 382.431 235.885 385.66 235.885C388.89 235.885 388.89 235.993 392.119 235.993C395.349 235.993 395.349 234.468 398.578 234.468C401.807 234.468 401.807 231.013 405.037 231.013C408.266 231.013 408.266 232.657 411.496 232.657C414.725 232.657 414.725 236.052 417.954 236.052C421.184 236.052 421.184 234.623 424.413 234.623C427.643 234.623 427.643 231.716 430.872 231.716C434.102 231.716 434.102 231.156 437.331 231.156C440.56 231.156 440.56 235.385 443.79 235.385C447.019 235.385 447.019 235.171 450.261 235.171C453.503 235.171 453.491 233.455 456.733 233.455C459.975 233.455 459.962 236.005 463.204 236.005C465.353 236.005 467.313 232.228 469.399 231.978C471.485 231.727 473.785 232.585 475.82 232.085C477.856 231.585 480.357 232.001 482.317 231.263C484.277 230.524 484.265 225.985 486.112 225.02C487.959 224.055 491.917 226.378 493.626 225.187C495.335 223.995 497.66 223.209 499.205 221.839C500.751 220.469 500.525 217.383 501.869 215.822C503.214 214.262 505.601 213.38 506.732 211.688C507.863 209.996 507.7 207.542 508.605 205.719C509.874 203.98 512.776 203.086 513.92 201.216C515.063 199.345 514.686 196.712 515.679 194.758C516.672 192.804 520.542 192.018 521.384 190.005C522.226 187.991 522.037 185.525 522.729 183.452C523.42 181.379 521.497 178.639 522.05 176.542C522.603 174.445 524.287 172.634 524.689 170.501C525.091 168.369 526.687 166.403 526.951 164.246C527.215 162.09 527.026 159.874 527.164 157.706C527.303 155.537 528.006 153.357 528.006 151.189L527.906 151.2Z" stroke="#7FD5FF" stroke-width="5" stroke-miterlimit="10"/>
</svg>
