<svg width="392" height="282" viewBox="0 0 392 282" fill="none" xmlns="http://www.w3.org/2000/svg">
<path d="M326.178 99.8063C327.533 100.212 327.097 102.788 328.419 103.245C329.742 103.702 331.116 103.98 332.413 104.48C333.71 104.98 335.274 104.934 336.55 105.499C337.825 106.064 339.811 105.371 341.054 105.988C342.298 106.605 343.38 107.666 344.591 108.334C345.802 109.002 346.593 110.419 347.773 111.146C348.954 111.874 349.244 113.81 350.376 114.591C351.508 115.373 354.022 114.466 355.115 115.301C356.207 116.135 356.947 117.45 357.992 118.338C359.036 119.227 360.893 119.408 361.882 120.359C362.871 121.31 361.666 124.221 362.598 125.22C363.53 126.218 364.936 126.779 365.802 127.827C366.669 128.874 367.125 130.156 367.919 131.253C368.712 132.351 370.22 132.981 370.94 134.129C371.66 135.277 372.576 136.325 373.206 137.517C373.835 138.71 373.269 140.381 373.816 141.618C374.363 142.854 375.368 143.849 375.814 145.117C376.26 146.384 378.507 147.173 378.852 148.472C379.196 149.77 377.579 151.471 377.823 152.801C378.066 154.131 377.514 155.45 377.653 156.788C377.791 158.126 379.14 159.31 379.174 160.664C379.201 161.972 380.034 163.297 379.96 164.59C379.886 165.883 378.294 167.059 378.129 168.343C377.963 169.627 379.381 171.172 379.116 172.448C378.851 173.724 377.791 174.85 377.425 176.11C377.059 177.37 376.066 178.408 375.613 179.642C375.161 180.877 374.664 182.041 374.115 183.236C373.566 184.431 374.222 186.163 373.586 187.325C372.949 188.487 372.836 189.98 372.118 191.1C371.401 192.22 369.186 192.436 368.405 193.519C367.624 194.602 366.748 195.56 365.893 196.592C365.038 197.625 364.578 198.915 363.666 199.901C362.754 200.888 362.303 202.27 361.332 203.204C360.362 204.137 360.24 205.966 359.221 206.852C358.202 207.739 356.117 207.516 355.057 208.354C353.996 209.193 353.639 210.933 352.536 211.716C351.434 212.499 348.298 210.534 347.154 211.269C346.011 212.004 345.38 213.344 344.202 214.022C343.025 214.7 343.061 217.358 341.843 217.988C340.624 218.618 338.128 216.85 336.892 217.428C335.656 218.006 335.467 220.684 334.206 221.211C332.945 221.739 331.823 222.696 330.538 223.173C329.252 223.65 327.312 222.457 326.002 222.883C324.691 223.31 323.155 222.901 321.836 223.275C320.516 223.648 319.141 223.603 317.804 223.925C316.467 224.247 315.596 226.291 314.244 226.569C312.891 226.847 311.599 227.379 310.237 227.604C308.875 227.828 307.633 228.944 306.262 229.115C304.892 229.287 303.391 228.601 302.02 228.726C300.65 228.851 299.241 228.609 297.855 228.69C296.469 228.771 295.107 229.283 293.729 229.316C292.293 229.342 290.847 228.741 289.427 228.718C288.007 228.696 286.585 228.231 285.165 228.161C283.744 228.092 282.329 227.859 280.916 227.734C279.503 227.61 278.277 226.089 276.871 225.909C275.464 225.729 273.918 226.549 272.528 226.32C271.138 226.09 269.741 225.823 268.358 225.539C266.975 225.254 265.226 226.276 263.857 225.935C262.489 225.593 261.897 222.655 260.544 222.257C259.19 221.859 257.246 223.369 255.909 222.922C254.626 223.469 252.803 222.669 251.483 223.183C250.162 223.696 248.868 224.074 247.525 224.552C246.182 225.03 245.463 227.004 244.114 227.445C242.764 227.885 240.856 226.539 239.491 226.935C238.126 227.331 237.251 229.159 235.879 229.517C234.508 229.875 233.429 231.323 232.043 231.644C230.657 231.966 228.889 230.63 227.497 230.914C226.104 231.197 225.001 232.788 223.592 233.028C222.184 233.267 220.457 231.498 219.052 231.706C217.646 231.914 216.428 233.119 215.008 233.29C213.588 233.461 212.247 234.048 210.829 234.18C209.411 234.313 208.042 234.974 206.626 235.074C205.21 235.175 203.669 233.051 202.247 233.114C200.825 233.177 199.482 234.377 198.055 234.41C196.717 234.437 195.381 235.722 194.053 235.716C192.726 235.71 191.428 232.95 190.095 232.914C188.763 232.878 187.472 232.704 186.144 232.643C184.815 232.583 183.365 234.398 182.038 234.299C180.711 234.2 179.327 234.483 178.003 234.352C176.679 234.221 175.311 234.175 173.999 234.019C172.687 233.864 171.392 233.278 170.083 233.091C168.774 232.903 167.581 231.914 166.273 231.687C164.966 231.461 163.316 230.813 162.011 230.556C160.913 231.268 159.852 232.775 158.676 233.46C157.499 234.146 155.597 233.413 154.388 234.049C153.178 234.685 152.131 235.312 150.897 235.898C149.662 236.484 148.833 237.621 147.582 238.155C146.33 238.689 145.245 239.383 143.971 239.882C142.697 240.381 142.277 242.806 140.988 243.268C139.7 243.73 138.004 243.004 136.701 243.43C135.399 243.855 133.933 243.614 132.624 244.002C131.314 244.389 129.984 244.508 128.668 244.858C127.352 245.207 126.206 245.974 124.878 246.302C123.551 246.63 122.549 248.097 121.215 248.387C119.881 248.677 118.311 247.831 116.972 248.091C115.633 248.351 114.219 248.032 112.875 248.262C111.531 248.492 110.297 249.085 108.941 249.294C107.585 249.502 106.524 251.343 105.172 251.527C103.82 251.711 102.433 251.645 101.082 251.79C99.7316 251.935 98.2497 250.881 96.8885 251.013C95.5273 251.144 94.3025 252.505 92.9361 252.606C91.5698 252.707 90.1545 251.899 88.8002 251.975C87.4459 252.051 86.1362 253.107 84.77 253.161C83.4039 253.216 82.0371 253.123 80.6737 253.146C79.2705 253.175 77.8544 252.266 76.4632 252.27C75.072 252.274 73.6805 251.222 72.2922 251.194C70.9038 251.167 69.4161 253.624 68.0331 253.58C66.6502 253.537 65.1906 253.668 63.8025 253.593C62.4143 253.519 61.1704 251.031 59.7851 250.925C58.3997 250.819 56.9745 251.007 55.6012 250.876C54.228 250.745 52.9 250.017 51.5229 249.864C50.1458 249.71 48.3877 252.023 47.0213 251.837C45.655 251.65 44.6717 248.819 43.3082 248.601C41.9446 248.383 40.1881 250.082 38.8274 249.833C37.4666 249.584 36.1003 249.11 34.7516 248.836C33.4029 248.561 32.4643 246.422 31.1251 246.107C29.7859 245.792 27.8513 247.503 26.5229 247.156C25.1945 246.808 23.6462 246.898 22.3272 246.511C21.0083 246.123 20.1956 244.05 18.8875 243.629C17.5794 243.209 16.0929 243.134 14.8102 242.671C13.5276 242.208 12.7681 240.398 11.5029 239.893C10.2376 239.388 7.8431 241.139 6.60333 240.591C5.36357 240.044 4.40525 238.7 3.19632 238.093C1.9874 237.487 -0.0761003 238.06 -1.2529 237.402C-2.42969 236.744 -2.85582 234.681 -3.98582 233.961C-5.11582 233.241 -7.06285 233.346 -8.14735 232.557C-9.23185 231.769 -9.58986 229.913 -10.6049 229.051C-11.6689 228.143 -13.1439 227.608 -14.0669 226.662C-15.0389 225.67 -15.2492 224.056 -16.0642 223.023C-16.9214 221.936 -17.8547 220.929 -18.5297 219.806C-19.2047 218.682 -20.0229 217.488 -20.5168 216.274C-21.0107 215.06 -22.7235 213.949 -22.9925 212.662C-23.2615 211.375 -21.4295 209.734 -21.4605 208.403C-21.4862 207.102 -22.9051 205.65 -22.6985 204.368C-22.4918 203.085 -20.261 202.246 -19.8273 200.999C-19.3936 199.751 -20.8698 197.772 -20.2517 196.597C-19.6337 195.423 -17.0756 195.348 -16.2984 194.243C-15.5213 193.137 -15.3713 191.762 -14.4736 190.739C-13.5759 189.716 -12.4223 189.088 -11.4294 188.143C-10.4364 187.198 -10.3987 185.406 -9.33439 184.544C-8.27004 183.681 -6.62875 183.608 -5.51158 182.815C-4.39441 182.022 -3.02716 181.734 -1.86644 181.004C-0.705721 180.274 -0.409761 178.365 0.785241 177.692C1.98024 177.019 3.89574 177.688 5.12372 177.064C6.35171 176.441 7.14419 175.185 8.39718 174.612C9.65017 174.039 10.3355 172.396 11.6043 171.867C12.873 171.338 14.4754 171.612 15.7599 171.128C17.0444 170.643 18.0134 169.415 19.3124 168.966C20.6113 168.518 22.8895 170.879 24.2016 170.46C25.5136 170.041 24.6863 167.116 26.0048 166.735C25.7934 165.641 27.6486 165.573 27.4997 164.462C27.3507 163.351 28.786 162.167 28.7009 161.047C28.6158 159.926 25.4592 158.989 25.4326 157.875C25.4029 156.551 25.339 155.17 25.3956 153.872C25.4521 152.574 26.4561 151.263 26.5938 149.96C26.7315 148.657 28.7652 147.622 28.9958 146.337C29.2264 145.051 27.913 143.497 28.2272 142.221C28.5415 140.946 30.7639 140.201 31.1644 138.951C31.5649 137.701 29.5626 135.709 30.048 134.477C30.5334 133.245 33.4391 133.001 34.0028 131.796C34.5665 130.591 34.0929 129.017 34.7362 127.846C35.3795 126.676 34.8841 124.926 35.6003 123.799C36.3164 122.671 38.4924 122.469 39.2815 121.385C40.0705 120.301 40.2685 118.872 41.1157 117.841C41.963 116.81 42.3469 115.415 43.267 114.427C44.1871 113.439 46.1126 113.399 47.0909 112.465C48.0692 111.53 47.0241 108.576 48.0527 107.695C49.0812 106.815 51.4754 107.41 52.5622 106.583C53.6489 105.756 55.2887 105.722 56.4203 104.965C57.5519 104.209 57.8873 102.387 59.0692 101.685C60.251 100.983 61.7069 100.782 62.9243 100.145C64.1418 99.5075 64.8849 98.0108 66.1299 97.439C67.3749 96.8671 68.4468 95.8093 69.7287 95.3094C71.0106 94.8096 73.1867 96.5726 74.5041 96.1372C75.8216 95.7018 76.8877 94.7536 78.2181 94.3939C79.5484 94.0342 80.6135 92.7444 81.9714 92.4504C83.3294 92.1564 84.5889 91.3338 85.9585 91.1079C87.3281 90.882 89.0432 93.2051 90.4258 93.0549C91.8083 92.9047 93.3341 91.6761 94.7283 91.594C95.1064 90.3087 96.989 89.204 97.4294 87.9479C97.8697 86.6919 96.4091 84.8035 96.9277 83.5743C97.4464 82.3451 98.7382 81.4243 99.3179 80.2168C99.8975 79.0092 101.223 78.192 101.865 77.0137C102.507 75.8355 100.856 73.4559 101.561 72.3069C102.265 71.1579 103.458 70.2367 104.226 69.1246C104.994 68.0124 107.891 68.3365 108.722 67.2612C109.554 66.1859 107.987 63.3895 108.875 62.3598C109.764 61.3301 110.772 60.3287 111.708 59.3382C112.644 58.3478 113.018 56.7524 114.011 55.8076C115.004 54.8629 117.645 55.5136 118.679 54.6169C119.713 53.7202 120.283 52.3122 121.367 51.4699C122.451 50.6276 122.97 49.0177 124.097 48.2311C125.223 47.4445 126.656 46.968 127.824 46.2295C128.991 45.4909 131.56 46.914 132.771 46.2387C133.981 45.5633 134.051 42.9973 135.296 42.3788C136.541 41.7603 137.772 41.0586 139.053 40.5046C140.334 39.9506 141.859 39.9182 143.166 39.4223C144.473 38.9264 145.748 38.3345 147.075 37.9055C148.401 37.4765 149.587 36.5099 150.941 36.1465C152.296 35.7831 154.264 37.8187 155.637 37.5147C157.01 37.2106 158.117 36.0231 159.502 35.7947C160.888 35.5664 162.364 36.3494 163.76 36.1816C165.156 36.0138 166.261 33.2808 167.669 33.1811C169.076 33.0815 170.537 33.6728 171.948 33.6424C173.318 33.6107 174.688 33.9129 176.045 33.9529C177.403 33.9929 178.78 33.999 180.132 34.102C181.484 34.205 182.853 34.3598 184.2 34.5258C185.546 34.6918 186.782 35.5507 188.121 35.7721C189.461 35.9935 190.856 35.919 192.174 36.2059C193.493 36.4928 194.369 38.3156 195.673 38.6667C196.978 39.0178 199.024 37.0491 200.314 37.4569C201.603 37.8647 203.036 38.0563 204.295 38.5232C205.553 38.9901 206.226 40.8674 207.462 41.3922C208.698 41.917 210.318 41.7224 211.524 42.3063C212.729 42.8902 214.239 43.0544 215.413 43.6974C216.587 44.3404 218.221 44.4156 219.364 45.1177C220.508 45.8198 219.915 48.9634 221.018 49.7183C222.121 50.4731 223.571 50.7165 224.634 51.5241C225.698 52.3318 226.857 52.9848 227.879 53.8376C228.901 54.6904 230.27 55.1792 231.25 56.0772C232.23 56.9752 233.18 57.3109 234.103 58.2566C235.332 57.5939 237.302 59.2488 238.585 58.6633C239.869 58.0778 240.519 56.3235 241.843 55.8327C243.168 55.3419 243.852 53.0231 245.208 52.6207C246.564 52.2182 248.75 54.6632 250.137 54.3491C251.525 54.0351 252.767 53.588 254.179 53.3711C255.591 53.1542 256.712 51.1411 258.14 51.0151C259.567 50.889 261.058 52.6174 262.485 52.5846C263.897 52.5543 265.326 50.5715 266.712 50.6306C268.097 50.6896 269.506 51.5063 270.891 51.6586C272.276 51.811 273.98 50.6172 275.349 50.8653C276.717 51.1133 277.736 53.1938 279.088 53.5376C280.441 53.8814 281.655 54.6191 282.981 55.0447C284.306 55.4703 285.257 56.6757 286.549 57.1919C287.841 57.7081 288.836 58.5961 290.091 59.1878C291.347 59.7794 294.334 57.3787 295.539 58.0559C296.743 58.733 297.714 59.9587 298.867 60.7138C300.019 61.4689 301.334 62.168 302.434 63.001C303.534 63.834 304.917 64.4993 305.955 65.3963C306.992 66.2933 306.389 68.8482 307.364 69.8092C308.338 70.7702 310.284 70.8986 311.195 71.916C312.106 72.9335 312.848 74.1166 313.687 75.1917C314.526 76.2668 313.752 78.3508 314.517 79.476C315.282 80.6012 317.878 80.653 318.561 81.822C319.244 82.9909 320.504 83.9469 321.105 85.1596C321.705 86.3724 320.064 88.5118 320.579 89.7531C321.095 90.9945 322.432 91.923 322.87 93.1918C323.308 94.4605 323.863 95.6957 324.215 96.9931C324.568 98.2904 326.004 98.4505 326.261 99.7626L326.178 99.8063Z" fill="white"/>
<path d="M324.403 101.214C324.145 99.8955 325.014 98.2331 324.672 96.9506C324.33 95.6682 322.302 94.8078 321.874 93.5464C321.446 92.2851 322.02 90.6679 321.499 89.4364C320.978 88.2048 318.731 87.6961 318.134 86.4994C317.537 85.3028 318.22 83.506 317.539 82.3456C316.858 81.1851 314.797 80.8497 314.042 79.7317C313.287 78.6137 315.089 75.8068 314.252 74.7401C313.416 73.6734 311.184 73.5816 310.275 72.5725C309.367 71.5634 308.647 70.37 307.674 69.4097C306.7 68.4495 306.084 67.0928 305.039 66.1977C303.995 65.3026 303.007 64.2592 301.909 63.4344C300.811 62.6096 298.365 63.5131 297.205 62.7598C296.046 62.0065 294.624 61.8214 293.421 61.1447C292.217 60.4681 291.559 59.0092 290.304 58.4104C289.048 57.8116 287.934 57.0359 286.635 56.5137C285.335 55.9915 284.125 55.3703 282.791 54.9387C281.458 54.507 280.599 52.4969 279.233 52.1558C277.866 51.8147 276.082 53.1519 274.698 52.8989C273.313 52.6459 272.185 50.5917 270.785 50.4419C269.386 50.2921 267.822 51.3859 266.413 51.323C265.004 51.26 263.621 52.5512 262.212 52.5814C260.786 52.6141 259.458 52.9344 258.056 53.0567C256.654 53.1789 255.361 53.6027 253.966 53.8169C252.571 54.0311 250.998 53.2017 249.627 53.5054C248.256 53.8091 247.212 55.1181 245.865 55.5189C244.519 55.9198 242.492 54.4926 241.177 54.9817C239.862 55.4709 238.402 55.8271 237.126 56.4033C235.85 56.9795 235.054 58.1574 233.826 58.8194C232.896 57.8757 232.151 57.0122 231.18 56.1137C230.208 55.2151 229.956 53.4999 228.935 52.6477C227.915 51.7955 226.789 50.9517 225.728 50.1523C224.667 49.3528 223.569 48.4739 222.458 47.7208C221.348 46.9678 218.961 47.9786 217.811 47.2782C216.661 46.5779 215.97 45.2171 214.788 44.5683C213.606 43.9194 211.814 44.3964 210.609 43.8054C209.404 43.2144 209.02 41.0149 207.776 40.4841C206.532 39.9534 204.961 40.1404 203.686 39.6687C202.412 39.197 201.419 37.9835 200.131 37.576C198.843 37.1686 197.414 37.0854 196.102 36.7357C194.791 36.386 192.993 37.9738 191.668 37.6808C190.342 37.3877 189.701 33.8772 188.361 33.6484C187.022 33.4195 185.57 33.3475 184.218 33.1904C182.866 33.0332 181.294 34.6485 179.935 34.5467C178.577 34.4449 177.277 32.7275 175.914 32.6963C174.551 32.6651 173.164 34.3604 171.794 34.3846C170.385 34.4149 169.066 35.4556 167.675 35.5527C166.285 35.6498 164.684 33.8391 163.296 33.998C161.908 34.1568 160.448 34.2725 159.079 34.4981C157.711 34.7238 156.852 37.4014 155.487 37.6963C154.123 37.9913 152.427 36.9246 151.083 37.2863C149.738 37.6481 147.811 36.4229 146.493 36.8503C145.176 37.2777 144.464 39.4283 143.166 39.9225C141.868 40.4168 140.787 41.3666 139.516 41.9189C138.244 42.4712 136.166 41.5098 134.93 42.1265C133.694 42.7432 133.878 45.7806 132.676 46.4542C131.475 47.1277 130.276 47.6765 129.11 48.4144C127.944 49.1523 126.835 49.8426 125.71 50.6286C124.585 51.4145 123.662 52.3324 122.579 53.1739C121.496 54.0155 118.766 53.0222 117.733 53.9182C116.7 54.8141 115.963 56.0527 114.971 56.9966C113.979 57.9406 114.792 60.4468 113.857 61.4364C112.922 62.426 111.04 62.5675 110.161 63.5951C109.281 64.6227 106.69 64.4386 105.867 65.5118C105.045 66.585 105.805 68.7345 105.038 69.8458C104.271 70.957 104.015 72.3312 103.303 73.4805C102.592 74.6297 100.985 75.28 100.336 76.4585C99.6867 77.637 98.6414 78.6513 98.0544 79.8591C97.4674 81.0668 98.196 82.7943 97.6806 84.0376C97.1651 85.2809 95.6969 86.1661 95.2504 87.4299C94.8038 88.6937 94.0379 89.2848 93.6602 90.569C92.2755 90.6498 91.4652 90.7897 90.1 90.9373C88.7348 91.0849 87.2294 90.8427 85.8759 91.0584C84.5224 91.274 83.4195 92.9568 82.0789 93.2481C80.7382 93.5394 79.8602 95.3894 78.5392 95.7475C77.2182 96.1057 75.3452 94.717 74.045 95.1495C72.7449 95.582 70.9718 94.9696 69.6992 95.4677C68.4267 95.9658 67.0677 96.485 65.8227 97.0488C64.5777 97.6125 64.2313 99.8931 63.0311 100.528C61.8309 101.162 59.3985 99.8981 58.2339 100.597C57.0692 101.296 56.8772 103.475 55.7548 104.23C54.6323 104.984 53.9639 106.29 52.885 107.107C51.8061 107.925 50.7762 108.743 49.7555 109.614C48.7347 110.484 47.0361 110.691 46.0668 111.624C45.0975 112.557 43.0544 112.614 42.1433 113.6C41.2322 114.586 43.0969 117.746 42.2519 118.783C41.4069 119.821 37.5824 118.787 36.8022 119.869C36.022 120.951 36.5161 122.885 35.8007 124.012C35.0853 125.138 35.3644 126.772 34.7286 127.933C34.0927 129.094 31.3507 129.321 30.7863 130.517C30.222 131.714 29.2927 132.881 28.8078 134.112C28.3229 135.343 29.0716 137.044 28.6729 138.3C28.2741 139.557 29.0553 141.113 28.7427 142.395C28.4302 143.677 28.6483 145.002 28.4206 146.302C28.1929 147.602 27.9934 148.828 27.8492 150.138C27.7051 151.449 26.5103 152.641 26.4577 153.961C26.4051 155.281 25.5508 156.599 25.5805 157.922C25.6084 159.043 26.6134 160.138 26.7039 161.242C26.7943 162.345 26.6403 163.502 26.7944 164.596C26.9486 165.69 26.781 166.337 26.999 167.421C25.6818 167.802 25.6275 170.356 24.3461 170.754C23.0647 171.153 20.5572 168.348 19.2902 168.783C18.0232 169.218 17.0832 170.705 15.8399 171.184C14.5967 171.662 14.183 174.123 12.9449 174.632C11.7068 175.14 10.1215 174.957 8.91639 175.514C7.71124 176.072 5.16297 174.321 3.98151 174.922C2.80006 175.522 2.81225 178.322 1.65578 178.973C0.499307 179.624 -0.252676 180.92 -1.36693 181.626C-2.48119 182.333 -4.99286 181.275 -6.05693 182.036C-7.121 182.797 -8.36838 183.586 -9.38097 184.409C-10.3936 185.232 -9.50041 188.114 -10.4363 189.003C-11.4216 189.938 -14.7492 188.796 -15.6058 189.766C-16.5038 190.781 -14.6089 193.734 -15.3464 194.779C-16.1227 195.883 -18.0089 196.189 -18.6009 197.32C-19.1928 198.451 -19.0852 199.846 -19.4996 201.059C-19.9141 202.271 -21.1425 203.267 -21.3515 204.533C-21.5605 205.799 -21.4881 207.084 -21.4623 208.384C-21.4313 209.714 -20.6616 210.869 -20.3835 212.161C-20.1055 213.453 -22.0898 215.434 -21.5832 216.676C-21.0766 217.917 -18.1453 218.08 -17.446 219.253C-16.7466 220.427 -18.3154 222.973 -17.4591 224.06C-16.6027 225.147 -13.0919 224.01 -12.121 225.001C-11.15 225.993 -11.3086 227.841 -10.247 228.742C-9.18531 229.642 -7.99742 230.228 -6.86642 231.055C-5.73541 231.883 -5.48259 233.745 -4.29946 234.495C-3.11632 235.244 -1.01685 234.464 0.213027 235.152C1.44291 235.84 2.3514 236.849 3.61079 237.471C4.87018 238.092 5.18049 240.435 6.46401 241.006C7.74752 241.578 10.359 239.151 11.6667 239.672C12.9743 240.193 14.2124 240.546 15.5362 241.018C16.86 241.49 18.0039 242.105 19.3452 242.536C20.6864 242.966 20.9506 246.379 22.3013 246.769C23.652 247.16 25.1794 246.956 26.5316 247.307C27.8839 247.658 29.7322 246.078 31.1032 246.395C32.4742 246.713 33.6312 247.645 35.005 247.931C36.3788 248.216 37.9602 247.228 39.3448 247.481C40.7293 247.734 41.6102 250.401 42.9976 250.622C44.3849 250.844 45.7261 251.274 47.1243 251.463C48.5224 251.652 50.0149 250.957 51.4078 251.116C52.8008 251.274 54.1474 251.688 55.5444 251.823C56.9415 251.958 58.3495 251.726 59.7494 251.829C61.1492 251.932 62.5191 252.195 63.9151 252.276C65.311 252.356 66.7102 252.312 68.109 252.361C69.5078 252.41 70.8733 253.605 72.2762 253.63C73.6791 253.655 75.0854 251.786 76.4911 251.78C77.8967 251.774 79.2781 252.151 80.6798 252.122C82.0405 252.092 83.4636 253.48 84.8124 253.428C86.1612 253.376 87.406 250.849 88.7509 250.774C90.0958 250.699 91.5252 251.597 92.8742 251.499C94.2232 251.4 95.64 251.842 96.9839 251.713C98.3277 251.585 99.6727 251.223 101.013 251.071C102.353 250.92 103.459 248.973 104.795 248.799C106.132 248.624 107.688 249.79 109.019 249.586C110.35 249.381 111.687 249.067 113.005 248.834C114.323 248.6 115.932 249.548 117.254 249.291C118.576 249.034 119.715 247.803 121.024 247.517C122.333 247.23 123.728 247.117 125.032 246.8C126.335 246.484 127.866 246.776 129.156 246.431C130.447 246.085 131.33 244.265 132.607 243.89C133.884 243.516 135.452 243.834 136.715 243.423C137.978 243.011 138.727 241.127 139.975 240.679C141.224 240.231 142.381 239.533 143.616 239.056C144.851 238.58 147.421 240.886 148.631 240.358C149.841 239.831 151.178 239.276 152.374 238.712C153.57 238.148 154.253 236.452 155.425 235.846C156.598 235.239 156.624 232.712 157.754 232.05C158.884 231.387 160.691 230.427 161.788 229.715C163.083 229.974 164.799 231.922 166.113 232.147C167.427 232.372 168.47 234.215 169.795 234.407C171.12 234.599 172.811 232.244 174.141 232.412C175.47 232.581 176.581 234.296 177.919 234.424C179.258 234.552 180.753 232.53 182.094 232.626C183.436 232.723 184.702 233.002 186.037 233.061C187.372 233.12 188.652 233.622 189.991 233.657C191.33 233.691 192.629 235.743 193.971 235.746C195.313 235.749 196.652 235.063 197.988 235.036C199.414 235.003 200.914 236.41 202.317 236.342C203.721 236.274 205.153 235.464 206.559 235.365C207.965 235.265 209.12 232.309 210.529 232.178C211.938 232.047 213.407 232.652 214.809 232.483C216.212 232.315 217.782 233.269 219.179 233.07C220.576 232.87 221.803 231.673 223.192 231.429C224.582 231.184 226.308 232.479 227.684 232.206C229.061 231.932 230.293 230.866 231.663 230.554C233.033 230.243 234.73 230.984 236.092 230.627C237.454 230.27 238.859 229.876 240.208 229.49C241.557 229.105 242.436 227.208 243.769 226.778C245.102 226.348 246.611 226.326 247.93 225.86C249.249 225.393 250.764 225.308 252.067 224.797C253.37 224.287 254.52 224.219 255.801 223.673C257.138 224.127 258.725 222.742 260.095 223.145C261.464 223.548 262.884 223.532 264.268 223.878C265.652 224.224 267.077 224.044 268.476 224.334C269.875 224.623 270.666 227.622 272.081 227.862C273.496 228.103 274.922 228.357 276.334 228.536C277.747 228.715 279.172 229.109 280.601 229.239C282.03 229.369 283.6 227.451 285.036 227.526C286.472 227.6 287.863 226.742 289.291 226.771C290.719 226.8 292.136 229.78 293.569 229.746C294.947 229.721 296.204 226.881 297.565 226.804C298.926 226.727 300.518 229.246 301.879 229.122C303.24 228.998 304.526 227.862 305.878 227.685C307.23 227.508 308.627 227.403 309.971 227.181C311.315 226.959 312.452 225.666 313.787 225.391C315.123 225.117 316.343 224.456 317.662 224.137C318.982 223.818 320.195 223.212 321.498 222.841C322.8 222.47 324.19 222.42 325.484 221.996C326.777 221.573 329.141 223.825 330.41 223.351C331.678 222.876 332.513 221.204 333.758 220.687C335.002 220.169 336.054 219.146 337.282 218.578C338.51 218.009 340.213 218.213 341.407 217.587C342.6 216.961 343.775 216.176 344.945 215.507C346.114 214.838 347.906 214.936 349.033 214.212C350.161 213.487 351.309 212.597 352.403 211.816C353.496 211.035 353.853 209.249 354.907 208.428C355.961 207.606 355.517 205.152 356.521 204.276C357.524 203.4 358.982 203.029 359.937 202.106C360.891 201.183 361.06 199.636 361.965 198.659C362.869 197.682 363.675 196.751 364.515 195.729C365.355 194.708 368.315 195.185 369.09 194.119C369.865 193.053 370.652 191.915 371.354 190.806C372.056 189.697 370.494 187.399 371.123 186.247C371.752 185.095 372.427 184.068 372.967 182.875C373.508 181.682 377.044 181.605 377.505 180.378C377.966 179.15 376.275 177.245 376.64 175.986C377.006 174.727 377.541 173.55 377.814 172.274C378.086 170.998 380.292 169.977 380.464 168.685C380.636 167.394 380.796 165.988 380.859 164.682C380.923 163.376 380.676 161.978 380.639 160.664C380.606 159.319 381.063 157.829 380.925 156.499C380.788 155.17 377.53 154.196 377.289 152.882C377.049 151.569 377.651 150.118 377.307 148.82C376.963 147.523 375.269 146.658 374.824 145.391C374.378 144.125 374.456 142.762 373.909 141.519C373.361 140.276 374.424 138.359 373.793 137.16C373.163 135.96 370.166 136.033 369.444 134.871C368.722 133.709 369.609 131.671 368.806 130.561C368.002 129.45 366.497 128.874 365.63 127.82C364.763 126.765 363.577 126.047 362.635 125.036C361.694 124.024 361.054 122.865 360.056 121.908C359.059 120.952 359.246 118.843 358.193 117.941C357.139 117.04 354.254 118.251 353.146 117.413C352.038 116.574 351.518 115.164 350.369 114.37C349.219 113.576 349.207 111.258 348.019 110.524C346.83 109.791 344.458 110.939 343.23 110.259C342.001 109.578 342.331 106.245 341.072 105.623C339.812 105.002 337.685 106.004 336.403 105.44C335.121 104.876 334.422 102.989 333.108 102.477C331.794 101.965 330.206 102.053 328.867 101.592C327.529 101.13 325.777 101.601 324.424 101.195L324.403 101.214Z" stroke="#7FD5FF" stroke-width="5" stroke-miterlimit="10"/>
</svg>
