<svg width="363" height="188" viewBox="0 0 363 188" fill="none" xmlns="http://www.w3.org/2000/svg">
<path d="M20.086 77.4116C19.2653 78.2959 19.8902 79.8771 19.1297 80.8065C18.3692 81.7359 16.1931 81.8586 15.4853 82.8138C14.7775 83.769 15.0711 85.2663 14.4236 86.2538C13.776 87.2413 14.1073 88.6419 13.52 89.6616C12.9326 90.6814 13.0381 91.8948 12.511 92.9339C11.9839 93.973 11.1104 94.812 10.6436 95.877C10.1767 96.9419 8.34702 97.5615 7.94794 98.6458C7.54883 99.7301 6.03531 100.563 5.70401 101.66C5.37268 102.757 7.35306 104.319 7.08951 105.429C6.82596 106.539 6.89371 107.643 6.69794 108.772C6.50217 109.902 6.11813 110.934 5.9826 112.07C5.84705 113.206 6.49466 114.31 6.42688 115.446C6.3591 116.582 5.99014 117.627 5.99014 118.763C5.99014 119.899 2.94058 121.067 3.00082 122.171C3.06104 123.275 6.20853 124.211 6.33652 125.314C6.46454 126.418 3.97214 127.812 4.1604 128.909C4.34863 130.006 5.93744 130.929 6.19345 132.02C6.44946 133.111 6.09555 134.337 6.4118 135.409C6.72806 136.48 8.85147 137.119 9.2355 138.177C9.61951 139.236 9.34094 140.456 9.78522 141.495C10.2295 142.534 11.2309 143.36 11.743 144.38C12.255 145.4 11.758 146.794 12.3228 147.794C12.8875 148.795 14.4386 149.337 15.0636 150.305C15.6886 151.273 15.9521 152.389 16.6374 153.338C17.3226 154.287 16.931 155.836 17.6689 156.746C18.4069 157.656 18.6553 158.934 19.446 159.818C20.2366 160.702 23.4745 159.863 24.3178 160.709C25.1611 161.554 25.1009 163.026 25.9969 163.833C26.893 164.639 26.8327 166.266 27.774 167.034C28.7152 167.802 30.1007 168.176 31.0871 168.899C32.0735 169.622 34.1066 169.196 35.1306 169.874C36.1547 170.551 36.358 172.146 37.4272 172.778C38.4965 173.411 40.4016 172.856 41.5085 173.436C42.6153 174.017 42.5551 176.283 43.6996 176.812C44.8441 177.341 45.7251 178.4 46.8998 178.877C48.0745 179.355 50.4163 177.528 51.621 177.948C52.8258 178.367 54.0456 178.503 55.2805 178.864C56.5154 179.226 56.7865 182.001 58.0364 182.304C59.3315 182.692 60.7396 182.95 62.0799 183.253C63.4203 183.557 64.7154 184.454 66.0783 184.654C67.4412 184.854 69.2032 182.363 70.5887 182.466C71.9742 182.569 73.2166 182.466 74.6096 182.466C76.5297 182.466 76.5297 185.235 78.4574 185.235C80.385 185.235 80.385 183.628 82.3051 183.628C84.2253 183.628 84.2253 184.415 86.1529 184.415C88.0805 184.415 88.073 182.427 90.0006 182.427C91.9283 182.427 91.9207 184.647 93.8484 184.647C95.776 184.647 95.776 184.273 97.6961 184.273C99.6162 184.273 99.6162 184.254 101.544 184.254C103.472 184.254 103.464 184.202 105.392 184.202C107.319 184.202 107.319 184.912 109.239 184.912C111.159 184.912 111.167 183.77 113.087 183.77C115.007 183.77 115.007 182.182 116.935 182.182C118.863 182.182 118.855 185.344 120.775 185.344C122.695 185.344 122.695 183.189 124.615 183.189C126.535 183.189 126.535 184.505 128.463 184.505C130.391 184.505 130.391 183.389 132.311 183.389C134.231 183.389 134.231 182.963 136.159 182.963C138.086 182.963 138.079 183.531 140.006 183.531C141.934 183.531 141.926 183.686 143.854 183.686C145.782 183.686 145.774 183.131 147.702 183.131C149.629 183.131 149.629 182.879 151.55 182.879C153.47 182.879 153.47 183.647 155.397 183.647C157.325 183.647 157.317 184.157 159.245 184.157C161.173 184.157 161.165 183.382 163.093 183.382C165.02 183.382 165.02 182.382 166.941 182.382C168.861 182.382 168.861 182.692 170.788 182.692C172.716 182.692 172.716 183.937 174.636 183.937C176.556 183.937 176.564 184.699 178.484 184.699C180.404 184.699 180.404 184.06 182.332 184.06C184.259 184.06 184.259 183.518 186.179 183.518C188.099 183.518 188.107 183.776 190.027 183.776C191.947 183.776 191.955 182.608 193.875 182.608C195.795 182.608 195.802 184.221 197.723 184.221C199.643 184.221 199.65 183.97 201.57 183.97C203.49 183.97 203.498 182.511 205.418 182.511C207.338 182.511 207.346 183.027 209.266 183.027C211.186 183.027 211.193 183.873 213.114 183.873C215.034 183.873 215.041 182.208 216.961 182.208C218.881 182.208 218.881 183.376 220.809 183.376C222.737 183.376 222.737 185.222 224.657 185.222C226.577 185.222 226.577 184.776 228.505 184.776C230.432 184.776 230.432 184.092 232.352 184.092C234.272 184.092 234.28 184.266 236.2 184.266C238.12 184.266 238.128 182.401 240.048 182.401C241.968 182.401 241.975 183.356 243.896 183.356C245.816 183.356 245.823 182.924 247.751 182.924C249.678 182.924 249.678 184.834 251.599 184.834C253.519 184.834 253.526 183.337 255.454 183.337C257.382 183.337 257.382 183.008 259.309 183.008C261.237 183.008 261.237 183.415 263.164 183.415C264.294 183.415 265.408 183.324 266.515 183.26C267.938 183.331 269.369 182.427 270.807 182.427C272.132 182.427 273.375 182.543 274.678 182.485C275.98 182.427 277.562 184.97 278.857 184.854C280.152 184.738 281.236 182.801 282.524 182.627C283.811 182.453 285.438 183.602 286.718 183.369C287.998 183.137 289.188 182.343 290.453 182.046C291.718 181.749 293.337 182.24 294.579 181.885C295.821 181.53 296.326 179.316 297.546 178.903C298.766 178.49 300.836 179.716 302.026 179.245C303.216 178.774 304.639 178.503 305.791 177.974C306.943 177.444 307.613 176.025 308.735 175.444C309.857 174.863 310.663 173.804 311.747 173.172C312.831 172.539 313.479 171.397 314.518 170.713C315.557 170.029 316.739 169.467 317.733 168.731C317.937 168.731 318.381 170.513 318.584 170.513C319.932 170.513 321.182 168.054 322.492 167.97C323.802 167.886 325 167.35 326.302 167.176C327.605 167.002 329.036 167.589 330.323 167.324C331.611 167.06 333.162 167.537 334.419 167.189C335.677 166.84 336.422 165.298 337.635 164.859C338.847 164.42 340.232 164.336 341.392 163.807C342.552 163.278 342.973 161.787 344.073 161.161C345.172 160.535 346.128 159.941 347.152 159.231C348.176 158.521 351.226 159.715 352.16 158.915C353.093 158.114 353.613 156.83 354.434 155.946C355.254 155.061 355.721 153.867 356.414 152.906C357.107 151.944 357.634 150.853 358.176 149.814C358.718 148.775 358.244 147.452 358.613 146.361C358.982 145.271 361.037 144.483 361.233 143.347C361.429 142.211 359.494 140.979 359.494 139.823C359.494 138.758 360.435 137.713 360.277 136.68C360.119 135.647 358.515 134.918 358.191 133.905C357.867 132.891 359.193 131.459 358.726 130.484C358.259 129.51 356.708 129.019 356.098 128.096C355.488 127.173 354.637 126.521 353.914 125.656C353.191 124.792 352.205 124.301 351.369 123.514C350.533 122.726 351.806 120.183 350.887 119.467C349.968 118.75 348.003 119.086 347.009 118.447C346.015 117.808 345.887 116.033 344.826 115.478C343.764 114.923 342.8 115.149 341.686 114.671C341.987 113.69 340.82 112.974 341.016 111.967C341.211 110.96 341.324 109.999 341.43 108.979C341.535 107.959 342.175 106.997 342.175 105.971C342.175 104.848 341.121 103.816 341.008 102.718C340.895 101.621 343.011 100.208 342.778 99.1234C342.544 98.0391 340.458 97.2646 340.104 96.1997C339.751 95.1347 339.336 94.1085 338.87 93.0759C338.403 92.0432 338.877 90.6297 338.297 89.6358C337.717 88.6419 337.958 87.151 337.281 86.2022C336.603 85.2534 334.359 85.1437 333.584 84.253C332.808 83.3624 330.745 83.4656 329.879 82.6395C329.013 81.8134 329.563 79.8836 328.614 79.1155C327.665 78.3475 327.424 76.805 326.4 76.1144C325.376 75.4238 323.396 75.8046 322.311 75.1914C321.227 74.5783 321.061 72.5388 319.917 72.0031C318.772 71.4674 317.04 71.7707 315.851 71.3254C314.661 70.8801 313.245 70.8349 312.011 70.4734C310.776 70.112 309.315 70.4928 308.05 70.2153C306.785 69.9377 305.663 69.2536 304.375 69.0729C303.088 68.8922 301.905 67.8079 300.595 67.7175C299.285 67.6272 297.922 68.0725 296.612 68.0725C295.385 68.0725 294.097 67.7304 292.9 67.8079C291.703 67.8853 290.596 68.8276 289.406 68.9825C288.962 67.9757 287.93 67.2593 287.373 66.3041C286.816 65.3489 287.734 63.632 287.064 62.7285C286.394 61.8249 284.82 61.3796 284.052 60.5341C283.284 59.6886 282.524 58.7979 281.658 58.0234C280.792 57.2489 278.759 57.591 277.81 56.8939C276.861 56.1969 275.837 55.7838 274.806 55.1707C273.774 54.5575 274.429 51.6402 273.33 51.1175C272.23 50.5947 269.768 52.447 268.616 52.021C267.464 51.5951 267.253 49.0263 266.056 48.7036C264.859 48.3809 263.443 48.4196 262.208 48.2066C260.973 47.9936 259.738 47.1288 258.488 47.0191C257.238 46.9094 255.83 47.9227 254.565 47.9227C253.3 47.9227 252.344 49.8718 251.169 49.9686C249.995 50.0654 248.346 47.4902 247.194 47.6903C246.042 47.8904 245.673 50.8916 244.543 51.182C243.414 51.4724 241.253 50.8464 240.153 51.2272C240.289 50.1881 239.054 48.6068 239.054 47.5419C239.054 46.3995 239.626 45.3926 239.476 44.2825C239.325 43.1724 241.456 41.675 241.147 40.5843C240.838 39.4935 239.747 38.4867 239.287 37.4411C238.828 36.3955 239.235 34.8659 238.632 33.872C238.03 32.878 236.155 32.394 235.417 31.4646C234.679 30.5352 234.611 29.0378 233.745 28.1923C232.879 27.3468 231.562 26.7079 230.583 25.9527C229.604 25.1976 228.256 24.7265 227.179 24.0746C226.103 23.4227 224.115 24.1198 222.955 23.5841C221.795 23.0484 221.223 21.5704 219.988 21.1638C218.753 20.7572 217.33 20.9895 216.05 20.7184C214.77 20.4474 213.603 19.9762 212.285 19.8342C210.968 19.6922 209.71 20.0536 208.377 20.0536C207.451 20.0536 205.862 20.5442 204.959 20.6087C204.13 19.7632 204.417 17.4526 203.505 16.6652C202.594 15.8778 201.292 15.426 200.313 14.6967C199.334 13.9674 198.152 13.4769 197.12 12.8121C196.089 12.1473 195.863 10.4305 194.771 9.83675C193.679 9.24296 191.616 10.0304 190.479 9.50112C189.342 8.97188 187.964 8.99771 186.782 8.54592C185.6 8.09413 184.229 8.32648 183.009 7.94569C181.789 7.56489 181.669 4.37654 180.427 4.0732C179.184 3.76985 177.851 3.40841 176.586 3.17606C175.321 2.94371 173.604 4.83479 172.324 4.67989C171.044 4.52499 169.802 4.76379 168.507 4.69279C167.212 4.6218 166.022 5.09941 164.727 5.09941C163.432 5.09941 162.061 3.32451 160.766 3.40196C159.471 3.47941 158.183 4.02155 156.888 4.18291C155.593 4.34426 154.147 3.95056 152.875 4.18291C151.602 4.41526 150.812 6.28695 149.554 6.59675C148.297 6.90655 146.685 6.20951 145.458 6.60321C144.231 6.99692 143.011 7.42934 141.821 7.89404C140.631 8.35874 139.095 8.32002 137.951 8.86216C136.806 9.40431 136.625 11.3147 135.534 11.9343C134.442 12.5539 132.665 12.3151 131.626 12.9993C130.587 13.6834 130.745 15.5358 129.773 16.2909C128.802 17.046 126.573 16.6394 125.669 17.4526C124.766 18.2659 124.909 19.8407 124.081 20.712C123.252 21.5833 120.918 21.4929 120.18 22.4223C119.442 23.3517 119.111 24.5522 118.463 25.5332C117.816 26.5143 118.222 27.9406 117.665 28.9668C117.108 29.993 115.256 30.5545 114.811 31.613C114.367 32.6715 113.087 33.5945 112.748 34.6917C112.409 35.7889 114.653 37.3766 114.427 38.4931C114.202 39.6097 111.604 40.4617 111.491 41.5911C111.378 42.7206 111.807 43.9405 111.807 45.0764C111.807 46.2123 113.411 47.3741 113.531 48.5229C113.652 49.6717 112.62 50.9884 112.861 52.1308C113.102 53.2731 113.75 54.3123 114.111 55.4288C113.72 56.1711 113.765 55.6483 113.411 56.4099C112.583 55.5837 111.641 56.042 110.745 55.2675C109.849 54.493 107.748 54.8996 106.792 54.1767C105.836 53.4539 105.414 52.305 104.398 51.6467C103.381 50.9884 103.336 49.1554 102.267 48.5616C101.198 47.9678 100.557 46.6189 99.4355 46.0961C98.3136 45.5733 96.1676 46.7157 95.008 46.2575C93.8484 45.7992 92.5834 45.6831 91.3861 45.2958C90.1889 44.9086 89.3907 43.5855 88.1633 43.2757C86.936 42.9659 85.7237 42.5334 84.4737 42.3011C83.2238 42.0687 81.6726 43.4693 80.4076 43.3144C79.1426 43.1595 78.0207 42.527 76.7481 42.4495C75.4756 42.3721 74.2632 40.2616 72.9756 40.2616C71.688 40.2616 70.295 40.2293 69.0376 40.3068C67.7801 40.3842 66.4171 40.8102 65.1672 40.9586C63.9172 41.1071 62.6372 41.6879 61.4023 41.9138C60.1674 42.1397 59.4295 44.1212 58.2172 44.431C57.0049 44.7408 55.4688 44.1792 54.2866 44.56C53.1044 44.9408 51.5608 44.7085 50.4087 45.1603C49.2566 45.6121 47.7808 45.7089 46.6739 46.2252C45.567 46.7416 44.1966 47.1159 43.1273 47.7032C42.0581 48.2905 41.6139 49.7879 40.5973 50.4398C39.5808 51.0917 39.6109 52.8407 38.6546 53.5571C37.6983 54.2735 36.5237 54.7253 35.6276 55.4934C34.7316 56.2614 33.8129 56.9843 32.9846 57.804C32.1564 58.6236 29.6715 58.3655 28.911 59.2368C28.1505 60.1081 28.8131 61.8894 28.1279 62.8059C27.4427 63.7224 26.2078 64.3807 25.5979 65.3359C24.988 66.2912 24.5287 67.3496 24.0016 68.3436C23.4745 69.3375 24.4081 70.822 23.9639 71.8417C23.5196 72.8615 22.3525 73.636 21.9986 74.6815C21.6447 75.7271 20.2743 76.3661 20.0107 77.431L20.086 77.4116Z" fill="white"/>
<path d="M21.4637 77.973C21.7273 76.9016 20.2515 75.3333 20.5978 74.2941C20.9442 73.255 22.533 72.4935 22.9772 71.4802C23.4215 70.4668 24.4983 69.673 25.0178 68.6855C25.5374 67.698 26.4862 66.93 27.0886 65.9747C27.6909 65.0195 27.0885 63.4576 27.7737 62.5476C28.459 61.6376 31.0568 61.8957 31.8173 61.0309C32.5778 60.166 32.3369 58.688 33.1651 57.8619C33.9934 57.0358 34.5581 56.0289 35.4542 55.2609C36.3503 54.4928 38.2478 54.7187 39.2041 54.0023C40.1604 53.2859 40.7929 52.3694 41.8094 51.7175C42.8259 51.0657 43.7144 50.3751 44.7762 49.7813C45.8379 49.1875 46.3123 47.7999 47.4267 47.2771C48.5411 46.7543 49.8663 46.6123 51.0184 46.1605C52.1704 45.7087 53.315 45.3021 54.5122 44.9149C55.7095 44.5276 56.4625 42.998 57.6899 42.6882C58.9172 42.3784 60.3855 42.7915 61.6355 42.5656C62.8854 42.3397 63.9396 40.952 65.2046 40.7971C66.4696 40.6422 68.0434 43.0174 69.3159 42.9399C70.5885 42.8625 71.7556 41.4103 73.0357 41.4103C74.3158 41.4103 75.5356 42.501 76.7931 42.5785C78.0506 42.6559 79.1424 43.5724 80.3923 43.7273C81.6423 43.8822 82.96 43.3659 84.1949 43.5982C85.4298 43.8306 86.9583 43.0819 88.1707 43.3852C89.383 43.6886 90.904 43.4046 92.0937 43.7854C93.2834 44.1662 94.6237 44.4502 95.7758 44.902C96.9278 45.3538 96.8149 47.9741 97.9218 48.5034C99.0287 49.0326 101.739 47.2964 102.809 47.8838C103.878 48.4711 103.547 50.8333 104.556 51.4917C105.565 52.15 107.899 51.4465 108.855 52.1629C109.811 52.8793 111.129 53.415 112.025 54.183C112.921 54.9511 112.447 57.7586 113.283 58.5848C113.637 57.8232 113.087 56.1386 113.478 55.3964C113.117 54.2798 114.254 53.0858 114.013 51.9305C113.772 50.7752 112.259 49.7749 112.138 48.6067C112.018 47.4385 113.606 46.2251 113.606 45.0504C113.606 43.8758 112.65 42.7721 112.763 41.6555C112.876 40.539 113.84 39.5063 114.066 38.4027C114.292 37.299 114.804 36.2792 115.143 35.1949C115.481 34.1106 114.917 32.794 115.361 31.7355C115.805 30.677 116.874 29.838 117.424 28.8182C117.974 27.7985 117.793 26.4496 118.441 25.4685C119.088 24.4875 120.692 24.0228 121.43 23.0934C122.168 22.164 121.016 19.9696 121.844 19.0983C122.672 18.227 125.684 18.9499 126.588 18.1302C127.492 17.3105 126.927 15.1935 127.906 14.4384C128.885 13.6833 131.076 14.1544 132.115 13.4638C133.154 12.7732 134.238 12.2182 135.338 11.5986C136.437 10.979 136.377 8.6684 137.529 8.12625C138.681 7.58411 141.015 9.004 142.212 8.53285C143.41 8.0617 144.132 6.69988 145.367 6.29972C146.602 5.89956 148.44 7.24849 149.705 6.93223C150.97 6.61598 151.451 3.75679 152.739 3.51798C154.027 3.27918 155.397 3.06621 156.707 2.90485C158.018 2.7435 159.591 4.97017 160.909 4.89272C162.227 4.81527 163.424 3.89878 164.749 3.89878C166.074 3.89878 167.309 3.88587 168.589 3.95686C169.869 4.02786 171.18 3.91815 172.445 4.07305C173.71 4.22795 175.08 4.04723 176.338 4.27313C177.595 4.49902 178.634 5.50587 179.869 5.80922C181.104 6.11256 183.062 4.66682 184.267 5.04761C185.471 5.42841 186.541 6.35781 187.708 6.8096C188.875 7.26139 189.455 8.82329 190.584 9.34608C191.714 9.86886 192.369 11.0242 193.445 11.6179C194.522 12.2117 196.156 12.0762 197.18 12.741C198.204 13.4057 200.23 13.1024 201.194 13.8253C202.157 14.5481 202.534 15.9229 203.438 16.7103C204.341 17.4977 204.198 19.6598 205.026 20.4988C205.93 20.4343 207.466 20.5763 208.392 20.5763C209.725 20.5763 211.246 17.9688 212.541 18.1044C213.836 18.2399 215.365 18.4722 216.63 18.7433C217.895 19.0144 219.009 20.2342 220.229 20.6344C221.449 21.0345 222.563 21.8349 223.715 22.3641C224.867 22.8933 225.123 24.623 226.193 25.2685C227.262 25.9139 230.116 24.7005 231.095 25.4492C232.074 26.1979 232.608 27.521 233.474 28.3729C234.34 29.2249 234.204 30.7803 234.942 31.7162C235.68 32.652 237.856 32.9166 238.459 33.917C239.061 34.9174 236.87 36.9763 237.337 38.0348C237.804 39.0932 239.4 39.7451 239.716 40.8488C240.033 41.9524 240.846 42.9593 240.996 44.0888C241.147 45.2182 241.606 46.3542 241.606 47.4965C241.606 48.5615 241.862 48.4711 241.727 49.5102C242.826 49.1294 242.691 49.3489 243.835 49.0584C244.98 48.768 246.659 50.5752 247.833 50.3751C249.008 50.175 249.934 49.5038 251.132 49.407C252.329 49.3102 253.383 47.8192 254.588 47.8192C255.853 47.8192 257.073 48.626 258.3 48.7357C259.527 48.8454 260.935 48.2775 262.148 48.4905C263.36 48.7035 265.024 47.9677 266.206 48.2904C267.388 48.6131 267.464 51.6078 268.608 52.0273C269.753 52.4469 271.357 51.9434 272.441 52.4662C273.525 52.989 274.692 53.415 275.717 54.0217C276.741 54.6284 278.262 54.7639 279.21 55.461C280.159 56.158 280.475 57.4746 281.341 58.2556C282.207 59.0365 284.157 59.0753 284.925 59.9208C285.694 60.7663 285.663 62.1862 286.334 63.0898C287.004 63.9933 285.776 65.7489 286.334 66.7105C286.891 67.6722 289.602 67.0461 290.046 68.053C291.235 67.8981 291.876 69.8279 293.095 69.7504C294.315 69.673 295.407 69.5955 296.634 69.5955C297.945 69.5955 299.097 70.1248 300.377 70.2087C301.657 70.2926 303.411 67.3559 304.676 67.5367C305.941 67.7174 307.184 68.6597 308.434 68.9243C309.684 69.1889 310.851 69.9699 312.071 70.3249C313.29 70.6798 314.518 71.1574 315.7 71.6028C316.882 72.0481 318.712 71.564 319.849 72.0933C320.986 72.6225 320.617 75.3591 321.694 75.9722C322.771 76.5854 323.697 77.2308 324.713 77.9214C325.73 78.612 326.95 78.9863 327.891 79.7414C328.832 80.4966 329.992 81.0258 330.85 81.8519C331.708 82.6781 332.8 83.33 333.576 84.2206C334.351 85.1113 334.638 86.2537 335.315 87.2024C335.993 88.1512 336 89.3323 336.58 90.3262C337.16 91.3202 338.621 91.914 339.088 92.9531C339.555 93.9922 340.052 94.9991 340.405 96.0769C340.759 97.1547 341.204 98.1874 341.445 99.2846C341.685 100.382 342.416 101.427 342.536 102.544C342.657 103.661 340.594 104.796 340.594 105.919C340.594 106.946 340.262 107.83 340.164 108.837C340.067 109.844 340.797 110.857 340.594 111.851C340.39 112.845 342.762 113.322 342.461 114.303C343.568 114.787 343.365 115.465 344.404 116.014C345.443 116.562 347.175 116.466 348.154 117.092C349.132 117.718 350.111 118.608 351.015 119.312C351.919 120.015 352.536 121.171 353.349 121.945C354.162 122.72 354.554 123.933 355.269 124.778C355.985 125.624 355.714 127.037 356.316 127.954C356.918 128.87 358.168 129.503 358.635 130.477C359.102 131.452 361.03 132.117 361.346 133.137C361.662 134.156 362.024 135.37 362.189 136.422C362.355 137.474 361.655 138.713 361.655 139.784C361.655 140.94 361.444 142.192 361.256 143.308C361.067 144.425 358.191 145.025 357.822 146.122C357.453 147.22 359.84 149.162 359.298 150.208C358.756 151.253 356.783 151.712 356.083 152.693C355.382 153.674 354.358 154.384 353.522 155.287C352.687 156.191 351.632 156.791 350.684 157.611C349.735 158.43 349.2 159.508 348.154 160.238C347.107 160.967 345.45 160.793 344.321 161.425C343.191 162.058 342.514 163.097 341.324 163.639C340.134 164.181 339.487 165.588 338.252 166.04C337.017 166.492 335.594 166.472 334.314 166.834C333.034 167.195 331.724 167.266 330.413 167.537C329.103 167.808 327.755 167.486 326.422 167.66C325.09 167.834 324.081 170.351 322.74 170.442C321.4 170.532 319.954 168.131 318.607 168.131C318.403 168.131 317.974 168.725 317.771 168.725C316.777 169.461 316.491 171.016 315.444 171.7C314.397 172.384 313.193 172.933 312.101 173.572C311.009 174.211 308.998 173.572 307.861 174.153C306.724 174.734 305.625 175.231 304.458 175.753C303.291 176.276 302.222 176.838 301.017 177.309C299.812 177.78 299.149 179.245 297.914 179.658C296.68 180.071 295.241 179.936 293.991 180.291C292.741 180.646 292.019 182.569 290.739 182.866C289.458 183.163 287.418 180.671 286.123 180.91C284.828 181.149 283.683 181.575 282.38 181.756C281.078 181.936 280.189 184.783 278.879 184.905C277.569 185.028 276.078 183.531 274.753 183.589C273.427 183.647 272.14 182.427 270.815 182.427C269.376 182.427 267.946 182.821 266.523 182.75C265.416 182.814 264.301 184.763 263.172 184.763C261.252 184.763 261.252 184.26 259.324 184.26C257.396 184.26 257.396 184.583 255.476 184.583C253.556 184.583 253.556 183.737 251.629 183.737C249.701 183.737 249.708 184.26 247.781 184.26C245.853 184.26 245.861 182.659 243.933 182.659C242.005 182.659 242.005 182.207 240.085 182.207C238.165 182.207 238.165 185.357 236.238 185.357C234.31 185.357 234.317 183.789 232.39 183.789C230.462 183.789 230.462 184.389 228.542 184.389C226.622 184.389 226.614 184.17 224.694 184.17C222.774 184.17 222.774 183.86 220.847 183.86C218.919 183.86 218.926 183.079 217.006 183.079C215.086 183.079 215.086 185.28 213.166 185.28C211.246 185.28 211.246 184.615 209.318 184.615C207.391 184.615 207.391 182.162 205.471 182.162C203.55 182.162 203.55 184.17 201.623 184.17C199.695 184.17 199.703 184.628 197.775 184.628C195.847 184.628 195.855 182.24 193.927 182.24C192 182.24 192.007 184.557 190.08 184.557C188.152 184.557 188.152 183.614 186.232 183.614C184.312 183.614 184.312 184.679 182.384 184.679C180.456 184.679 180.464 182.266 178.536 182.266C176.609 182.266 176.616 183.221 174.689 183.221C172.761 183.221 172.761 183.731 170.841 183.731C168.921 183.731 168.921 183.827 166.993 183.827C165.065 183.827 165.065 183.886 163.145 183.886C161.225 183.886 161.218 184.783 159.298 184.783C157.377 184.783 157.377 182.711 155.45 182.711C153.522 182.711 153.522 184.976 151.602 184.976C149.682 184.976 149.674 183.272 147.754 183.272C145.834 183.272 145.827 184.996 143.907 184.996C141.986 184.996 141.979 182.756 140.059 182.756C138.139 182.756 138.131 184.421 136.211 184.421C134.291 184.421 134.283 185.26 132.363 185.26C130.443 185.26 130.436 184.918 128.516 184.918C126.595 184.918 126.588 182.569 124.668 182.569C122.748 182.569 122.74 182.278 120.82 182.278C118.9 182.278 118.9 182.808 116.972 182.808C115.045 182.808 115.045 182.42 113.125 182.42C111.204 182.42 111.204 183.64 109.277 183.64C107.349 183.64 107.349 182.866 105.429 182.866C103.509 182.866 103.501 184.473 101.581 184.473C99.6612 184.473 99.6537 184.028 97.7336 184.028C95.8135 184.028 95.8059 183.034 93.8858 183.034C91.9657 183.034 91.9582 184.073 90.0305 184.073C88.1029 184.073 88.1029 184.37 86.1828 184.37C84.2627 184.37 84.2551 183.756 82.3275 183.756C80.3998 183.756 80.3998 182.233 78.4722 182.233C76.5446 182.233 76.5446 182.408 74.6169 182.408C73.2239 182.408 71.8159 184.034 70.453 183.937C69.09 183.84 67.8401 182.788 66.4922 182.595C65.1444 182.401 63.3749 183.673 62.0421 183.376C60.7093 183.079 59.9563 181.001 58.6612 180.613C57.4112 180.303 56.0032 180.445 54.7758 180.084C53.5484 179.723 52.5394 178.935 51.3347 178.516C50.1299 178.096 49.0682 177.515 47.8935 177.038C46.7189 176.56 45.6722 175.979 44.5352 175.45C43.3982 174.921 40.8983 176.386 39.7914 175.805C38.6845 175.224 37.4873 174.63 36.418 173.998C35.3488 173.365 35.153 171.642 34.1214 170.964C33.0899 170.287 31.3279 170.338 30.3415 169.615C29.355 168.893 28.459 168.002 27.5178 167.234C26.5765 166.466 26.4862 164.936 25.5977 164.129C24.7091 163.323 25.0254 161.625 24.182 160.78C23.3387 159.934 22.6535 159.076 21.8628 158.192C21.0722 157.307 17.4428 158.205 16.6974 157.288C15.9519 156.372 16.5166 154.681 15.8314 153.732C15.1462 152.783 14.4459 151.834 13.821 150.86C13.196 149.885 11.306 149.427 10.7412 148.42C10.1765 147.413 10.0033 146.193 9.49131 145.167C8.97928 144.141 10.3497 142.476 9.90544 141.43C9.46118 140.385 7.91005 139.668 7.52603 138.603C7.14201 137.538 8.18862 136.144 7.86483 135.066C7.54105 133.989 8.10582 132.801 7.84981 131.71C7.59379 130.619 6.26101 129.748 6.06524 128.645C5.86946 127.541 4.9809 126.534 4.8529 125.424C4.72489 124.314 4.88303 123.197 4.82279 122.081C4.76256 120.964 5.8393 119.873 5.8393 118.75C5.8393 117.627 5.56072 116.524 5.62849 115.394C5.69626 114.265 3.2039 112.948 3.33944 111.825C3.47497 110.702 6.90105 109.928 7.09682 108.811C7.2926 107.694 6.02004 106.384 6.28359 105.281C6.54713 104.177 5.59085 102.789 5.92217 101.698C6.25348 100.608 6.41913 99.4008 6.81068 98.3294C7.20224 97.258 7.87241 96.1866 8.33173 95.1281C8.79105 94.0697 10.6359 93.4565 11.1554 92.4238C11.675 91.3912 10.6283 89.6873 11.2156 88.674C11.803 87.6607 12.1568 86.4538 12.8044 85.4727C13.452 84.4917 15.5378 84.1819 16.2456 83.2267C16.9534 82.2715 17.8494 81.4131 18.6175 80.4901C19.3855 79.5672 20.643 78.8508 21.4562 77.9666L21.4637 77.973Z" stroke="#7FD5FF" stroke-width="5" stroke-miterlimit="10"/>
</svg>
