<svg width="242" height="130" viewBox="0 0 242 130" fill="none" xmlns="http://www.w3.org/2000/svg">
<path d="M28.7659 54.8336C28.0309 55.1845 28.5318 56.619 27.8203 56.9965C27.1087 57.374 26.3503 57.6538 25.6575 58.0535C24.9647 58.4532 24.0659 58.5642 23.3918 58.9994C22.7176 59.4347 21.5145 59.2126 20.8638 59.6745C20.2131 60.1364 19.6982 60.8381 19.0709 61.3266C18.4436 61.8151 18.13 62.6945 17.5261 63.2141C16.9222 63.7337 16.9456 64.8662 16.3745 65.4125C15.8033 65.9588 14.2773 65.6612 13.7342 66.2341C13.1912 66.807 12.8963 67.6242 12.386 68.2237C11.8757 68.8233 10.8318 69.0898 10.359 69.7204C9.88618 70.3511 10.8599 71.9099 10.4245 72.5628C9.98918 73.2156 9.24017 73.6597 8.84694 74.3348C8.4537 75.0099 8.31796 75.7826 7.97154 76.4799C7.62512 77.1771 6.82462 77.6701 6.52502 78.3896C6.22542 79.1091 5.80409 79.7886 5.56065 80.5258C5.31723 81.263 5.80409 82.169 5.61215 82.924C5.42023 83.679 4.94273 84.3363 4.81166 85.1002C4.68059 85.8641 3.47281 86.5125 3.40259 87.2853C3.33237 88.058 4.4231 88.8885 4.41373 89.6702C4.40437 90.4518 4.84911 91.158 4.9006 91.9352C4.9521 92.7124 4.29672 93.5073 4.40907 94.2845C4.52142 95.0351 4.175 95.8656 4.34354 96.5984C4.51205 97.3312 5.53726 97.8641 5.75728 98.5836C5.97729 99.3031 5.31723 100.311 5.59343 101.017C5.86963 101.724 6.58588 102.274 6.91824 102.963C7.25063 103.651 7.92004 104.157 8.29922 104.823C8.67841 105.49 9.07632 106.111 9.507 106.746C9.93768 107.382 9.7317 108.43 10.2092 109.038C10.6867 109.647 10.8973 110.49 11.417 111.068C11.9366 111.645 13.224 111.574 13.7764 112.125C14.3288 112.675 14.9233 113.146 15.5131 113.661C16.103 114.177 16.4915 114.874 17.1094 115.358C17.7274 115.842 18.1206 116.593 18.7666 117.041C19.4126 117.49 19.6608 118.524 20.3302 118.942C20.9996 119.359 22.1699 119.049 22.8581 119.435C23.5462 119.821 23.9207 120.785 24.6276 121.136C25.3345 121.487 26.9355 120.088 27.6611 120.408C28.3867 120.727 28.8782 121.438 29.6179 121.722C30.3575 122.006 30.5963 123.53 31.3546 123.783C32.113 124.036 33.3676 122.806 34.1307 123.028C34.8937 123.25 35.2635 124.764 36.0359 124.955C36.8083 125.146 37.5433 125.595 38.3251 125.755C39.1069 125.915 40.0993 125.062 40.8904 125.191C41.6816 125.319 42.5195 124.951 43.3107 125.049C44.1018 125.146 44.8836 125 45.6794 125.066C46.4752 125.133 47.1727 126.225 47.9733 126.265C48.7738 126.305 49.5649 126.496 50.3654 126.505C51.1659 126.514 51.9851 127.043 52.7856 127.02C53.5861 126.998 54.3773 126.474 55.1731 126.425C55.9689 126.376 56.7507 126.114 57.5512 126.039C58.3517 125.963 59.1803 126.137 59.9714 126.034C60.7953 125.923 61.5631 125.453 62.3729 125.315C63.1828 125.177 63.9505 124.787 64.7557 124.622C65.5609 124.458 66.3474 124.2 67.1432 124.005C67.939 123.809 68.4914 122.832 69.2779 122.606C70.0643 122.379 71.0287 122.712 71.8011 122.459C72.5735 122.206 73.3459 121.931 74.109 121.647C74.872 121.362 75.9721 121.793 76.7211 121.478C77.4701 121.163 77.5216 119.43 78.2566 119.084C78.9916 118.738 80.2508 119.43 80.9718 119.057C81.7582 119.257 82.7226 118.64 83.5277 118.818C84.3329 118.995 85.11 119.097 85.9246 119.253C86.7391 119.408 87.343 120.474 88.1575 120.607C88.9721 120.741 89.9318 119.804 90.751 119.91C91.5702 120.017 92.249 120.985 93.0682 121.069C93.8875 121.154 94.6458 121.886 95.4697 121.949C96.2937 122.011 97.1737 121.091 97.9977 121.131C98.8215 121.171 99.608 121.984 100.437 121.997C101.265 122.011 102.08 120.847 102.904 120.843C103.728 120.838 104.542 121.42 105.371 121.393C106.199 121.367 107.023 121.584 107.847 121.536C108.671 121.487 109.518 121.744 110.338 121.678C111.157 121.611 111.831 120.261 112.65 120.172C113.469 120.083 114.354 120.652 115.173 120.545C115.941 120.443 116.831 121.06 117.589 120.94C118.347 120.821 118.82 119.128 119.578 118.991C120.337 118.853 121.058 118.64 121.811 118.489C122.565 118.338 123.572 119.248 124.321 119.075C125.07 118.902 125.889 118.942 126.633 118.751C127.377 118.56 128.155 118.413 128.89 118.209C129.625 118.005 130.308 117.556 131.038 117.334C131.769 117.112 132.354 116.442 133.079 116.197C133.805 115.953 134.685 115.438 135.406 115.176C136.103 115.487 136.857 116.255 137.597 116.544C138.336 116.832 139.352 116.246 140.106 116.504C140.86 116.761 141.52 117.028 142.283 117.254C143.046 117.481 143.631 118.058 144.399 118.254C145.166 118.449 145.855 118.751 146.632 118.924C147.409 119.097 147.886 120.447 148.668 120.598C149.45 120.749 150.349 120.185 151.135 120.314C151.922 120.443 152.736 120.177 153.523 120.283C154.309 120.39 155.081 120.341 155.868 120.425C156.654 120.51 157.385 120.847 158.176 120.918C158.967 120.989 159.683 121.74 160.474 121.789C161.265 121.838 162.08 121.216 162.871 121.247C163.662 121.278 164.439 120.972 165.23 120.985C166.022 120.998 166.785 121.229 167.581 121.229C168.376 121.229 169.163 122.188 169.954 122.175C170.745 122.162 171.532 122.002 172.318 121.966C173.104 121.931 173.849 121.198 174.64 121.154C175.431 121.109 176.264 121.78 177.055 121.718C177.847 121.655 178.577 121.069 179.359 120.994C180.14 120.918 180.992 121.407 181.779 121.318C182.565 121.229 183.338 121.056 184.12 120.949C184.925 120.843 185.646 120.199 186.441 120.079C187.237 119.959 187.93 119.235 188.721 119.097C189.512 118.96 190.603 120.234 191.39 120.088C192.176 119.941 193.023 119.888 193.81 119.724C194.596 119.559 195.064 118.027 195.846 117.845C196.628 117.663 197.461 117.645 198.234 117.45C199.006 117.254 199.694 116.721 200.467 116.513C201.239 116.304 202.47 117.472 203.233 117.245C203.996 117.019 204.282 115.313 205.04 115.069C205.799 114.825 206.969 115.642 207.723 115.38C208.476 115.118 209.211 114.727 209.956 114.452C210.7 114.177 211.028 112.871 211.763 112.573C212.498 112.276 213.771 113.084 214.497 112.769C215.222 112.453 216.116 112.369 216.832 112.031C217.549 111.694 217.811 110.437 218.518 110.082C219.225 109.727 220.067 109.553 220.755 109.176C221.444 108.798 221.701 107.697 222.375 107.297C223.049 106.897 224.589 107.688 225.245 107.266C225.9 106.844 226.317 105.991 226.949 105.538C227.581 105.085 228.817 105.232 229.425 104.752C230.034 104.273 230.076 103.056 230.652 102.545C231.227 102.034 232.351 101.923 232.894 101.377C233.437 100.831 233.46 99.7383 233.957 99.1565C234.476 98.5436 235.267 98.1084 235.703 97.4866C236.162 96.8338 236.124 95.8923 236.489 95.2305C236.873 94.5332 237.308 93.876 237.585 93.1742C237.861 92.4725 238.212 91.7175 238.376 90.9803C238.54 90.2431 239.41 89.457 239.438 88.6975C239.467 87.9381 238.259 87.1609 238.146 86.397C238.034 85.6509 238.704 84.6961 238.46 83.981C238.217 83.266 236.859 82.9818 236.489 82.3067C236.119 81.6316 236.77 80.3704 236.302 79.753C235.834 79.1357 234.364 79.3178 233.812 78.7538C233.259 78.1897 233.039 77.417 232.426 76.9107C231.813 76.4044 231.092 76.1468 230.432 75.6938C229.772 75.2408 229.575 74.2193 228.882 73.8196C228.189 73.4199 227.244 73.5221 226.527 73.1668C225.811 72.8115 225.001 72.7671 224.266 72.4517C223.531 72.1364 223.176 71.0705 222.427 70.7907C221.678 70.5109 220.648 71.0617 219.885 70.813C219.122 70.5642 218.546 69.9158 217.773 69.6982C217.001 69.4806 216.449 68.6012 215.672 68.4103C214.894 68.2193 214.005 68.5169 213.223 68.3525C212.441 68.1882 211.767 67.5709 210.981 67.4288C210.194 67.2867 209.122 68.8366 208.331 68.7123C207.54 68.5879 207.727 66.8425 206.936 66.7404C206.95 66.0964 205.883 66.2208 205.86 65.5724C205.836 64.924 204.9 64.3732 204.839 63.7248C204.778 63.0764 206.491 62.2637 206.398 61.6242C206.286 60.8647 206.187 60.0698 206.028 59.3325C205.869 58.5953 205.167 57.9336 204.961 57.2008C204.755 56.468 203.491 56.0549 203.233 55.3399C202.976 54.6249 203.575 53.6212 203.271 52.9195C202.966 52.2178 201.623 51.9868 201.272 51.3073C200.921 50.6278 201.871 49.3132 201.473 48.6515C201.075 47.9898 199.39 48.1052 198.95 47.4657C198.51 46.8262 198.627 45.8847 198.145 45.2718C197.663 44.6589 197.775 43.6152 197.255 43.0334C196.736 42.4516 195.472 42.5271 194.915 41.9764C194.358 41.4257 194.105 40.6263 193.52 40.1111C192.934 39.596 192.579 38.8321 191.956 38.348C191.333 37.8639 190.229 38.0105 189.578 37.5619C188.927 37.1133 189.236 35.3324 188.562 34.9194C187.888 34.5064 186.577 35.0571 185.875 34.6796C185.173 34.3021 184.232 34.4264 183.511 34.0933C182.79 33.7603 182.42 32.7477 181.676 32.4501C180.932 32.1525 180.08 32.1659 179.321 31.9083C178.563 31.6507 177.992 30.8602 177.224 30.6426C176.456 30.4249 175.74 29.9142 174.958 29.741C174.176 29.5678 173.104 30.7669 172.309 30.6337C171.513 30.5004 170.811 30.0519 170.015 29.9631C169.219 29.8742 168.484 29.2303 167.679 29.1814C166.874 29.1326 166.073 28.7728 165.268 28.7639C164.463 28.7551 163.709 30.234 162.904 30.2695C162.099 30.305 161.106 29.7366 160.301 29.8121C159.959 29.1103 158.775 28.644 158.4 27.9645C158.026 27.285 158.677 26.077 158.26 25.4197C157.843 24.7624 157.015 24.3494 156.565 23.7099C156.116 23.0704 155.278 22.7195 154.796 22.1022C154.314 21.4849 155.025 19.9793 154.51 19.3842C153.995 18.7891 153.223 18.3672 152.675 17.7987C152.128 17.2302 150.503 17.6699 149.923 17.1281C149.342 16.5862 149.965 14.8497 149.356 14.339C148.748 13.8283 148.074 13.3442 147.442 12.8601C146.81 12.376 146.44 11.4967 145.78 11.0437C145.12 10.5907 143.673 11.1947 142.994 10.7727C142.316 10.3508 141.852 9.59584 141.15 9.20946C140.448 8.82307 139.994 7.94816 139.273 7.59731C138.552 7.24646 137.686 7.0999 136.946 6.78014C136.206 6.46037 134.877 7.49961 134.119 7.21981C133.36 6.94002 133.07 5.47887 132.298 5.23461C131.525 4.99034 130.753 4.69723 129.966 4.49293C129.18 4.28864 128.304 4.40411 127.509 4.23534C126.713 4.06658 125.926 3.84008 125.126 3.71129C124.325 3.58249 123.553 3.13393 122.743 3.04511C121.933 2.95629 121.006 4.29308 120.192 4.23979C119.377 4.18649 118.628 3.6047 117.814 3.59582C116.999 3.58693 116.231 4.16429 115.417 4.19093C114.602 4.21758 113.703 2.75199 112.889 2.81861C112.074 2.88523 111.297 3.35155 110.487 3.45814C109.701 3.56029 108.947 3.8534 108.175 3.99552C107.402 4.13764 106.616 4.26199 105.853 4.43964C105.09 4.61729 104.322 4.82602 103.568 5.0392C102.815 5.25237 102.192 5.85193 101.448 6.0962C100.703 6.34046 99.8982 6.4204 99.1726 6.70019C98.447 6.97999 98.124 8.09916 97.4125 8.41449C96.7009 8.72981 95.3387 7.78384 94.6411 8.13025C93.9436 8.47666 93.1431 8.71205 92.469 9.08955C91.7949 9.46705 91.5936 10.5995 90.9382 11.0081C90.2829 11.4167 89.3372 11.4478 88.7053 11.8875C88.0733 12.3272 87.226 12.5537 86.6174 13.0244C86.0088 13.4952 85.0819 13.6817 84.4968 14.1836C83.9116 14.6854 84.5576 16.4308 84.0006 16.9593C83.4435 17.4878 82.6383 17.7543 82.1093 18.3094C81.5803 18.8646 80.9811 19.3398 80.4802 19.9171C79.9793 20.4945 79.2444 20.8942 78.7715 21.4937C78.2987 22.0933 77.7885 22.3687 77.3531 22.9904C76.5854 22.7195 75.621 23.8387 74.8299 23.6166C74.0387 23.3946 73.4957 22.4486 72.6905 22.2843C71.8853 22.1199 71.2674 20.8542 70.4529 20.7432C69.6383 20.6322 68.6272 22.2221 67.8033 22.1644C66.9793 22.1066 66.2256 21.9601 65.397 21.9601C64.5685 21.9601 63.7305 20.9075 62.9019 20.9608C62.0733 21.0141 61.3899 22.1333 60.5706 22.2399C59.7608 22.3464 58.7496 21.3383 57.9632 21.4937C57.1767 21.6492 56.4511 22.2399 55.674 22.4486C54.8969 22.6573 53.8062 22.1244 53.0478 22.3864C52.2894 22.6484 51.9102 23.9275 51.1706 24.2428C50.4309 24.5581 49.8083 25.0866 49.0921 25.4464C48.3759 25.8061 47.9498 26.5789 47.2617 26.9875C46.5735 27.3961 46.0914 27.9912 45.4313 28.4397C44.7712 28.8883 42.8285 27.778 42.2059 28.271C41.5833 28.7639 41.1479 29.55 40.5628 30.083C39.9776 30.6159 39.2941 31.1311 38.7464 31.704C38.1987 32.2769 37.4731 32.7788 36.9675 33.3828C36.4619 33.9868 37.0565 35.3946 36.593 36.0297C36.1296 36.6648 35.0295 36.909 34.6081 37.5708C34.1868 38.2325 33.8779 38.9742 33.5033 39.6626C33.1288 40.351 33.7749 41.4746 33.4472 42.1852C33.1195 42.8957 31.6402 43.1533 31.364 43.8817C31.0878 44.61 30.4605 45.2673 30.2358 46.0134C30.0111 46.7596 31.158 47.8388 30.9848 48.5938C30.8116 49.3488 30.1375 49.9972 30.0111 50.7611C29.8847 51.5249 29.6881 52.2799 29.6132 53.0527C29.5383 53.8255 28.7331 54.0431 28.7144 54.8158L28.7659 54.8336Z" fill="white"/>
<path d="M29.9185 55.4826C29.9372 54.706 29.2778 53.8318 29.348 53.0685C29.4181 52.3052 30.4937 51.6352 30.6153 50.8763C30.7369 50.1175 30.2505 49.2433 30.4282 48.4934C30.6059 47.7434 31.8405 47.2553 32.065 46.5186C32.2895 45.782 31.7236 44.8146 31.9995 44.0913C32.2754 43.3679 33.4212 42.9952 33.7438 42.2896C34.0665 41.584 32.7618 40.1374 33.1359 39.454C33.51 38.7706 34.7773 38.5221 35.1982 37.8653C35.6191 37.2086 35.9137 36.4631 36.3767 35.8285C36.8396 35.1939 37.0594 34.3641 37.5691 33.7606C38.0789 33.1571 38.5418 32.4737 39.089 31.9057C39.6361 31.3376 41.1232 31.6394 41.7125 31.1069C42.3017 30.5744 43.0967 30.3436 43.7186 29.8511C44.3406 29.3585 44.5744 28.4665 45.2338 28.0139C45.8932 27.5613 46.4543 27.0199 47.1465 26.6072C47.8386 26.1945 48.4699 25.733 49.1901 25.3691C49.9102 25.0052 50.2048 23.7804 50.9531 23.4654C51.7013 23.1503 52.8517 23.7582 53.6186 23.492C54.3856 23.2257 54.8298 21.9521 55.6155 21.7436C56.4011 21.535 57.4018 22.0231 58.2015 21.8634C59.0012 21.7036 59.9178 22.3205 60.7268 22.214C61.5452 22.1075 62.3355 22.174 63.1492 22.1208C63.9629 22.0675 64.7438 22.1962 65.5622 22.1962C66.3806 22.1962 67.199 21.5838 68.0127 21.6371C68.8264 21.6903 69.5512 22.3471 70.3602 22.458C71.1692 22.569 72.1887 21.575 72.9884 21.7391C73.788 21.9033 74.6579 21.9788 75.4435 22.1962C76.2291 22.4137 76.7997 23.0172 77.5666 23.2879C78.0062 22.6666 78.3476 22.1075 78.8152 21.5084C79.2828 20.9093 79.2595 19.9064 79.7598 19.3295C80.2602 18.7526 80.8214 18.1713 81.3498 17.6211C81.8782 17.0708 82.4207 16.4717 82.9819 15.9437C83.5431 15.4156 85.0068 15.7839 85.596 15.2825C86.1852 14.781 86.4471 13.9423 87.0597 13.4675C87.6723 12.9927 88.7432 13.108 89.3746 12.6643C90.0059 12.2205 90.0106 10.9292 90.6699 10.5165C91.3293 10.1038 92.2459 10.0727 92.9286 9.69109C93.6114 9.30946 94.0603 8.52844 94.7571 8.18231C95.4539 7.83618 96.2629 7.66311 96.9784 7.34804C97.6939 7.03297 98.8771 7.78293 99.6066 7.49892C100.336 7.21491 100.359 5.15144 101.103 4.90293C101.847 4.65443 102.67 4.4858 103.427 4.27723C104.185 4.06866 105.242 4.85412 106.009 4.67661C106.776 4.49911 107.351 3.40303 108.127 3.26546C108.903 3.1279 109.862 3.97548 110.648 3.86897C111.457 3.76247 112.312 4.24173 113.117 4.17517C113.921 4.1086 114.66 2.93264 115.469 2.90158C116.278 2.87052 117.124 2.80839 117.929 2.81727C118.733 2.82614 119.486 4.28167 120.295 4.33048C121.104 4.3793 121.969 3.62047 122.774 3.70922C123.578 3.79797 124.56 2.9282 125.355 3.05689C126.15 3.18558 126.767 4.35267 127.558 4.5213C128.348 4.68993 129.059 5.13812 129.84 5.34225C130.621 5.54638 131.715 4.81418 132.482 5.05825C133.249 5.30231 133.441 7.05516 134.193 7.33473C134.946 7.6143 135.685 7.82286 136.424 8.14237C137.163 8.46188 137.864 8.7592 138.585 9.10977C139.305 9.46033 139.922 9.90409 140.623 10.2902C141.325 10.6762 142.789 9.86859 143.467 10.2902C144.145 10.7117 144.687 11.3552 145.347 11.8078C146.006 12.2605 145.786 13.7648 146.418 14.2485C147.049 14.7322 148.139 14.6479 148.742 15.1582C149.345 15.6685 150.809 15.3357 151.384 15.8771C151.959 16.4185 151.735 17.7142 152.282 18.2823C152.829 18.8503 153.11 19.6135 153.629 20.2082C154.148 20.8028 155.13 21.0336 155.616 21.6504C156.102 22.2672 156.799 22.7553 157.253 23.3944C157.706 24.0334 157.459 25.0851 157.875 25.7507C158.291 26.4164 159.217 26.7936 159.596 27.4769C159.975 28.1603 160.47 28.431 160.812 29.1322C161.611 29.0567 162.088 29.0656 162.883 29.0301C163.678 28.9946 164.515 28.7239 165.31 28.7283C166.105 28.7328 166.9 29.5981 167.695 29.6469C168.49 29.6957 169.173 30.6764 169.963 30.7652C170.754 30.8539 171.689 29.8954 172.475 30.0286C173.26 30.1617 174.214 29.6558 174.991 29.8289C175.767 30.0019 176.595 30.1794 177.361 30.3924C178.128 30.6054 178.549 31.879 179.298 32.1364C180.046 32.3938 181.313 31.4575 182.047 31.7548C182.781 32.0521 183.104 33.2813 183.82 33.6141C184.535 33.9469 185.045 34.6348 185.742 35.0075C186.438 35.3803 187.107 35.7575 187.776 36.1657C188.445 36.574 189.436 36.5429 190.081 36.9911C190.727 37.4393 191.9 37.2929 192.518 37.7766C193.135 38.2603 192.377 40.2306 192.962 40.7498C193.547 41.269 195.632 40.3415 196.184 40.8918C196.736 41.442 196.642 42.5914 197.161 43.1727C197.681 43.754 197.681 44.7125 198.158 45.3205C198.635 45.9284 200.225 45.8175 200.664 46.4521C201.104 47.0866 201.749 47.6724 202.147 48.3336C202.544 48.9948 202.282 50.0332 202.633 50.7166C202.984 51.4 202.689 52.3585 202.993 53.0641C203.297 53.7697 203.302 54.5462 203.559 55.2696C203.816 55.9929 204.05 56.6763 204.26 57.4129C204.471 58.1495 205.27 58.7264 205.429 59.4764C205.588 60.2263 206.206 60.9053 206.318 61.6641C206.411 62.3076 205.944 63.022 206 63.661C206.056 64.3001 206.257 64.9479 206.276 65.5869C206.295 66.226 206.453 66.581 206.435 67.22C207.225 67.322 207.506 68.7776 208.277 68.893C209.049 69.0083 210.209 67.1845 210.976 67.322C211.743 67.4596 212.425 68.2273 213.183 68.3915C213.94 68.5557 214.417 69.9269 215.175 70.1089C215.933 70.2908 216.821 70.0467 217.565 70.2597C218.308 70.4727 219.594 69.248 220.328 69.4876C221.063 69.7272 221.329 71.3292 222.054 71.5999C222.779 71.8706 223.335 72.5451 224.042 72.8513C224.748 73.1575 226.08 72.3321 226.763 72.6738C227.446 73.0155 228.236 73.3572 228.896 73.7388C229.555 74.1204 229.326 75.8467 229.948 76.2727C230.603 76.7209 232.394 75.7756 232.978 76.2549C233.591 76.7564 232.796 78.6113 233.32 79.1438C233.871 79.7074 234.98 79.7162 235.429 80.3109C235.878 80.9055 235.952 81.7131 236.308 82.3699C236.663 83.0267 237.463 83.4882 237.706 84.1938C237.949 84.8993 238.033 85.6404 238.146 86.3859C238.258 87.1492 237.931 87.877 237.898 88.6402C237.865 89.4035 239.193 90.362 239.025 91.1164C238.856 91.8708 237.196 92.2214 236.911 92.9536C236.626 93.6858 237.772 95.0037 237.388 95.7004C237.005 96.3971 234.886 96.0554 234.428 96.7078C233.97 97.3601 234.241 98.4029 233.722 99.0109C233.203 99.6188 232.581 100.058 232.015 100.631C231.449 101.203 231.486 102.29 230.883 102.823C230.28 103.355 229.003 103.093 228.367 103.595C227.731 104.096 227.31 104.753 226.651 105.219C225.992 105.685 226.043 107.052 225.365 107.491C224.687 107.93 222.957 106.772 222.26 107.185C221.563 107.598 220.89 107.908 220.179 108.294C219.468 108.68 218.874 109.133 218.149 109.497C217.424 109.861 217.607 111.835 216.873 112.177C216.138 112.519 215.245 112.537 214.506 112.856C213.767 113.176 212.556 112.435 211.803 112.736C211.05 113.038 210.48 113.673 209.722 113.957C208.965 114.241 207.964 113.815 207.197 114.081C206.43 114.347 206.187 115.949 205.415 116.198C204.644 116.446 203.919 116.81 203.138 117.041C202.357 117.272 201.436 117.005 200.655 117.218C199.874 117.431 199.144 117.786 198.359 117.986C197.573 118.186 196.745 118.177 195.955 118.359C195.165 118.541 194.407 118.811 193.617 118.98C192.826 119.149 192.022 119.246 191.227 119.397C190.432 119.548 189.768 120.351 188.968 120.489C188.169 120.626 187.182 119.681 186.378 119.801C185.573 119.921 184.82 120.258 184.016 120.365C183.235 120.467 182.557 121.385 181.781 121.474C181.004 121.563 180.046 120.227 179.269 120.302C178.493 120.378 177.764 121.017 176.983 121.079C176.202 121.141 175.435 121.518 174.654 121.563C173.873 121.607 173.069 121.518 172.288 121.549C171.507 121.58 170.684 120.564 169.903 120.582C169.122 120.6 168.345 121.403 167.564 121.403C166.783 121.403 165.988 121.341 165.212 121.323C164.436 121.305 163.608 121.989 162.827 121.958C162.046 121.927 161.275 121.323 160.498 121.274C159.722 121.225 158.913 121.283 158.137 121.217C157.36 121.15 156.514 121.452 155.742 121.367C154.971 121.283 154.288 120.32 153.521 120.218C152.754 120.116 151.889 120.436 151.127 120.311C150.364 120.187 149.752 119.175 148.994 119.029C148.237 118.882 147.507 118.585 146.754 118.421C146.001 118.257 144.757 119.801 144.014 119.606C143.27 119.41 142.452 119.211 141.713 118.993C140.974 118.776 140.418 117.866 139.688 117.622C138.959 117.378 138.697 115.936 137.986 115.656C137.275 115.377 136.148 114.986 135.451 114.676C134.736 114.937 133.946 116.202 133.216 116.446C132.487 116.69 132.07 117.835 131.331 118.061C130.593 118.288 129.395 117.09 128.652 117.303C127.908 117.516 127.441 118.594 126.688 118.785C125.935 118.976 124.883 117.95 124.125 118.124C123.367 118.297 122.671 118.567 121.913 118.718C121.156 118.869 120.473 119.268 119.711 119.406C118.948 119.544 118.406 120.83 117.639 120.95C116.872 121.07 116.04 120.795 115.273 120.897C114.454 121.004 113.734 121.94 112.925 122.024C112.116 122.109 111.218 121.771 110.404 121.838C109.591 121.904 108.641 120.316 107.823 120.365C107.005 120.413 106.224 120.888 105.405 120.915C104.587 120.941 103.783 121.625 102.964 121.634C102.146 121.643 101.327 121.066 100.509 121.048C99.6907 121.03 98.8303 121.922 98.0166 121.887C97.2029 121.851 96.3939 121.35 95.5802 121.292C94.7665 121.234 93.8686 121.807 93.0549 121.722C92.2412 121.638 91.3995 121.536 90.5904 121.434C89.7814 121.332 89.094 120.325 88.2896 120.196C87.4853 120.067 86.6202 120.187 85.8205 120.036C85.0208 119.885 84.1463 119.97 83.3513 119.792C82.5563 119.615 81.8923 119.677 81.1066 119.477C80.3865 119.854 79.3436 119.202 78.6001 119.552C77.8565 119.903 77.0428 120.018 76.2853 120.338C75.5277 120.657 74.6953 120.68 73.9237 120.968C73.1521 121.256 72.993 123.04 72.2074 123.302C71.4218 123.564 70.6315 123.835 69.8411 124.061C69.0508 124.287 68.2745 124.638 67.4702 124.838C66.6658 125.037 65.5809 124.079 64.7672 124.247C63.9535 124.416 63.0744 124.048 62.2607 124.19C61.447 124.332 60.9279 126.16 60.1048 126.267C59.3145 126.373 58.3184 124.86 57.5328 124.935C56.7471 125.011 56.0831 126.59 55.2928 126.639C54.5025 126.688 53.656 126.151 52.8657 126.169C52.0754 126.187 51.2664 126.249 50.4761 126.24C49.6858 126.231 48.9095 125.592 48.1191 125.552C47.3288 125.512 46.5666 125.241 45.7809 125.175C44.9953 125.108 44.2424 124.869 43.4614 124.771C42.6805 124.673 41.8808 124.767 41.0998 124.638C40.3189 124.509 39.1872 126.005 38.4156 125.845C37.644 125.685 37.0033 124.802 36.241 124.616C35.4788 124.429 34.7773 123.937 34.0197 123.719C33.2622 123.502 32.3082 123.768 31.5646 123.515C30.8211 123.262 30.0728 122.916 29.3386 122.637C28.6044 122.357 27.5896 122.57 26.8742 122.255C26.1587 121.94 25.4151 121.532 24.7137 121.181C24.0122 120.83 23.6334 119.841 22.9506 119.464C22.2679 119.087 22.2819 117.644 21.6225 117.232C20.9632 116.819 20.0933 116.735 19.4574 116.291C18.8214 115.847 18.5735 114.977 17.9609 114.498C17.3483 114.019 16.7965 113.557 16.2166 113.047C15.6367 112.537 13.9906 113.069 13.4435 112.528C12.8963 111.986 12.3352 111.405 11.8254 110.833C11.3157 110.26 11.9844 108.809 11.5121 108.206C11.0398 107.602 10.5534 107.074 10.1279 106.439C9.70233 105.805 7.67276 106.071 7.28929 105.41C6.90583 104.749 7.68679 103.511 7.35477 102.823C7.02274 102.135 6.60187 101.509 6.32128 100.804C6.0407 100.098 4.67986 99.7076 4.45539 98.9842C4.23093 98.2609 4.00178 97.471 3.8381 96.7299C3.67443 95.9889 3.6791 95.1679 3.57154 94.4135C3.45931 93.6414 3.05245 92.8293 3.001 92.0572C2.94956 91.285 4.71725 90.4419 4.72661 89.6697C4.73596 88.8976 4.24961 88.121 4.31976 87.3489C4.38991 86.5767 5.27375 85.9333 5.40469 85.17C5.53563 84.4068 5.35793 83.6346 5.54966 82.8758C5.74139 82.117 4.94641 81.1141 5.18958 80.373C5.43276 79.6319 7.15368 79.41 7.45297 78.6823C7.75226 77.9545 7.04612 76.8673 7.39685 76.1617C7.74759 75.4561 8.55193 74.9946 8.94475 74.3157C9.33757 73.6367 9.9455 73.122 10.3851 72.4608C10.8247 71.7996 11.0772 71.0807 11.5542 70.4461C12.0312 69.8115 11.7179 68.6223 12.2323 68.0143C12.7467 67.4064 14.5144 67.8457 15.0662 67.2688C15.618 66.6919 15.777 65.8399 16.3569 65.2852C16.9368 64.7305 16.717 63.4037 17.3249 62.88C17.9328 62.3564 19.4012 62.8046 20.0372 62.3076C20.6732 61.8106 20.1588 59.9335 20.8182 59.4675C21.4776 59.0016 22.7916 59.3876 23.4697 58.9528C24.1478 58.5179 24.3629 57.3774 25.0644 56.9692C25.7658 56.5609 26.6824 56.4721 27.4026 56.0905C28.1228 55.7089 29.1703 55.8243 29.9045 55.4737L29.9185 55.4826Z" stroke="#7FD5FF" stroke-width="5" stroke-miterlimit="10"/>
</svg>
