<svg width="465" height="201" viewBox="0 0 465 201" fill="none" xmlns="http://www.w3.org/2000/svg">
<path d="M379.384 17.2747C380.872 17.2747 382.437 14.3338 383.899 14.4106C385.36 14.4874 386.621 16.9215 388.083 17.0827C389.544 17.244 391.197 16.1997 392.649 16.4378C394.102 16.6758 395.181 18.3267 396.616 18.6338C398.051 18.9409 400.078 17.3438 401.487 17.7277C402.896 18.1117 403.618 20.2616 405.001 20.7223C406.384 21.183 408.898 19.2634 410.246 19.7933C411.595 20.3231 411.656 23.2716 412.96 23.8705C414.265 24.4695 416.083 24.2084 417.353 24.8687C418.623 25.5291 420.137 25.8746 421.372 26.5964C422.607 27.3182 424.373 27.441 425.556 28.2165C426.739 28.9921 426.426 31.4569 427.556 32.2938C428.687 33.1308 430.288 33.4533 431.375 34.344C432.462 35.2347 434.663 35.1426 435.689 36.0717C436.716 37.0008 435.289 39.9263 436.272 40.9091C437.255 41.892 438.334 42.6828 439.256 43.7041C440.178 44.7253 443.753 43.9728 444.614 45.0325C445.475 46.0921 444.127 48.4955 444.927 49.5935C445.727 50.6915 447.415 51.2827 448.154 52.4115C448.894 53.5402 450.016 54.5 450.694 55.6518C451.373 56.8036 450.546 58.608 451.173 59.7905C451.799 60.973 452.443 62.094 453.008 63.3073C453.573 64.5205 454.156 65.6645 454.661 66.8931C455.165 68.1217 458.01 68.6591 458.453 69.9107C458.897 71.1623 455.861 73.2662 456.244 74.5255C456.627 75.7848 456.67 77.0287 456.983 78.3034C457.296 79.578 457.723 80.7451 457.975 82.0351C458.227 83.3251 459.045 84.4615 459.227 85.7591C459.41 87.0568 461.559 88.1395 461.68 89.4448C461.802 90.7502 462.889 92.0248 462.95 93.3301C463.011 94.6355 462.672 95.9869 462.672 97.2999C462.672 98.613 461.489 99.9183 461.428 101.208C461.367 102.498 463.116 103.957 462.994 105.247C462.872 106.537 462.124 107.858 461.941 109.14C461.759 110.422 460.35 111.597 460.106 112.88C459.862 114.162 457.488 115.06 457.183 116.327C456.879 117.594 456.609 118.815 456.235 120.067C455.861 121.318 457.357 123.031 456.922 124.267C456.487 125.503 456.766 126.993 456.27 128.214C455.774 129.434 453.182 129.949 452.625 131.154C452.069 132.36 454.113 134.587 453.495 135.761C452.878 136.936 450.773 137.52 450.085 138.672C449.398 139.823 450.477 141.889 449.737 143.01C448.998 144.131 445.693 143.908 444.892 144.991C444.092 146.074 443.901 147.525 443.048 148.585C442.196 149.644 443.022 151.886 442.1 152.9C441.178 153.913 439.056 154.128 438.081 155.104C437.107 156.079 434.358 155.58 433.332 156.516C432.306 157.453 433.863 160.724 432.784 161.615C431.706 162.506 428.992 161.807 427.861 162.644C426.73 163.481 426.826 165.738 425.651 166.522C424.477 167.305 421.189 165.447 419.963 166.168C418.736 166.89 419.258 170.054 417.997 170.714C416.735 171.374 414.831 171.121 413.517 171.712C412.204 172.303 409.968 171.098 408.62 171.62C407.272 172.142 407.367 175.774 405.993 176.235C404.618 176.696 402.992 176.795 401.583 177.179C400.174 177.563 397.868 175.014 396.433 175.329C394.998 175.644 393.998 177.394 392.536 177.632C391.075 177.87 389.605 177.732 388.135 177.886C386.665 178.039 385.343 179.613 383.864 179.69C382.385 179.767 380.863 178.577 379.384 178.577C378.027 178.577 376.609 180.005 375.27 179.944C373.93 179.882 372.834 177.156 371.503 177.026C370.173 176.895 368.772 177.532 367.441 177.333C366.11 177.133 364.893 176.657 363.588 176.396C362.283 176.135 360.778 177.371 359.482 177.049C358.186 177.579 356.968 177.955 355.611 178.316C354.254 178.677 352.645 178.147 351.227 178.339C349.809 178.531 348.47 179.682 347.026 179.682C345.582 179.682 344.512 176.972 343.138 176.795C341.763 176.619 340.006 178.369 338.667 178.016C337.327 177.663 336.283 176.634 335.005 176.12C333.726 175.605 333.074 177.172 331.873 176.511C331.325 177.809 330.264 177.494 329.568 178.669C328.872 179.844 328.663 181.487 327.794 182.577C326.924 183.668 325.001 184.182 323.975 185.173C322.949 186.163 320.426 185.656 319.252 186.532C318.077 187.407 318.939 190.609 317.651 191.361C316.364 192.114 315.242 193.396 313.867 194.018C312.493 194.64 309.483 191.983 308.039 192.482C306.595 192.982 306.213 196.045 304.725 196.422C303.238 196.798 301.75 197.474 300.237 197.75C298.723 198.026 297.088 198.072 295.548 198.249C294.009 198.426 292.243 196.13 290.703 196.214C289.164 196.299 287.729 198.441 286.18 198.441C284.632 198.441 283.284 196.752 281.84 196.683C280.396 196.614 278.604 199.14 277.169 198.994C275.733 198.848 274.394 197.235 272.976 197.005C271.558 196.775 269.905 196.936 268.514 196.614C267.122 196.291 266.565 193.496 265.208 193.066C263.851 192.636 262.216 192.928 260.911 192.383C259.606 191.837 258.293 191.338 257.066 190.67C255.84 190.002 253.326 190.786 252.187 189.979C251.047 189.173 250.142 187.914 249.125 186.977C248.107 186.04 246.968 185.042 246.098 183.998C245.228 182.953 243.975 181.955 243.262 180.804C242.549 179.652 244.184 177.556 243.636 176.327C243.088 175.098 241.444 174.3 241.061 173.025C240.696 171.812 241.922 170.292 241.688 168.979C241.461 167.742 239.556 168.08 239.452 166.752C238.478 167.719 237.852 166.936 236.756 167.804C235.66 168.672 235.172 170.2 233.972 170.96C232.772 171.72 230.554 170.998 229.275 171.658C227.996 172.319 227.231 173.609 225.891 174.177C224.552 174.745 223.229 175.144 221.838 175.621C220.446 176.097 218.828 175.644 217.41 176.035C215.992 176.427 215.183 178.431 213.739 178.753C212.295 179.076 210.599 178.085 209.138 178.346C207.677 178.607 206.633 180.596 205.163 180.796C203.693 180.995 202.005 179.345 200.526 179.49C199.048 179.636 197.899 182.339 196.421 182.447C194.942 182.554 193.315 180.197 191.837 180.266C190.358 180.335 188.975 181.341 187.487 181.372C186 181.402 184.565 179.352 183.086 179.352C181.607 179.352 180.042 182.086 178.563 182.024C177.084 181.963 175.449 182.677 173.97 182.562C172.491 182.447 171.369 179.13 169.908 178.961C168.446 178.792 166.359 181.832 164.906 181.602C163.454 181.372 162.036 180.404 160.6 180.12C159.165 179.836 157.921 178.546 156.495 178.193C155.068 177.84 153.911 176.634 152.511 176.219C151.11 175.805 148.971 177.018 147.596 176.542C146.222 176.066 144.465 176.058 143.125 175.505C141.786 174.952 142.073 171.443 140.777 170.821C139.481 170.2 138.298 169.508 137.062 168.817C135.827 168.126 133.722 170.13 132.539 169.355C131.548 170.269 131.591 170.944 130.512 171.766C129.434 172.588 128.042 173.34 126.868 174.054C125.694 174.768 123.432 174.07 122.171 174.668C120.909 175.267 119.987 176.557 118.665 177.033C117.343 177.509 115.247 175.843 113.864 176.189C112.481 176.534 111.559 178.201 110.141 178.4C108.723 178.6 107.357 178.884 105.913 178.945C104.548 179.529 103.191 180.12 101.781 180.65C100.372 181.18 99.0936 181.978 97.6584 182.447C96.2231 182.915 94.9444 183.821 93.4831 184.228C92.0218 184.635 90.5778 185.173 89.0991 185.526C87.6203 185.879 86.0807 186.102 84.5846 186.393C83.0884 186.685 81.514 186.716 80.0092 186.954C78.5043 187.192 76.7733 186.01 75.2511 186.178C73.7289 186.347 72.224 186.048 70.6931 186.163C69.1622 186.278 67.8313 188.743 66.3004 188.797C64.7695 188.851 63.2037 188.236 61.6728 188.236C60.1419 188.236 58.7588 186.217 57.2801 186.163C55.8013 186.109 54.2182 187.614 52.7482 187.507C51.2781 187.399 49.8603 186.662 48.3902 186.501C46.9202 186.34 45.3719 186.578 43.9192 186.363C42.4666 186.148 41.0487 185.633 39.6048 185.357C38.1608 185.08 37.0822 183.529 35.647 183.199C34.2117 182.869 31.7675 185.603 30.3496 185.211C28.9318 184.819 28.2359 182.401 26.8441 181.963C25.4524 181.525 23.2343 182.831 21.8686 182.332C20.503 181.832 19.6592 180.128 18.3284 179.567C16.9975 179.007 15.1621 179.206 13.8486 178.6C12.5352 177.993 12.8831 174.776 11.6044 174.108C10.3258 173.44 8.27292 173.954 7.03774 173.233C5.80256 172.511 5.12408 171.129 3.93239 170.353C2.7407 169.578 0.914022 169.562 -0.234177 168.733C-1.38237 167.904 -2.21742 166.767 -3.31343 165.892C-4.40944 165.017 -7.02768 165.47 -8.06279 164.54C-9.09791 163.611 -10.0112 162.46 -10.9855 161.477C-11.9597 160.494 -12.412 159.043 -13.3254 158.014C-14.2387 156.985 -14.0212 155.211 -14.8563 154.136C-15.6913 153.061 -18.327 152.961 -19.0924 151.84C-19.8579 150.719 -21.0844 149.706 -21.7629 148.538C-22.4414 147.371 -21.3193 145.39 -21.9194 144.185C-22.5196 142.979 -22.9633 141.735 -23.4678 140.499C-23.9723 139.263 -23.4243 137.773 -23.8244 136.514C-24.2245 135.255 -26.6079 134.433 -26.9211 133.143C-27.2342 131.853 -28.078 130.586 -28.278 129.289C-28.4781 127.991 -27.8344 126.547 -27.9388 125.234C-28.0432 123.921 -29 122.585 -29 121.264C-29 119.944 -27.2168 118.662 -27.1124 117.364C-27.0081 116.066 -25.6772 114.914 -25.4771 113.632C-25.2771 112.35 -24.4246 111.244 -24.1202 109.977C-23.8157 108.71 -23.9288 107.443 -23.5287 106.192C-23.1285 104.94 -22.7023 103.781 -22.2065 102.56C-21.7107 101.339 -22.6327 99.6572 -22.0499 98.4594C-21.4671 97.2616 -21.441 95.8103 -20.7713 94.6509C-20.1015 93.4914 -19.5883 92.2014 -18.8315 91.0727C-18.0747 89.944 -15.4043 89.9209 -14.5779 88.8382C-13.7516 87.7556 -12.499 87.0568 -11.5944 86.0202C-10.6897 84.9836 -10.3592 83.6476 -9.38496 82.6571C-8.41073 81.6665 -7.56698 80.6683 -6.53186 79.7316C-5.49675 78.7948 -6.47098 76.0229 -5.37497 75.1321C-4.27896 74.2414 -3.06987 73.3661 -1.93038 72.5368C-0.790876 71.7075 2.27098 73.0205 3.46267 72.2373C4.65436 71.4541 5.42852 70.2486 6.66371 69.5192C7.89889 68.7897 9.16887 68.1984 10.4475 67.5227C11.7262 66.847 12.1959 64.9505 13.5007 64.3362C14.8055 63.7219 17.1019 64.8583 18.4414 64.2901C19.781 63.7219 20.503 62.0249 21.8686 61.5181C23.2343 61.0114 25.3219 62.2323 26.7137 61.7869C28.1054 61.3416 28.4447 58.2318 29.8625 57.8402C31.2804 57.4486 32.6112 56.6346 34.0465 56.2891C35.4817 55.9436 37.4737 57.5484 38.9176 57.2643C40.3616 56.9802 41.4924 55.2679 42.9537 55.0375C44.415 54.8071 46.1286 55.9666 47.5987 55.7977C49.0687 55.6288 50.3213 53.6093 51.8 53.4865C53.2788 53.3636 55.9144 56.0434 57.4019 55.9743C57.6454 54.669 56.8973 52.3884 57.2801 51.1138C57.6628 49.8392 57.9673 48.5262 58.4805 47.2899C58.9937 46.0537 61.0552 45.4394 61.6989 44.2492C62.3426 43.0591 59.9766 40.41 60.7421 39.2736C61.5075 38.1372 62.9602 37.2388 63.8387 36.1715C64.7173 35.1042 67.8487 35.6186 68.8316 34.6204C69.8146 33.6222 69.7189 31.7947 70.7888 30.8733C71.8587 29.9519 73.6245 29.7676 74.7901 28.9306C75.9557 28.0937 76.6951 26.8498 77.9302 26.0973C79.1654 25.3448 80.3919 24.6384 81.688 23.9704C82.984 23.3023 83.8191 21.8588 85.1761 21.2906C86.533 20.7224 87.9596 20.1925 89.3513 19.7164C90.7431 19.2404 92.8916 20.7838 94.3355 20.3998C95.7795 20.0159 96.9016 18.9563 98.3716 18.6722C99.8417 18.3881 101.312 18.58 102.799 18.3881C104.287 18.1961 105.557 16.7372 107.061 16.6374C108.566 16.5376 110.062 16.3686 111.567 16.3686C113.072 16.3686 114.464 16.6067 115.882 16.6988C117.299 16.7909 118.517 18.4879 119.926 18.6568C121.336 18.8257 122.562 19.4477 123.954 19.7164C125.346 19.9852 127.755 16.7833 129.121 17.1365C130.486 17.4897 130.66 21.1523 131.991 21.59C133.322 22.0277 134.766 22.0507 136.053 22.5806C137.341 23.1104 138.419 23.8628 139.663 24.4694C140.907 25.076 143.186 23.4636 144.378 24.1546C145.735 23.9934 146.831 26.3737 148.231 26.3737C149.823 26.3737 151.685 23.4405 153.224 23.6555C154.764 23.8705 156.173 25.4216 157.669 25.8439C159.165 26.2662 160.418 27.3028 161.836 27.9171C163.253 28.5314 164.506 29.3146 165.82 30.0978C167.133 30.881 168.655 30.7965 169.847 31.7256C170.804 31.1497 173.187 32.386 174.187 31.8715C174.735 30.5892 175.144 28.8999 175.831 27.6867C176.519 26.4735 175.997 24.7228 176.823 23.5787C177.649 22.4347 177.51 20.6072 178.467 19.5399C179.424 18.4725 181.338 18.0656 182.416 17.0904C183.495 16.1152 183.973 14.4874 185.156 13.6121C186.339 12.7367 187.922 12.1992 189.201 11.4314C190.48 10.6635 191.297 9.0357 192.654 8.38303C194.011 7.73036 195.76 7.4923 197.186 6.96248C198.613 6.43267 200.927 8.11424 202.414 7.71496C203.901 7.31568 204.693 4.55144 206.224 4.2827C207.755 4.01395 209.347 3.28451 210.895 3.14629C212.443 3.00808 214.166 6.77052 215.723 6.77052C217.28 6.77052 218.932 3.87575 220.446 4.00628C221.959 4.13682 223.56 4.65896 225.056 4.92771C226.552 5.19646 228.074 5.75696 229.536 6.14856C230.997 6.54017 233.059 5.87983 234.468 6.40197C235.877 6.9241 236.155 9.72674 237.495 10.3717C238.834 11.0167 240.609 11.0321 241.879 11.7846C243.149 12.5371 243.627 14.188 244.802 15.0556C245.976 15.9233 246.454 17.2901 247.524 18.2576C248.594 19.225 251.16 18.9486 252.117 20.0082C253.074 21.0679 254.97 21.6361 255.805 22.7802C256.64 23.9243 255.953 26.6885 256.649 27.9017C257.875 27.0878 258.441 24.1009 259.737 23.3791C261.033 22.6573 262.459 21.8741 263.816 21.2368C265.173 20.5995 266.722 20.039 268.14 19.5015C269.557 18.964 272.237 21.3904 273.698 20.9604C275.159 20.5304 276.177 19.1099 277.673 18.7797C279.169 18.4495 280.674 18.5186 282.196 18.2959C283.719 18.0733 285.128 17.6433 286.667 17.5281C288.207 17.4129 289.668 16.3226 291.217 16.3226C292.765 16.3226 294.252 16.0615 295.714 16.1613C297.175 16.2611 298.419 18.2268 299.863 18.4265C301.307 18.6261 303.247 16.8293 304.673 17.1288C306.1 17.4283 307.822 17.2901 309.222 17.6894C310.623 18.0886 310.797 21.4902 312.163 21.9816C313.528 22.473 316.207 20.4459 317.521 21.0295C318.834 21.613 319.339 23.5941 320.609 24.2698C321.879 24.9455 323.018 25.7518 324.219 26.5119C325.419 27.2721 325.854 28.8078 326.985 29.6448C328.115 30.4817 330.229 29.1226 331.29 30.0287C332.413 29.2148 332.508 28.4776 333.674 27.7175C334.839 26.9573 336.162 26.2432 337.371 25.5444C338.58 24.8457 341.572 26.6732 342.825 26.0282C344.077 25.3832 345.251 24.7843 346.548 24.2007C347.844 23.6171 349.044 23.0566 350.375 22.5422C351.706 22.0277 352.932 21.5132 354.298 21.0679C355.664 20.6225 356.029 17.5972 357.421 17.2209C358.812 16.8447 360.63 17.7124 362.048 17.4129C363.466 17.1134 365.093 17.8506 366.528 17.6279C367.963 17.4052 368.972 14.6026 370.425 14.449C371.877 14.2954 373.417 14.0267 374.87 13.9499C376.322 13.8732 377.888 17.3131 379.349 17.3131L379.384 17.2747Z" fill="white"/>
<path d="M379.385 16.1686C377.923 16.1686 376.566 17.1822 375.131 17.259C373.696 17.3357 372.217 16.6446 370.782 16.7905C369.347 16.9364 367.755 16.2147 366.328 16.445C364.902 16.6754 363.736 17.973 362.336 18.2725C360.935 18.5719 359.935 19.9541 358.552 20.3304C357.169 20.7066 355.751 20.7219 354.394 21.1673C353.037 21.6126 351.506 21.5128 350.175 22.0196C348.844 22.5264 347.522 22.9487 346.226 23.5323C344.93 24.1158 343.095 23.778 341.833 24.423C340.572 25.068 340.041 26.7035 338.824 27.4022C337.606 28.101 336.553 28.9226 335.388 29.6828C334.222 30.4429 332.343 31.2338 331.221 32.0477C330.16 31.1416 329.986 28.5156 328.846 27.6786C327.707 26.8417 325.585 27.0721 324.384 26.3119C323.184 25.5517 321.609 25.3444 320.348 24.6687C319.087 23.993 317.512 23.9699 316.19 23.3787C314.868 22.7875 314.546 20.3534 313.172 19.8619C311.797 19.3705 310.249 19.2093 308.84 18.81C307.431 18.4107 305.439 20.0462 303.995 19.7468C302.551 19.4473 301.829 16.0381 300.359 15.8384C298.889 15.6388 297.228 16.3222 295.749 16.2223C294.27 16.1225 292.748 15.5389 291.26 15.5389C289.773 15.5389 288.32 18.4338 286.807 18.5413C285.293 18.6488 283.719 17.8963 282.214 18.1113C280.709 18.3263 278.639 16.422 277.151 16.7445C275.664 17.067 274.672 19.1402 273.22 19.5701C271.767 20.0001 270.819 21.4668 269.419 22.0043C268.018 22.5418 266.244 22.2884 264.895 22.918C263.547 23.5476 262.242 24.231 260.946 24.9528C259.65 25.6746 257.937 26.9799 256.701 27.7938C256.005 26.5806 257.293 23.5246 256.458 22.3882C255.623 21.2518 251.378 22.25 250.412 21.1903C249.447 20.1307 251.387 16.8136 250.308 15.8384C249.229 14.8632 245.324 16.6139 244.141 15.7386C242.958 14.8632 242.018 14.0186 240.74 13.2508C239.461 12.4829 238.8 11.0931 237.443 10.4481C236.086 9.80315 235.99 6.73173 234.564 6.20192C233.137 5.6721 230.58 7.8221 229.101 7.42282C227.622 7.02354 226.439 5.84872 224.917 5.58765C223.395 5.32658 221.821 5.81032 220.281 5.67979C218.741 5.54925 217.306 3 215.749 3C214.192 3 212.461 3.20732 210.947 3.33786C209.434 3.46839 207.799 4.2055 206.302 4.46657C204.806 4.72764 203.006 4.66623 201.544 5.05783C200.083 5.44943 198.735 6.59353 197.317 7.12335C195.899 7.65316 195.569 10.1794 194.212 10.8244C192.855 11.4694 190.55 10.6862 189.28 11.454C188.01 12.2219 187.949 14.3642 186.766 15.2318C185.583 16.0995 183.939 16.4297 182.869 17.4049C181.799 18.38 181.781 20.0539 180.825 21.1212C179.868 22.1885 179.189 23.2328 178.363 24.3846C177.537 25.5364 175.171 25.8128 174.475 27.0337C173.779 28.2545 174.91 30.6579 174.362 31.9325C173.361 32.447 170.456 32.8693 169.499 33.4452C168.308 32.5161 167.212 30.727 165.924 29.9592C164.637 29.1913 163.193 28.6154 161.784 28.0088C160.375 27.4022 159.4 25.6362 157.904 25.2139C156.408 24.7915 154.677 24.5689 153.111 24.3462C151.546 24.1235 149.841 26.7496 148.249 26.7496C146.848 26.7496 145.431 25.1524 144.074 25.3137C142.882 24.6226 140.69 25.4519 139.429 24.8376C138.167 24.2233 138.498 20.9062 137.193 20.3764C135.888 19.8466 133.992 20.4916 132.635 20.0463C131.278 19.6009 130.017 18.9559 128.634 18.6027C127.251 18.2495 125.781 18.2571 124.363 17.9884C122.945 17.7196 121.832 15.8 120.405 15.6234C118.979 15.4468 117.187 18.5336 115.743 18.4414C114.299 18.3493 113.011 18.1957 111.567 18.1957C110.124 18.1957 108.566 16.8213 107.088 16.9134C105.609 17.0056 104.226 17.9347 102.765 18.1189C101.303 18.3032 99.3548 16.5064 97.9109 16.7905C96.4669 17.0746 95.5101 19.24 94.0922 19.6239C92.6744 20.0078 91.4044 20.6989 90.0213 21.175C88.6383 21.651 86.7942 21.198 85.4546 21.7662C84.1151 22.3344 82.5929 22.703 81.3055 23.3633C80.0181 24.0237 78.1305 24.0237 76.9128 24.7762C75.695 25.5287 76.4604 28.6231 75.3122 29.46C74.164 30.297 70.7803 28.9533 69.7104 29.867C68.6405 30.7808 69.5799 33.4298 68.6057 34.4204C67.6315 35.4109 66.0919 35.9638 65.2133 37.0311C64.3348 38.0984 62.7777 38.7971 62.0123 39.9258C61.2468 41.0546 61.3338 42.6133 60.6814 43.8035C60.029 44.9936 59.5071 46.1992 58.9939 47.4354C58.4807 48.6717 57.5065 49.7773 57.1237 51.052C56.741 52.3266 55.5406 52.5877 55.3058 53.893C53.827 53.9544 53.5226 55.9125 52.0612 56.0277C50.5999 56.1428 49.1907 56.5268 47.7294 56.6957C46.2681 56.8646 44.4849 55.2444 43.0322 55.4748C41.5796 55.7051 40.5271 57.7246 39.0918 58.0087C37.6566 58.2928 36.4127 59.099 34.9948 59.4369C33.577 59.7748 32.1939 60.0512 30.7848 60.4428C29.3756 60.8344 27.5664 60.1049 26.192 60.5503C24.8176 60.9956 23.5042 61.6176 22.1472 62.1167C20.7902 62.6158 19.4159 63.0919 18.0937 63.6524C16.7716 64.2129 14.8231 63.7599 13.527 64.3742C12.231 64.9884 10.9958 65.81 9.74319 66.4781C8.49061 67.1461 6.43778 66.8697 5.21129 67.5915C3.98481 68.3132 3.32372 69.8873 2.14943 70.6629C0.975139 71.4384 0.366248 72.9357 -0.764553 73.7649C-1.89535 74.5942 -2.65212 75.8151 -3.73073 76.6981C-4.80934 77.5812 -4.67016 79.5008 -5.69658 80.4299C-6.723 81.359 -9.64569 80.7217 -10.6112 81.6968C-11.5767 82.672 -13.6122 82.9792 -14.5168 84.0081C-15.4215 85.037 -14.743 87.1486 -15.5693 88.2236C-16.3957 89.2985 -16.0043 91.0262 -16.7523 92.1396C-17.5004 93.2529 -19.762 93.6138 -20.4405 94.7733C-21.119 95.9327 -22.128 96.9924 -22.7108 98.1825C-23.2936 99.3727 -23.0326 100.893 -23.5284 102.122C-24.0243 103.35 -25.5726 104.31 -25.9727 105.562C-26.3728 106.813 -24.7201 108.51 -25.0246 109.792C-25.329 111.075 -28.1473 111.965 -28.3474 113.263C-28.5475 114.561 -25.7205 116.119 -25.8248 117.425C-25.9292 118.73 -26.6512 119.936 -26.6512 121.241C-26.6512 122.546 -27.9908 123.913 -27.8951 125.211C-27.7994 126.508 -28.8954 128.021 -28.6866 129.319C-28.4779 130.617 -28.0516 131.999 -27.7472 133.281C-27.4428 134.563 -23.946 135.162 -23.5371 136.421C-23.1283 137.681 -24.694 139.477 -24.1982 140.714C-23.7024 141.95 -23.6154 143.386 -23.0152 144.591C-22.415 145.797 -20.0491 146.258 -19.3706 147.425C-18.6921 148.592 -17.1699 149.26 -16.4044 150.389C-15.6389 151.517 -17.8657 154.335 -17.022 155.418C-16.1782 156.501 -15.1257 157.56 -14.2124 158.597C-13.299 159.633 -10.9157 159.641 -9.93274 160.632C-8.94981 161.622 -7.12313 161.86 -6.07932 162.797C-5.0355 163.734 -4.50489 165.07 -3.40889 165.953C-2.31288 166.836 -1.68659 168.18 -0.529694 169.017C0.627202 169.854 2.76702 169.485 3.97611 170.268C5.1852 171.051 4.49802 174.2 5.7419 174.921C6.98578 175.643 8.40363 176.242 9.691 176.918C10.9784 177.594 13.8837 175.674 15.1971 176.288C16.5106 176.902 17.5283 177.901 18.8766 178.461C20.2248 179.022 20.6859 181.333 22.0602 181.84C23.4346 182.346 25.931 180.22 27.3315 180.665C28.7319 181.11 28.9059 184.75 30.3325 185.141C31.759 185.533 33.2378 185.971 34.6817 186.301C36.1256 186.631 37.9958 185.51 39.4572 185.786C40.9185 186.063 42.5538 185.395 44.0238 185.61C45.4939 185.825 46.6334 187.983 48.1208 188.144C49.6083 188.305 51.1827 187.852 52.6701 187.967C54.1576 188.082 55.7581 186.078 57.2542 186.132C58.7504 186.186 60.1508 186.785 61.6469 186.785C63.1431 186.785 64.7175 187.783 66.231 187.729C67.7446 187.675 69.3538 188.205 70.8673 188.09C72.3808 187.975 73.8335 187.046 75.3383 186.877C76.8432 186.708 78.4437 186.9 79.9398 186.669C81.436 186.439 82.7494 185.31 84.2282 185.019C85.7069 184.727 86.7681 183.068 88.2382 182.715C89.7082 182.362 91.6219 183.491 93.0658 183.084C94.5098 182.677 95.658 181.54 97.0758 181.072C98.4937 180.603 101.068 182.592 102.469 182.07C103.869 181.548 104.548 179.528 105.905 178.945C107.349 178.876 108.653 178.185 110.054 177.977C111.454 177.77 112.89 177.739 114.255 177.394C115.621 177.048 117.456 177.709 118.77 177.24C120.083 176.772 120.596 174.729 121.858 174.123C123.119 173.516 125.555 174.561 126.738 173.846C127.921 173.132 127.868 170.936 128.956 170.115C130.043 169.293 131.365 168.157 132.357 167.243C133.54 168.018 133.757 170.875 135.036 171.589C136.315 172.303 139.637 169.823 140.968 170.46C142.299 171.097 142.23 173.985 143.595 174.553C144.961 175.121 146.361 175.605 147.762 176.096C149.162 176.588 150.858 176.304 152.285 176.726C153.712 177.148 154.842 178.361 156.295 178.722C157.748 179.083 159.209 179.398 160.679 179.69C162.149 179.982 163.828 179.229 165.315 179.459C166.803 179.69 168.455 178.4 169.952 178.569C171.448 178.738 172.613 180.957 174.109 181.072C175.606 181.187 177.023 182.569 178.528 182.631C180.033 182.692 181.581 179.198 183.086 179.198C184.591 179.198 185.983 179.267 187.435 179.237C188.888 179.206 190.445 181.233 191.889 181.164C193.333 181.095 194.751 180.058 196.195 179.958C197.639 179.859 199.422 182.131 200.857 181.986C202.292 181.84 203.597 180.143 205.024 179.951C206.45 179.759 207.92 179.413 209.338 179.16C210.756 178.907 211.782 177.033 213.174 176.718C214.618 176.396 216.506 177.686 217.88 177.309C219.254 176.933 221.412 178.108 222.751 177.647C224.091 177.187 223.786 173.194 225.091 172.649C226.396 172.103 228.405 172.817 229.649 172.173C230.893 171.528 231.371 169.923 232.546 169.178C233.72 168.433 236.408 169.347 237.495 168.494C238.582 167.642 239.409 165.508 240.383 164.548C240.487 165.876 239.452 167.988 239.678 169.224C239.913 170.537 243.106 171.205 243.471 172.418C243.854 173.7 243.21 175.083 243.732 176.257C244.254 177.432 244.428 178.761 245.115 179.874C245.802 180.987 246.402 182.178 247.264 183.206C248.125 184.235 247.533 186.516 248.551 187.437C249.569 188.359 253.213 186.739 254.361 187.552C255.51 188.366 256.258 189.319 257.51 190.002C258.763 190.685 259.589 191.768 260.929 192.329C262.268 192.889 262.599 195.561 263.991 196.007C265.382 196.452 267.461 194.993 268.897 195.331C270.332 195.669 271.637 196.222 273.089 196.46C274.542 196.698 276.16 195.3 277.639 195.454C279.117 195.607 280.318 197.404 281.796 197.473C283.275 197.542 284.71 196.237 286.189 196.237C287.668 196.237 289.295 197.803 290.817 197.719C292.339 197.634 293.809 196.751 295.314 196.582C296.819 196.413 298.028 194.893 299.524 194.624C301.02 194.356 303.116 196.314 304.578 195.937C306.039 195.561 306.552 192.782 307.97 192.298C309.388 191.814 310.728 191.515 312.084 190.9C313.441 190.286 314.746 189.879 316.016 189.134C317.286 188.389 318.678 188.006 319.852 187.13C321.027 186.255 324.132 187.115 325.167 186.109C326.202 185.103 326.489 183.414 327.385 182.293C328.281 181.172 326.959 178.991 327.681 177.77C328.403 176.549 330.447 175.897 330.995 174.599C332.187 175.259 332.752 177.463 334.031 177.977C335.309 178.492 337.058 178.43 338.406 178.784C339.754 179.137 341.711 176.795 343.112 176.979C344.512 177.163 345.617 177.855 347.035 177.855C348.453 177.855 349.792 178.215 351.184 178.031C352.576 177.847 354.272 178.715 355.629 178.354C356.986 177.993 357.978 175.428 359.265 174.898C360.561 175.221 362.205 176.38 363.527 176.641C364.849 176.902 365.841 178.584 367.172 178.784C368.503 178.983 369.764 180.035 371.112 180.166C372.461 180.296 373.965 179.206 375.322 179.275C376.679 179.344 378.036 179.037 379.393 179.037C380.881 179.037 382.351 178.822 383.812 178.738C385.273 178.653 386.891 179.505 388.344 179.344C389.797 179.183 391.188 178.285 392.632 178.054C394.076 177.824 394.998 175.582 396.425 175.275C397.851 174.967 399.782 176.419 401.192 176.035C402.601 175.651 404.741 176.964 406.115 176.503C407.489 176.042 408.524 174.607 409.864 174.077C411.204 173.547 412.787 173.294 414.1 172.695C415.414 172.096 415.24 169.147 416.518 168.479C417.797 167.811 419.972 168.502 421.198 167.773C422.425 167.043 424.208 166.959 425.391 166.183C426.574 165.408 426.417 163.127 427.548 162.29C428.679 161.453 429.305 160.202 430.384 159.319C431.462 158.436 433.724 158.666 434.759 157.729C435.794 156.792 436.96 155.963 437.934 154.988C438.908 154.013 439.143 152.5 440.065 151.471C440.987 150.442 441.7 149.337 442.57 148.277C443.44 147.217 445.649 146.979 446.458 145.881C447.267 144.783 448.242 143.747 448.981 142.618C449.72 141.489 449.999 140.099 450.677 138.94C451.356 137.781 452.913 136.959 453.539 135.776C454.165 134.594 452.539 132.536 453.104 131.323C453.669 130.11 453.234 128.635 453.739 127.407C454.244 126.178 457.21 125.71 457.645 124.458C458.08 123.207 456.201 121.402 456.575 120.143C456.949 118.884 456.662 117.563 456.975 116.281C457.288 114.998 458.488 113.954 458.741 112.672C458.993 111.39 462.185 110.483 462.368 109.186C462.551 107.888 460.028 106.337 460.158 105.032C460.289 103.726 461.446 102.513 461.515 101.208C461.585 99.9025 460.011 98.6049 460.011 97.2919C460.011 95.9788 461.785 94.6658 461.724 93.3682C461.663 92.0705 460.55 90.8189 460.428 89.5289C460.306 88.2389 462.116 86.7339 461.933 85.4439C461.75 84.154 459.036 83.1788 458.784 81.9042C458.532 80.6295 460.837 78.8865 460.524 77.6196C460.211 76.3526 459.898 75.0088 459.523 73.7496C459.149 72.4903 457.723 71.446 457.288 70.2098C456.853 68.9736 454.217 68.39 453.722 67.1691C453.226 65.9483 454.8 64.0363 454.244 62.8385C453.687 61.6406 450.747 61.3796 450.129 60.2048C449.512 59.0299 449.198 57.786 448.52 56.6419C447.841 55.4978 450.468 52.7028 449.729 51.5818C448.99 50.4607 445.458 50.8216 444.658 49.7313C443.858 48.6409 443.492 47.3202 442.64 46.2683C441.787 45.2163 440.161 44.7096 439.247 43.696C438.334 42.6824 438.212 41.116 437.247 40.1485C436.281 39.181 436.455 37.223 435.437 36.2939C434.42 35.3648 433.611 34.1286 432.532 33.2455C431.454 32.3625 429.479 32.3011 428.348 31.4718C427.217 30.6425 425.121 30.9113 423.938 30.1358C422.755 29.3602 422.172 27.8937 420.946 27.1719C419.719 26.4501 418.328 25.9817 417.066 25.3214C415.805 24.661 414.657 23.8164 413.352 23.2251C412.047 22.6339 411.621 20.2843 410.273 19.7545C408.925 19.2247 407.159 19.3936 405.776 18.9406C404.393 18.4875 402.81 18.4107 401.4 18.0268C399.991 17.6429 398.286 18.1804 396.851 17.8655C395.416 17.5507 394.259 16.0534 392.806 15.8154C391.354 15.5774 389.579 17.2743 388.109 17.1207C386.639 16.9671 385.308 15.9382 383.829 15.8538C382.351 15.7693 380.898 16.1763 379.411 16.1763L379.385 16.1686Z" stroke="#7FD5FF" stroke-width="5" stroke-miterlimit="10"/>
</svg>
