<svg width="542" height="232" viewBox="0 0 542 232" fill="none" xmlns="http://www.w3.org/2000/svg">
<path d="M61 1H481C514.137 1 541 27.8629 541 61V127.648C541 160.786 514.176 187.648 481.04 187.648H293.364C290.688 187.649 285.967 189.42 284.263 195.159C282.638 200.633 283.842 209.474 291.717 223.478L292.499 224.849C293.306 226.242 293.772 227.357 293.972 228.229C294.171 229.101 294.084 229.636 293.915 229.964C293.755 230.274 293.438 230.557 292.811 230.755C292.168 230.957 291.269 231.043 290.097 230.979C285.356 230.718 277.361 228.098 267.836 224.172C250.059 216.844 227.482 205.195 212.267 197.049L209.325 195.469C199.949 190.414 189.479 187.649 178.812 187.648H61C27.8631 187.648 1.00025 160.785 1 127.648V61C1.00001 27.8629 27.8629 1 61 1Z" stroke="black" stroke-width="2"/>
</svg>
