<svg width="156" height="124" viewBox="0 0 156 124" fill="none" xmlns="http://www.w3.org/2000/svg">
<path d="M15.51 28.2882L119.847 4.6514C127.657 2.88217 135.423 7.7792 137.192 15.5894L147.504 61.1068C149.273 68.9171 144.379 76.6818 136.57 78.4513L89.9101 89.0217C89.0022 89.2274 88.0322 90.3954 88.1241 92.6786C88.2165 94.9732 89.358 98.5359 92.8047 103.929C93.2213 104.581 93.4684 105.092 93.5853 105.479C93.7041 105.873 93.6686 106.071 93.6253 106.16C93.5914 106.229 93.5085 106.321 93.2533 106.378C92.9905 106.437 92.6086 106.441 92.0994 106.372C90.0456 106.094 86.6008 104.734 82.8175 102.992C79.0573 101.26 75.0336 99.1854 71.8505 97.5258C70.2616 96.6974 68.8787 95.9704 67.8484 95.4445C67.3334 95.1817 66.9006 94.9665 66.5717 94.8126C66.4078 94.7358 66.2643 94.672 66.1466 94.6245C66.095 94.6037 66.0377 94.5814 65.9793 94.5623L65.8062 94.5184L65.6759 94.5089C65.6337 94.5086 65.594 94.5108 65.5606 94.5129C65.4832 94.5179 65.3921 94.528 65.2916 94.5408C65.0897 94.5667 64.8262 94.608 64.5113 94.6635C63.8805 94.7748 63.02 94.9451 61.9758 95.1618C59.8858 95.5956 57.0455 96.2204 53.8067 96.9504C47.3282 98.4106 39.2456 100.293 32.362 101.911L31.993 101.992C24.2559 103.604 16.6012 98.7321 14.8454 90.9815L4.57208 45.6336C2.80273 37.8233 7.69981 30.0576 15.51 28.2882Z" stroke="black"/>
<path d="M33.0981 48.2531L33.3858 49.5229L30.8598 50.0952L32.7219 58.3149L31.1654 58.6675L29.3033 50.4478L26.7636 51.0231L26.4759 49.7533L33.0981 48.2531ZM40.0758 48.6102C40.6493 48.4803 41.1869 48.4877 41.6886 48.6324C42.1994 48.7751 42.6369 49.0588 43.0011 49.4835C43.3743 49.9061 43.6383 50.4588 43.793 51.1415L44.7983 55.5791L43.2554 55.9286L42.3027 51.7232C42.1501 51.0496 41.8651 50.5734 41.4479 50.2947C41.0286 50.0069 40.5277 49.929 39.9451 50.061C39.3626 50.1929 38.9396 50.4802 38.6762 50.9226C38.4198 51.3539 38.3679 51.9064 38.5205 52.58L39.4732 56.7854L37.9167 57.138L35.6277 47.0341L37.1842 46.6815L37.9668 50.1359C38.1586 49.7575 38.4352 49.4365 38.7965 49.1728C39.167 48.907 39.5934 48.7195 40.0758 48.6102ZM46.4973 51.2035C46.3261 50.448 46.3293 49.7439 46.5068 49.0912C46.6935 48.4365 47.0192 47.889 47.4841 47.4487C47.956 46.9973 48.5197 46.6973 49.1751 46.5489C49.7667 46.4148 50.3078 46.4166 50.7984 46.5543C51.296 46.6808 51.7159 46.8872 52.0583 47.1733L51.8108 46.0809L53.381 45.7252L55.0854 53.2486L53.5152 53.6043L53.2615 52.4847C53.078 52.8995 52.7854 53.2768 52.3839 53.6165C51.9824 53.9563 51.4904 54.1922 50.9078 54.3242C50.2615 54.4706 49.6327 54.4408 49.0214 54.2348C48.4081 54.0196 47.8751 53.6523 47.4224 53.1328C46.9768 52.6021 46.6685 51.959 46.4973 51.2035ZM52.6614 49.8358C52.5439 49.3169 52.3326 48.8911 52.0275 48.5583C51.7316 48.2234 51.3879 47.995 50.9967 47.8731C50.6054 47.7512 50.2095 47.7356 49.809 47.8264C49.4085 47.9171 49.0579 48.1018 48.7574 48.3804C48.4548 48.6499 48.2376 49.0006 48.1057 49.4324C47.9809 49.853 47.9773 50.3228 48.0948 50.8416C48.2124 51.3605 48.4202 51.7919 48.7182 52.1359C49.0253 52.4778 49.3756 52.7143 49.7689 52.8453C50.1693 52.9651 50.5652 52.9807 50.9566 52.892C51.3571 52.8013 51.7076 52.6166 52.0081 52.338C52.3087 52.0594 52.5203 51.7052 52.6431 51.2754C52.7729 50.8345 52.779 50.3546 52.6614 49.8358ZM60.2858 44.0318C60.8775 43.8977 61.4333 43.901 61.9532 44.0416C62.4822 44.1802 62.9333 44.4608 63.3066 44.8834C63.6799 45.306 63.9438 45.8587 64.0985 46.5414L65.1038 50.979L63.5609 51.3285L62.6082 47.1231C62.4556 46.4495 62.1707 45.9733 61.7535 45.6946C61.3342 45.4068 60.8332 45.3289 60.2507 45.4609C59.6681 45.5928 59.2451 45.8801 58.9817 46.3225C58.7253 46.7538 58.6734 47.3063 58.826 47.9799L59.7787 52.1853L58.2222 52.538L56.5178 45.0146L58.0744 44.662L58.2692 45.5222C58.454 45.1549 58.7225 44.8405 59.0747 44.5789C59.4361 44.3152 59.8398 44.1328 60.2858 44.0318ZM70.3075 45.8525L74.6263 48.8217L72.5236 49.2981L69.0051 46.6931L69.7382 49.9291L68.1816 50.2817L65.8926 40.1777L67.4492 39.8251L68.7793 45.6963L70.7646 41.7871L72.9219 41.2983L70.3075 45.8525ZM79.5929 47.8257C79.0013 47.9598 78.4451 47.9757 77.9243 47.8736C77.4106 47.7603 76.9759 47.5525 76.6203 47.2503C76.2627 46.9389 76.0232 46.5578 75.9019 46.1068L77.5131 45.7418C77.6126 46.0542 77.8236 46.2887 78.1462 46.4453C78.4758 46.5907 78.85 46.616 79.2687 46.5211C79.7056 46.4221 80.0239 46.2639 80.2234 46.0465C80.43 45.8178 80.5034 45.5715 80.4436 45.3076C80.3797 45.0254 80.1957 44.8469 79.8917 44.7723C79.5968 44.6955 79.1395 44.6412 78.5198 44.6094C77.9204 44.5825 77.4266 44.5364 77.0387 44.4712C76.6507 44.406 76.2906 44.2531 75.9586 44.0125C75.6357 43.7698 75.4185 43.4027 75.3072 42.9112C75.2165 42.5107 75.2523 42.1198 75.4147 41.7384C75.5751 41.348 75.8521 41.0078 76.2457 40.7176C76.6484 40.4254 77.1365 40.2144 77.71 40.0844C78.5657 39.8906 79.3024 39.9534 79.9202 40.2728C80.5451 40.581 80.9603 41.1042 81.1658 41.8423L79.6093 42.195C79.5057 41.8644 79.3083 41.6268 79.0171 41.4822C78.726 41.3376 78.3711 41.3127 77.9523 41.4076C77.5427 41.5004 77.2462 41.6489 77.0628 41.8531C76.8794 42.0574 76.8166 42.2869 76.8743 42.5418C76.9197 42.7421 77.0306 42.894 77.2072 42.9975C77.3838 43.1011 77.586 43.1701 77.814 43.2046C78.0398 43.23 78.371 43.2554 78.8074 43.281C79.3865 43.3029 79.8666 43.352 80.2476 43.4284C80.6356 43.4936 80.99 43.643 81.3109 43.8766C81.6317 44.1101 81.8513 44.4671 81.9697 44.9475C82.0667 45.3753 82.0349 45.7844 81.8746 46.1748C81.7142 46.5652 81.4372 46.9055 81.0436 47.1956C80.6591 47.4837 80.1755 47.6938 79.5929 47.8257ZM91.5969 38.4026L90.2042 38.7182L91.6209 44.9717L90.0506 45.3274L88.6339 39.0739L87.7464 39.2749L87.4588 38.0051L88.3463 37.8041L88.2256 37.2715C88.0297 36.4068 88.115 35.7272 88.4815 35.2326C88.855 34.7269 89.5333 34.3627 90.5164 34.14L90.8102 35.4372C90.3369 35.5444 90.0252 35.7107 89.8753 35.936C89.7234 36.1523 89.6969 36.4789 89.7958 36.9158L89.9165 37.4483L91.3092 37.1328L91.5969 38.4026ZM98.7765 43.4798C98.0665 43.6407 97.3887 43.6267 96.743 43.4381C96.0953 43.2403 95.5416 42.8872 95.082 42.3789C94.6202 41.8615 94.3017 41.2159 94.1264 40.4422C93.9532 39.6775 93.968 38.9612 94.1707 38.2933C94.3735 37.6253 94.7301 37.066 95.2405 36.6154C95.7509 36.1649 96.3656 35.8581 97.0847 35.6952C97.8038 35.5323 98.4908 35.5442 99.1455 35.7308C99.8003 35.9174 100.363 36.2684 100.834 36.7838C101.305 37.2991 101.627 37.9391 101.8 38.7038C101.973 39.4684 101.954 40.1857 101.742 40.8557C101.53 41.5258 101.161 42.0927 100.634 42.5565C100.115 43.0091 99.4956 43.3169 98.7765 43.4798ZM98.4703 42.1281C98.8708 42.0373 99.2224 41.8572 99.5249 41.5877C99.8366 41.3161 100.058 40.9644 100.19 40.5326C100.322 40.1008 100.326 39.6118 100.202 39.0657C100.079 38.5195 99.8699 38.0835 99.576 37.7578C99.28 37.4229 98.9374 37.199 98.5482 37.0862C98.159 36.9734 97.7642 36.9624 97.3637 37.0531C96.9631 37.1439 96.6116 37.324 96.309 37.5935C96.0155 37.861 95.8119 38.2086 95.6983 38.6362C95.5826 39.0548 95.5866 39.5372 95.7103 40.0833C95.8938 40.8935 96.2409 41.4752 96.7516 41.8284C97.2693 42.1705 97.8422 42.2704 98.4703 42.1281ZM105.384 35.0925C105.525 34.6587 105.759 34.2948 106.085 34.0009C106.417 33.6958 106.843 33.4845 107.362 33.367L107.727 34.9781L107.331 35.0678C106.721 35.206 106.292 35.4659 106.044 35.8476C105.804 36.2272 105.771 36.7993 105.944 37.5639L106.841 41.5236L105.285 41.8762L103.58 34.3529L105.137 34.0002L105.384 35.0925ZM31.7217 73.0357C31.5464 72.262 31.5475 71.5487 31.7251 70.8961C31.9096 70.2322 32.2434 69.6781 32.7265 69.2337C33.2096 68.7893 33.8107 68.4857 34.5298 68.3228C35.4401 68.1166 36.2405 68.1649 36.9312 68.4678C37.6289 68.7595 38.1732 69.2822 38.564 70.0358L36.8846 70.4162C36.6635 70.074 36.379 69.8322 36.0312 69.6909C35.6834 69.5495 35.2819 69.5304 34.8268 69.6336C34.1896 69.7779 33.7314 70.121 33.4522 70.6627C33.18 71.1933 33.1357 71.8636 33.3192 72.6738C33.5028 73.4839 33.8327 74.0743 34.309 74.4449C34.7944 74.8134 35.3557 74.9255 35.9929 74.7811C36.8941 74.577 37.4006 74.0459 37.5125 73.188L39.1919 72.8075C39.1467 73.6217 38.8752 74.3243 38.3776 74.9156C37.8778 75.4977 37.1819 75.8898 36.2899 76.0919C35.5708 76.2548 34.8975 76.2399 34.27 76.0471C33.6405 75.8452 33.1005 75.489 32.6499 74.9786C32.2064 74.457 31.897 73.8094 31.7217 73.0357ZM41.6413 64.1279L43.9302 74.2318L42.3737 74.5845L40.0847 64.4805L41.6413 64.1279ZM45.9279 64.8219C45.6458 64.8858 45.3874 64.8439 45.153 64.696C44.9185 64.5482 44.7693 64.3331 44.7054 64.051C44.6415 63.7688 44.6834 63.5104 44.8313 63.276C44.9791 63.0415 45.1941 62.8923 45.4763 62.8284C45.7494 62.7665 46.0032 62.8095 46.2376 62.9574C46.4721 63.1052 46.6213 63.3202 46.6852 63.6024C46.7491 63.8846 46.7072 64.1429 46.5593 64.3774C46.4115 64.6119 46.201 64.76 45.9279 64.8219ZM46.9184 65.6454L48.6227 73.1688L47.0662 73.5214L45.3618 65.998L46.9184 65.6454ZM50.3861 68.8074C50.2108 68.0336 50.2119 67.3204 50.3894 66.6678C50.574 66.0039 50.9078 65.4498 51.3909 65.0054C51.874 64.561 52.4751 64.2574 53.1942 64.0945C54.1045 63.8883 54.9049 63.9366 55.5956 64.2395C56.2933 64.5312 56.8376 65.0539 57.2284 65.8075L55.5489 66.1879C55.3279 65.8457 55.0434 65.6039 54.6956 65.4626C54.3478 65.3212 53.9463 65.3021 53.4912 65.4053C52.854 65.5496 52.3958 65.8926 52.1166 66.4344C51.8444 66.965 51.8001 67.6353 51.9836 68.4455C52.1672 69.2556 52.4971 69.846 52.9734 70.2166C53.4588 70.5851 54.0201 70.6972 54.6573 70.5528C55.5585 70.3487 56.065 69.8176 56.1769 68.9597L57.8563 68.5792C57.8111 69.3933 57.5396 70.096 57.0419 70.6873C56.5422 71.2694 55.8463 71.6615 54.9543 71.8636C54.2351 72.0265 53.5619 72.0116 52.9344 71.8188C52.3049 71.6169 51.7649 71.2607 51.3143 70.7503C50.8708 70.2287 50.5614 69.5811 50.3861 68.8074ZM63.164 65.927L67.4828 68.8961L65.38 69.3725L61.8615 66.7675L62.5946 70.0035L61.0381 70.3562L58.7491 60.2522L60.3056 59.8996L61.6357 65.7708L63.6211 61.8615L65.7784 61.3728L63.164 65.927ZM68.5525 59.6964C68.2703 59.7604 68.012 59.7184 67.7776 59.5705C67.5431 59.4227 67.3939 59.2077 67.33 58.9255C67.266 58.6433 67.308 58.385 67.4559 58.1505C67.6037 57.9161 67.8187 57.7669 68.1009 57.7029C68.374 57.6411 68.6278 57.6841 68.8622 57.8319C69.0967 57.9798 69.2459 58.1948 69.3098 58.477C69.3737 58.7592 69.3318 59.0175 69.1839 59.2519C69.0361 59.4864 68.8256 59.6346 68.5525 59.6964ZM69.543 60.5199L71.2473 68.0433L69.6908 68.3959L67.9864 60.8726L69.543 60.5199ZM76.4469 58.8267C77.0385 58.6927 77.5943 58.696 78.1143 58.8366C78.6433 58.9751 79.0944 59.2557 79.4677 59.6783C79.841 60.101 80.1049 60.6536 80.2596 61.3363L81.2649 65.7739L79.722 66.1234L78.7693 61.918C78.6167 61.2444 78.3318 60.7682 77.9145 60.4895C77.4953 60.2017 76.9943 60.1238 76.4118 60.2558C75.8292 60.3878 75.4062 60.675 75.1428 61.1175C74.8864 61.5488 74.8345 62.1012 74.9871 62.7748L75.9398 66.9803L74.3833 67.3329L72.6789 59.8095L74.2355 59.4569L74.4303 60.3171C74.6151 59.9499 74.8836 59.6354 75.2358 59.3738C75.5972 59.1101 76.0008 58.9278 76.4469 58.8267ZM85.6417 56.7437C86.2242 56.6117 86.7654 56.6135 87.265 56.7492C87.7717 56.8736 88.1917 57.0799 88.5249 57.3681L88.2774 56.2758L89.8476 55.92L91.5798 63.5663C91.7366 64.2581 91.7301 64.9055 91.5605 65.5086C91.393 66.1207 91.0666 66.6444 90.5814 67.0797C90.1054 67.5129 89.4851 67.8162 88.7204 67.9894C87.7009 68.2203 86.7997 68.1709 86.0169 67.8411C85.236 67.5203 84.7073 66.9606 84.4307 66.162L85.9736 65.8125C86.1806 66.1771 86.5021 66.4344 86.938 66.5845C87.3851 66.7416 87.8772 66.7593 88.4142 66.6376C89.0423 66.4953 89.5042 66.1897 89.7999 65.7208C90.1047 65.2498 90.1746 64.6502 90.0096 63.922L89.7251 62.6658C89.5415 63.0807 89.25 63.4625 88.8505 63.8114C88.4581 64.1491 87.9752 64.3829 87.4017 64.5128C86.7463 64.6613 86.1084 64.6336 85.488 64.4296C84.8747 64.2145 84.3417 63.8471 83.8891 63.3276C83.4435 62.797 83.1351 62.1539 82.9639 61.3984C82.7928 60.6428 82.7959 59.9387 82.9735 59.2861C83.1601 58.6313 83.4858 58.0838 83.9507 57.6435C84.4226 57.1921 84.9863 56.8922 85.6417 56.7437ZM89.1281 60.0306C89.0105 59.5118 88.7992 59.0859 88.4941 58.7531C88.1982 58.4182 87.8545 58.1898 87.4633 58.0679C87.072 57.946 86.6761 57.9305 86.2756 58.0212C85.8751 58.1119 85.5246 58.2966 85.224 58.5752C84.9214 58.8448 84.7042 59.1954 84.5723 59.6272C84.4475 60.0479 84.4439 60.5176 84.5614 61.0365C84.679 61.5553 84.8868 61.9867 85.1848 62.3307C85.4919 62.6726 85.8422 62.9091 86.2355 63.0401C86.6359 63.1599 87.0318 63.1755 87.4232 63.0868C87.8237 62.9961 88.1742 62.8114 88.4748 62.5328C88.7753 62.2542 88.9869 61.9 89.1097 61.4703C89.2395 61.0294 89.2456 60.5495 89.1281 60.0306ZM106.703 51.9724C107.295 51.8383 107.85 51.8416 108.37 51.9822C108.899 52.1208 109.351 52.4014 109.724 52.824C110.106 53.2446 110.375 53.7962 110.529 54.4789L111.535 58.9165L109.992 59.266L109.039 55.0606C108.886 54.387 108.602 53.9108 108.184 53.6321C107.765 53.3443 107.264 53.2664 106.682 53.3984C106.099 53.5303 105.676 53.8176 105.413 54.26C105.156 54.6913 105.104 55.2438 105.257 55.9174L106.21 60.1228L104.667 60.4724L103.714 56.2669C103.561 55.5933 103.276 55.1172 102.859 54.8385C102.44 54.5507 101.939 54.4727 101.356 54.6047C100.774 54.7367 100.351 55.0239 100.087 55.4664C99.8311 55.8977 99.7792 56.4502 99.9318 57.1237L100.885 61.3292L99.328 61.6818L97.6236 54.1585L99.1802 53.8058L99.375 54.666C99.5598 54.2988 99.8283 53.9844 100.181 53.7227C100.533 53.4611 100.932 53.2798 101.378 53.1787C101.979 53.0426 102.545 53.0484 103.076 53.1961C103.607 53.3437 104.054 53.6299 104.419 54.0546C104.543 53.5479 104.817 53.1079 105.239 52.7346C105.66 52.3523 106.148 52.0982 106.703 51.9724ZM120.609 52.7122C120.673 52.9944 120.712 53.2534 120.728 53.4892L114.979 54.7915C115.161 55.3819 115.493 55.8138 115.976 56.0872C116.459 56.3606 116.992 56.4313 117.575 56.2993C118.412 56.1096 118.924 55.6251 119.111 54.8458L120.791 54.4654C120.72 55.2087 120.435 55.8715 119.935 56.4536C119.442 57.0246 118.754 57.4101 117.871 57.6101C117.152 57.773 116.47 57.7601 115.824 57.5714C115.186 57.3716 114.637 57.0175 114.177 56.5092C113.724 55.9897 113.41 55.3431 113.235 54.5693C113.06 53.7956 113.061 53.0824 113.238 52.4297C113.423 51.7659 113.761 51.2107 114.254 50.7643C114.755 50.3158 115.374 50.008 116.111 49.841C116.821 49.6801 117.489 49.6915 118.115 49.8752C118.74 50.0589 119.271 50.3979 119.709 50.8922C120.144 51.3773 120.444 51.984 120.609 52.7122ZM118.873 52.5888C118.734 52.0173 118.425 51.6041 117.946 51.3489C117.467 51.0937 116.932 51.0332 116.34 51.1672C115.803 51.2889 115.383 51.566 115.079 51.9985C114.773 52.4219 114.649 52.9331 114.708 53.5322L118.873 52.5888ZM123.93 46.1319L125.253 52.7943L123.955 53.0881L122.278 46.5061L123.93 46.1319ZM125.323 55.8933C125.041 55.9572 124.782 55.9153 124.548 55.7674C124.314 55.6196 124.164 55.4045 124.1 55.1224C124.036 54.8402 124.078 54.5818 124.226 54.3474C124.374 54.1129 124.589 53.9637 124.871 53.8998C125.144 53.8379 125.398 53.8809 125.633 54.0288C125.867 54.1766 126.016 54.3917 126.08 54.6738C126.144 54.956 126.102 55.2143 125.954 55.4488C125.807 55.6833 125.596 55.8314 125.323 55.8933Z" fill="#333333"/>
</svg>
