<svg width="200" height="200" viewBox="0 0 200 200" fill="none" xmlns="http://www.w3.org/2000/svg">
<path d="M79.9412 128.579C74.7032 127.909 69.5187 125.588 66.7526 120.901C64.7985 117.59 64.1802 113.246 64.4453 109.412C64.9472 102.152 68.2735 95.8111 69.0968 88.6067C69.4169 85.8064 69.6404 82.9983 69.7998 80.1842C70.1416 74.1628 71.2685 67.8893 73.9235 62.4326C77.5156 55.05 83.2516 51.3234 90.8683 48.7712C101.997 45.0426 114.802 47.2458 122.839 56.0008C133.527 67.6425 135.61 85.3696 136.539 100.414C136.844 105.35 136.558 111.266 134.792 115.943C131.918 123.553 125.072 127.622 117.194 127.894L79.9406 128.581L79.9412 128.579Z" fill="#FEBE69"/>
<path d="M78.5726 106.288C77.8847 104.795 77.3679 103.349 76.9833 102.02C75.7189 102.341 74.355 101.864 73.4523 101.117C71.4149 99.4309 70.5763 97.0877 70.0647 95.5558C69.3421 93.3928 69.31 89.901 70.406 88.0108C70.7729 87.3777 71.6245 86.2994 73.6167 86.237C74.5319 86.208 75.6004 86.5 76.3911 87.2685C76.3911 87.2685 76.4795 87.3546 76.568 87.4401L76.9217 87.1712C79.0666 85.5381 95.7437 69.8037 97.4293 67.8622C97.5407 67.8497 97.6252 67.8385 97.6252 67.8385C109.519 66.2678 116.848 76.4927 120.556 84.5229C123.41 90.7038 124.649 97.4901 124.151 104.15C123.968 104.617 123.805 105.009 123.675 105.271C122.847 107.494 118.354 115.205 112.659 118.37C112.68 119.563 112.644 119.995 112.752 121.496C112.802 122.171 112.853 122.899 113.102 123.557C113.436 124.422 113.885 125.172 114.608 125.756C116.137 126.993 117.71 127.584 119.647 128.315C119.647 128.315 116.259 137.871 99.2263 137.871C82.1934 137.871 80.8 129.094 80.8 129.094C81.558 128.795 82.8204 128.316 82.8204 128.316C84.7569 127.585 86.3291 126.994 87.8595 125.757C88.5821 125.172 89.0315 124.422 89.3649 123.558C89.6139 122.9 89.6656 122.171 89.7148 121.497C89.8156 120.106 89.7921 119.633 89.8038 118.622C87.1428 117.337 84.7575 115.29 82.4889 112.543C80.7915 110.489 79.5199 108.344 78.5733 106.289L78.5726 106.288Z" fill="white"/>
<path d="M77.0625 86.6411C75.354 85.17 72.9133 84.8141 70.8125 85.7214C69.2722 86.3862 68.3442 87.7576 67.905 89.2782C66.8632 92.8879 67.8291 97.1057 69.9768 100.192C71.4137 102.256 73.6655 104.1 76.4275 103.767C77.1666 103.678 77.8064 103.224 77.8064 102.447C77.8064 101.802 77.1714 101.036 76.4275 101.126C72.6588 101.58 70.558 96.3259 70.3098 93.4287C70.1802 91.9094 70.1844 89.9972 71.1662 88.7058C71.0255 88.8906 71.2999 88.5665 71.3082 88.5592C71.3613 88.5117 71.493 88.3842 71.5316 88.3558C71.8191 88.1445 72.1542 88.0171 72.5044 87.9399C73.4228 87.7365 74.4004 87.8976 75.1113 88.5097C76.4275 89.6433 78.3842 87.7814 77.0611 86.6424L77.0625 86.6411Z" fill="#211715"/>
<path d="M87.2421 90.1841C86.8611 91.4235 87.1095 94.2733 89.4568 94.5163C92.5593 94.4979 92.7243 91.0517 91.6801 89.4313C90.8249 88.1048 88.3102 87.5533 87.2421 90.1841Z" fill="#211715"/>
<path d="M113.79 90.1847C114.171 91.424 113.923 94.274 111.576 94.5163C108.473 94.4979 108.308 91.0516 109.352 89.4312C110.207 88.1048 112.722 87.5532 113.79 90.1847Z" fill="#211715"/>
<path d="M80.4601 130.58C82.7641 129.671 85.2602 128.967 87.2769 127.482C88.5774 126.525 89.5772 125.22 89.9074 123.6C90.1801 122.265 90.1858 120.86 90.1935 119.501C90.2025 117.845 87.6424 117.843 87.6334 119.501C87.6277 120.599 87.6481 121.756 87.4549 122.832C87.2404 124.024 86.5927 124.867 85.5962 125.533C83.8138 126.725 81.7753 127.311 79.7797 128.099C79.1365 128.352 78.6885 128.961 78.8856 129.681C79.0539 130.298 79.813 130.836 80.4601 130.58V130.58Z" fill="#211715"/>
<path d="M110.839 118.593C110.851 121.046 110.859 123.633 112.317 125.66C113.799 127.721 116.341 128.663 118.523 129.547C119.164 129.807 119.913 129.258 120.082 128.593C120.277 127.826 119.84 127.173 119.197 126.912C118.68 126.702 118.164 126.491 117.651 126.269C117.503 126.206 117.58 126.239 117.492 126.198C117.383 126.148 117.276 126.097 117.169 126.045C116.958 125.941 116.747 125.833 116.54 125.718C116.081 125.465 115.636 125.183 115.212 124.865C114.886 124.62 114.529 124.3 114.309 124.002C114.266 123.944 114.079 123.626 114 123.473C113.877 123.234 113.8 123.066 113.751 122.921C113.564 122.369 113.514 121.934 113.475 121.388C113.408 120.456 113.379 119.526 113.375 118.592C113.371 117.853 112.795 117.226 112.107 117.226C111.419 117.226 110.836 117.851 110.839 118.592L110.839 118.593Z" fill="#211715"/>
<path d="M109.42 120.286C112.755 119.561 115.609 117.442 117.931 115.132C120.092 112.983 121.977 110.527 123.508 107.934C124.236 106.702 124.75 105.581 125.224 104.397C125.484 103.751 124.938 102.992 124.286 102.822C123.529 102.624 122.893 103.068 122.633 103.716C122.457 104.156 122.258 104.585 122.066 105.019C122.228 104.654 121.904 105.344 121.841 105.466C121.55 106.032 121.229 106.584 120.895 107.127C120.019 108.551 119.043 109.929 117.96 111.217C115.578 114.052 112.549 116.981 108.704 117.817C107.019 118.184 107.732 120.652 109.418 120.286H109.42Z" fill="#211715"/>
<path d="M74.7464 100.302C75.8551 105.302 78.1662 109.976 81.4786 113.866C84.6663 117.609 88.7655 120.572 93.6918 121.333C94.3949 121.441 95.1105 121.153 95.3143 120.405C95.4858 119.776 95.1013 118.881 94.3929 118.772C89.859 118.073 86.2763 115.432 83.3438 111.989C80.325 108.444 78.2975 104.142 77.2903 99.5971C76.9203 97.93 74.3764 98.6351 74.7464 100.303V100.302Z" fill="#211715"/>
<path d="M95.9605 108.019C97.4098 108.693 98.9701 108.977 100.609 108.968C102.286 108.958 103.969 108.663 105.311 107.743C105.831 107.386 105.768 106.551 105.311 106.181C104.758 105.736 104.091 105.801 103.536 106.181C103.92 105.919 103.634 106.112 103.535 106.168C103.442 106.221 103.347 106.269 103.25 106.314C103.199 106.337 103.147 106.358 103.096 106.381C102.953 106.446 102.986 106.356 103.158 106.362C103.052 106.359 102.867 106.459 102.764 106.488C102.404 106.59 102.034 106.66 101.661 106.709C101.85 106.684 101.658 106.708 101.571 106.715C101.463 106.725 101.354 106.733 101.246 106.739C100.985 106.754 100.723 106.76 100.461 106.759C100.227 106.757 99.9934 106.75 99.7594 106.736C99.6521 106.73 99.5448 106.723 99.4382 106.713C99.4143 106.71 99.026 106.657 99.2976 106.699C98.9501 106.645 98.6062 106.587 98.2674 106.498C98.1231 106.46 97.9826 106.414 97.8402 106.371C97.524 106.276 98.0385 106.46 97.7524 106.342C97.5754 106.268 97.4017 106.192 97.2285 106.111C96.6482 105.842 95.8376 105.965 95.512 106.508C95.2058 107.018 95.3426 107.731 95.9624 108.019L95.9605 108.019Z" fill="#211715"/>
<path d="M100.359 96.9933C100.578 97.6911 100.789 98.4003 100.915 99.1146L100.866 98.8113C100.881 98.9094 100.887 99.0058 100.876 99.1044L100.924 98.8011C100.916 98.8467 100.904 98.8894 100.886 98.9328L101.024 98.6603C101.008 98.691 100.991 98.7173 100.968 98.7452L101.182 98.5143C101.156 98.5405 101.131 98.5611 101.099 98.5827L101.376 98.4043C101.311 98.4385 101.244 98.4664 101.174 98.4932L101.501 98.3781C101.39 98.4168 101.28 98.4448 101.161 98.4607L101.525 98.4202C101.418 98.4311 101.313 98.4299 101.206 98.4202L101.57 98.4607C101.45 98.4465 101.332 98.4225 101.212 98.4089C101.03 98.3615 100.848 98.3547 100.666 98.3883C100.484 98.3952 100.314 98.4402 100.157 98.5234C99.8731 98.662 99.6022 98.9328 99.5283 99.2047C99.4483 99.4966 99.4661 99.8244 99.6665 100.083C99.8443 100.313 100.142 100.569 100.484 100.607C100.763 100.639 101.034 100.698 101.318 100.708C101.757 100.724 102.164 100.612 102.555 100.462C103.04 100.277 103.419 99.91 103.548 99.475C103.658 99.1061 103.611 98.7874 103.536 98.4174C103.397 97.7338 103.208 97.0565 102.997 96.3861C102.91 96.1107 102.662 95.8479 102.368 95.7048C102.075 95.5617 101.643 95.5013 101.314 95.5896C100.602 95.7818 100.164 96.3741 100.359 96.9921V96.9933Z" fill="#211715"/>
<path d="M93.4512 62.459C93.8318 63.2998 94.2185 64.1379 94.5964 64.98C94.828 65.496 95.0569 66.0133 95.2811 66.5326C95.3136 66.6081 95.4233 66.8808 95.2675 66.4999C95.2919 66.5587 95.317 66.6168 95.342 66.675C95.3949 66.7993 95.447 66.9236 95.4985 67.0486C95.5919 67.2738 95.6827 67.5004 95.7707 67.7276C95.9001 68.0618 96.0701 68.3398 96.3931 68.5263C96.6836 68.6941 97.1117 68.7649 97.4367 68.6613C98.0794 68.4561 98.6537 67.7163 98.3828 67.0172C97.606 65.0134 96.6762 63.0685 95.7904 61.1103C95.5005 60.4693 94.5056 60.2688 93.9374 60.6304C93.2656 61.0575 93.1417 61.7739 93.4512 62.459Z" fill="#211715"/>
<path d="M96.2012 67.0703C94.027 69.4854 91.4225 71.617 89.016 73.8101C85.5435 76.9752 82.0523 80.1228 78.5125 83.2186C77.821 83.8237 77.1268 84.4268 76.4252 85.0215C76.1753 85.2331 75.9249 85.4441 75.6717 85.6505C75.5384 85.7592 74.9108 86.2374 75.3741 85.8964C74.7977 86.3203 74.4913 87.0107 74.8906 87.6669C75.2226 88.2125 76.1518 88.5587 76.7329 88.1316C79.5037 86.0938 82.0058 83.6619 84.5564 81.3827C88.0861 78.2287 91.5982 75.0552 95.0599 71.8325C96.0867 70.8767 97.1688 69.9403 98.1054 68.8997C99.2346 67.6456 97.3371 65.8072 96.2012 67.0697V67.0703Z" fill="#211715"/>
<path d="M96.6973 69.4175C100.659 68.932 104.496 69.6954 107.893 71.7635C111.048 73.6844 113.594 76.4783 115.641 79.4858C120.56 86.7141 123.132 95.3562 122.543 104.053C122.179 109.441 120.55 114.699 117.82 119.388C116.963 120.86 119.281 122.185 120.137 120.715C125.359 111.744 126.606 100.976 123.907 91.0211C121.785 83.191 117.237 75.062 110.41 70.2577C106.43 67.4565 101.567 66.1939 96.6966 66.7904C95.9774 66.8784 95.3549 67.3311 95.3549 68.1043C95.3549 68.7461 95.9727 69.5069 96.6966 69.4182L96.6973 69.4175Z" fill="#211715"/>
<path d="M80.1035 126.983C76.9246 126.559 73.6736 125.46 71.1484 123.437C68.4263 121.257 66.9372 118.188 66.3105 114.806C64.8766 107.071 68.4328 99.799 70.0268 92.4027C70.918 88.269 71.1136 83.9951 71.378 79.786C71.6268 75.8398 72.224 71.9054 73.3809 68.1171C74.3856 64.8282 75.8176 61.5997 77.951 58.8778C79.8029 56.515 82.1418 54.6045 84.7477 53.1272C95.902 46.8038 111.007 46.7015 120.614 55.9638C130.34 65.3414 133.141 79.9007 134.379 92.7848C135.048 99.7439 135.801 107.079 133.777 113.886C132.016 119.808 127.477 124.156 121.486 125.681C120.037 126.05 118.566 126.242 117.072 126.301C115.389 126.367 115.381 128.99 117.072 128.923C123.702 128.661 130.03 125.758 133.763 120.14C137.971 113.808 137.951 105.576 137.45 98.283C136.485 84.2094 134.462 69.0189 125.522 57.5447C121.175 51.9665 115.142 48.108 108.192 46.6688C101.183 45.217 94.0126 46.1995 87.443 48.9312C84.4242 50.1863 81.5787 51.7685 79.0929 53.9058C76.5913 56.0562 74.5766 58.7539 73.1092 61.7006C71.2265 65.4817 70.0721 69.5885 69.4152 73.7497C68.7235 78.1324 68.6487 82.5728 68.2018 86.9818C67.7739 91.2013 66.6255 95.1862 65.4456 99.2445C64.3247 103.101 63.3272 107.061 63.3554 111.105C63.3817 114.93 64.2105 118.986 66.4234 122.174C68.5024 125.169 71.5611 127.216 74.9677 128.432C76.6333 129.026 78.3533 129.372 80.1028 129.605C80.807 129.699 81.4153 128.935 81.4153 128.294C81.4153 127.508 80.809 127.077 80.1028 126.983L80.1035 126.983Z" fill="#211715"/>
<path d="M94.1359 152.323C91.9221 145.609 89.883 138.617 88.129 131.678C92.0542 133.102 96.2816 133.744 100.516 133.631C104.75 133.744 108.97 133.103 112.903 131.678C111.151 138.616 109.112 145.608 106.898 152.323H94.1359Z" fill="#7ABEE6"/>
<path d="M54.0645 152.323C57.6235 138.25 73.0786 128.147 87.1637 126.517C89.1376 135.127 91.5963 143.941 94.3226 152.323H54.0645Z" fill="white"/>
<path d="M106.71 152.323C109.5 143.94 112.017 135.128 114.046 126.517C128.222 128.544 143.4 138.54 146.968 152.323H106.71Z" fill="white"/>
<path d="M88.0122 132.619C92.0615 134.207 96.2355 134.784 100.504 134.774C102.595 134.769 104.649 134.683 106.723 134.345C107.791 134.171 108.851 133.943 109.899 133.655C110.397 133.518 110.893 133.368 111.385 133.204C111.631 133.123 111.876 133.038 112.12 132.95C112.191 132.924 112.855 132.672 112.647 132.672C114.364 132.672 114.366 129.649 112.647 129.649C112.226 129.649 111.804 129.893 111.411 130.035C110.923 130.211 110.43 130.375 109.936 130.525C108.944 130.826 107.94 131.073 106.928 131.268C104.907 131.658 102.862 131.781 100.814 131.759C98.8108 131.738 96.8278 131.729 94.8389 131.404C92.7558 131.064 90.7102 130.483 88.7225 129.703C87.0964 129.066 86.3981 131.985 88.0135 132.618L88.0122 132.619Z" fill="#211715"/>
<path d="M54.6215 152.418C57.4846 141.378 67.406 133.219 77.89 129.337C80.8819 128.229 83.9893 127.436 87.156 127.01C87.8708 126.914 88.2612 126.011 88.0884 125.391C87.8768 124.63 87.1634 124.374 86.4466 124.471C74.5857 126.068 62.809 132.739 56.1531 142.66C54.2951 145.429 52.8823 148.5 52.0474 151.719C51.6216 153.361 54.1957 154.062 54.6215 152.418Z" fill="#211715"/>
<path d="M147.954 151.719C144.976 139.896 134.827 131.235 123.973 126.966C120.934 125.771 117.768 124.918 114.537 124.471C113.844 124.374 113.145 124.64 112.942 125.39C112.776 126.004 113.15 126.913 113.848 127.009C124.696 128.513 135.613 134.609 141.726 143.989C143.418 146.584 144.693 149.402 145.453 152.419C145.866 154.059 148.368 153.364 147.954 151.719Z" fill="#211715"/>
<path d="M86.1 126.082C88.0082 134.972 90.2939 143.769 92.922 152.448C93.4044 154.042 95.776 153.36 95.2893 151.754C92.6606 143.075 90.3749 134.277 88.4673 125.387C88.1156 123.749 85.7483 124.442 86.1 126.082Z" fill="#211715"/>
<path d="M108.381 152.448C111.303 143.769 113.844 134.973 115.961 126.082C116.35 124.445 113.72 123.746 113.329 125.388C111.213 134.278 108.672 143.075 105.75 151.753C105.21 153.357 107.844 154.044 108.381 152.448Z" fill="#211715"/>
</svg>
