<svg width="200" height="200" viewBox="0 0 200 200" fill="none" xmlns="http://www.w3.org/2000/svg">
<path d="M60.4528 136.077C65.7537 130.126 73.4014 126.184 81.2458 124.278C82.7423 123.145 84.5673 121.981 86.1795 121.093C86.1968 121.165 86.2067 121.204 86.2067 121.204L86.5838 122.745C86.626 122.976 86.6683 123.208 86.6683 123.208C86.6798 123.272 86.6972 123.342 86.7151 123.418C86.7851 123.728 86.8609 124.043 86.9372 124.359C88.7744 132.133 90.9523 140.17 93.2956 147.872C81.7809 147.869 54.1558 147.869 54.1558 147.869C55.282 143.319 57.5038 139.388 60.4528 136.077Z" fill="#FEBE69"/>
<path d="M140.047 137.004C134.565 130.328 126.194 126.014 117.675 124.094C116.205 122.935 114.459 121.699 113.013 120.738C112.942 121.03 112.9 121.203 112.9 121.203L112.523 122.744C112.48 122.975 112.438 123.207 112.438 123.207C112.427 123.271 112.409 123.341 112.391 123.417C112.321 123.727 112.246 124.042 112.169 124.358C110.332 132.131 108.155 140.168 105.812 147.869C119.314 147.868 145.551 147.868 145.551 147.868C144.527 143.736 142.601 140.114 140.047 137.004H140.047Z" fill="#FEBE69"/>
<path d="M93.2164 147.612C91.6384 142.412 90.1361 137.062 88.764 131.746C91.9143 133.056 95.6806 133.82 100.043 133.82C103.95 133.82 107.338 133.148 110.268 132.031C108.916 137.253 107.439 142.505 105.89 147.612" fill="white"/>
<path d="M121.855 89.0089C122.565 88.3263 123.523 88.0701 124.341 88.0984C126.123 88.1615 126.882 89.1252 127.208 89.6915C128.182 91.3812 128.141 94.4944 127.487 96.4206C127.024 97.7846 126.265 99.8717 124.436 101.368C123.682 101.985 122.574 102.391 121.513 102.212L121.233 102.165C120.896 103.276 120.48 104.366 120.227 104.894C119.51 106.84 115.663 113.492 110.727 116.437C110.726 118.253 110.726 119.656 110.726 119.656C110.726 120.26 110.726 120.917 110.948 121.503C111.247 122.275 111.649 122.943 112.296 123.465C112.319 123.484 112.342 123.503 112.366 123.521C112.304 123.795 112.237 124.076 112.168 124.358C111.568 126.896 110.933 129.461 110.268 132.034C107.336 133.148 103.948 133.819 100.042 133.819C95.6801 133.819 91.9138 133.056 88.7635 131.749C88.1243 129.271 87.5129 126.802 86.9356 124.358C86.8986 124.204 86.8616 124.05 86.8252 123.897C87.0247 123.766 87.2196 123.621 87.4146 123.464C88.0613 122.943 88.4633 122.275 88.7618 121.503C88.9845 120.916 88.9845 120.259 88.9845 119.656C88.9845 119.656 88.9845 118.339 88.9839 116.407C86.9848 115.267 85.1517 113.627 83.3944 111.524C80.7595 108.371 79.2596 104.974 78.4312 102.161C77.3009 102.451 76.0787 102.031 75.2683 101.368C73.4392 99.8711 72.6808 97.784 72.2175 96.42C71.5638 94.4938 71.5222 91.3806 72.4963 89.6909C72.8226 89.1246 73.5809 88.1609 75.3631 88.0979C76.1822 88.0689 77.139 88.3252 77.8493 89.0083C77.8493 89.0083 72.0897 69.0645 99.8507 69.0645C127.612 69.0645 121.852 89.0083 121.852 89.0083L121.855 89.0089Z" fill="white"/>
<path d="M87.8292 117.342V119.397C87.8292 120.059 87.8546 120.731 87.5955 121.318C87.0685 122.512 85.9504 123.18 84.7807 123.744C83.3167 124.449 81.7375 124.97 80.2243 125.566C79.6435 125.794 79.238 126.341 79.4162 126.989C79.5683 127.542 80.2543 128.027 80.8392 127.797C82.6723 127.075 84.6026 126.458 86.346 125.542C87.8008 124.778 89.0486 123.76 89.708 122.222C90.357 120.71 90.1424 118.953 90.1424 117.341C90.1424 115.852 87.8286 115.85 87.8286 117.341L87.8292 117.342Z" fill="#211715"/>
<path d="M109.569 116.831V119.103C109.569 120.005 109.528 120.948 109.834 121.811C110.42 123.467 111.641 124.592 113.15 125.426C114.94 126.416 116.964 127.046 118.867 127.797C119.449 128.027 120.138 127.546 120.29 126.989C120.471 126.332 120.066 125.796 119.482 125.566C117.902 124.942 116.24 124.406 114.723 123.642C113.572 123.063 112.411 122.333 112.009 121.035C111.788 120.32 111.883 119.498 111.883 118.759V116.831C111.883 115.343 109.569 115.34 109.569 116.831Z" fill="#211715"/>
<path d="M85.3106 85.8586C83.4804 87.0398 81.2747 87.8814 78.8614 87.9144L77.852 89.0088C77.1417 88.3262 76.1843 88.07 75.3658 88.0983C74.9135 88.1145 74.5271 88.188 74.1979 88.2996C72.7703 83.9647 72.1438 79.1393 73.0254 74.319C73.8219 69.9633 75.791 65.8129 78.7099 62.4787C87.8072 52.0868 107.9 48.7792 117.257 60.7936C118.613 61.8077 119.978 62.8535 121.212 64.0364C127.449 70.0153 128.569 80.5675 125.639 88.3448C125.282 88.2088 124.854 88.1163 124.342 88.0978C123.37 88.0636 122.204 88.4309 121.489 89.4374C118.176 87.4915 117.158 84.273 116.341 81.2772C115.894 79.6361 115.416 77.9349 113.99 76.612C112.565 75.2891 109.898 74.4654 107.645 75.1647L103.422 73.7035C99.7985 73.2246 96.1057 74.9096 93.7809 76.9845C91.4561 79.0594 90.047 81.5398 87.9275 83.7148C87.183 84.479 86.3021 85.2176 85.3112 85.8574L85.3106 85.8586Z" fill="#3D8DCC"/>
<path d="M117.149 58.8761C111.239 52.4234 101.983 50.901 93.7212 52.704C89.598 53.6041 85.5841 55.3325 82.1666 57.8175C78.188 60.7098 75.1679 64.5819 73.3221 69.1471C70.8093 75.3631 71.0274 82.2779 73.0757 88.5894C73.5332 89.9997 75.7684 89.3964 75.3068 87.9745C73.5789 82.651 73.1931 76.9637 74.899 71.5818C76.2832 67.2139 78.9285 63.3435 82.4877 60.4634C88.4122 55.6703 96.8339 53.3148 104.369 54.6164C108.644 55.3545 112.567 57.2963 115.513 60.5125C116.521 61.6127 118.154 59.9734 117.149 58.8767V58.8761Z" fill="#211715"/>
<path d="M126.973 88.0442C129.279 81.2317 128.779 73.0536 124.956 66.8688C123.801 64.9998 122.336 63.4131 120.663 61.9988C119.532 61.0432 117.887 62.6721 119.027 63.6346C120.8 65.1328 122.297 66.793 123.424 68.8315C124.448 70.6825 125.133 72.6955 125.555 74.7658C126.41 78.9544 126.111 83.3842 124.741 87.4293C124.263 88.843 126.497 89.4492 126.973 88.0442Z" fill="#211715"/>
<path d="M107.951 76.2811C109.605 75.805 111.513 76.1596 112.895 77.1974C114.349 78.2895 114.816 80.1064 115.275 81.77C116.242 85.2766 117.698 88.5206 120.942 90.4595C122.223 91.2254 123.388 89.2257 122.11 88.4616C120.491 87.4938 119.365 86.0922 118.588 84.3858C117.85 82.7638 117.551 80.999 116.964 79.3255C116.291 77.4039 115.142 75.6911 113.297 74.7314C111.477 73.7839 109.32 73.4791 107.336 74.05C105.908 74.4613 106.516 76.6947 107.951 76.2811Z" fill="#211715"/>
<path d="M103.421 72.5474C100.857 72.2431 98.2685 72.891 95.994 74.0705C93.7195 75.2499 91.9281 77.0344 90.3385 79.0162C88.8455 80.8771 87.4405 82.871 85.5107 84.316C83.581 85.761 81.2915 86.6963 78.8608 86.7576C77.3748 86.7952 77.369 89.1091 78.8608 89.0715C81.3522 89.0084 83.7621 88.224 85.8578 86.8809C87.9535 85.5377 89.5466 83.7375 91.0662 81.8038C92.5858 79.87 94.1204 77.9004 96.2428 76.5902C98.4021 75.2569 100.883 74.5604 103.421 74.8618C104.042 74.9358 104.578 74.277 104.578 73.7049C104.578 73.0182 104.044 72.622 103.421 72.548L103.421 72.5474Z" fill="#211715"/>
<path d="M95.7505 107.622C97.1024 108.336 98.5577 108.636 100.086 108.626C101.648 108.616 103.218 108.305 104.468 107.331C104.948 106.957 104.89 106.082 104.468 105.695C103.959 105.228 103.344 105.297 102.833 105.695C103.185 105.42 102.919 105.625 102.828 105.684C102.742 105.739 102.653 105.791 102.561 105.838C102.514 105.863 102.466 105.885 102.418 105.909C102.265 105.988 102.365 105.867 102.472 105.891C102.399 105.875 102.179 106.001 102.103 106.025C101.767 106.133 101.421 106.208 101.072 106.26C101.246 106.234 101.061 106.26 100.984 106.268C100.883 106.278 100.781 106.286 100.68 106.293C100.436 106.308 100.192 106.315 99.9478 106.313C99.7291 106.312 99.5105 106.304 99.2918 106.289C99.1917 106.282 99.0917 106.274 98.9916 106.264C98.9725 106.263 98.6104 106.206 98.8557 106.25C98.5306 106.193 98.2095 106.131 97.8931 106.036C97.7583 105.996 97.627 105.948 97.4934 105.902C97.2007 105.802 97.6721 105.994 97.4078 105.869C97.2429 105.791 97.0798 105.71 96.9184 105.625C96.3834 105.343 95.636 105.472 95.3358 106.04C95.0535 106.575 95.1796 107.322 95.7511 107.623L95.7505 107.622Z" fill="#211715"/>
<path d="M99.4822 97.4292C99.6702 98.1471 99.8513 98.8759 99.9589 99.6112L99.9178 99.3034C99.9305 99.4041 99.9363 99.5036 99.9259 99.6048L99.967 99.2971C99.96 99.3439 99.9496 99.3879 99.934 99.4324L100.051 99.1559C100.037 99.1877 100.022 99.2144 100.003 99.2433L100.184 99.009C100.161 99.0362 100.14 99.057 100.113 99.079L100.347 98.8979C100.292 98.9332 100.234 98.9621 100.174 98.9893L100.451 98.8725C100.356 98.9124 100.261 98.9413 100.159 98.9575L100.467 98.9164C100.375 98.9274 100.285 98.9269 100.193 98.9164L100.501 98.9575C100.398 98.943 100.297 98.9182 100.194 98.9043C100.04 98.8563 99.886 98.8493 99.7321 98.8835C99.5782 98.8904 99.4348 98.9361 99.3017 99.0206C99.0617 99.1611 98.8326 99.4359 98.7701 99.7118C98.7025 100.008 98.7175 100.341 98.887 100.603C99.0374 100.836 99.289 101.096 99.5782 101.135C99.816 101.167 100.047 101.227 100.289 101.238C100.662 101.254 101.008 101.139 101.341 100.987C101.754 100.798 102.076 100.425 102.185 99.9808C102.278 99.6048 102.239 99.2785 102.175 98.902C102.056 98.1992 101.894 97.5027 101.713 96.8132C101.559 96.2278 100.879 95.8142 100.29 96.0051C99.687 96.2 99.3174 96.801 99.4816 97.4281L99.4822 97.4292Z" fill="#211715"/>
<path d="M87.9373 91.2418C87.5729 92.4259 87.8106 95.1493 90.0533 95.3812C93.0178 95.3633 93.1758 92.0708 92.1774 90.5222C91.36 89.2548 88.9577 88.7273 87.9367 91.2418H87.9373Z" fill="#211715"/>
<path d="M111.769 91.2418C112.133 92.4259 111.896 95.1493 109.653 95.3812C106.688 95.3633 106.53 92.0708 107.528 90.5222C108.345 89.2548 110.748 88.7273 111.769 91.2418Z" fill="#211715"/>
<path d="M78.6698 88.1909C77.2162 86.894 75.1522 86.5857 73.3718 87.3915C72.0679 87.9821 71.283 89.2014 70.9168 90.5475C70.0445 93.7521 70.8757 97.4889 72.7112 100.22C73.9363 102.043 75.8504 103.673 78.1932 103.368C78.8127 103.288 79.3501 102.894 79.3501 102.211C79.3501 101.649 78.8173 100.974 78.1932 101.055C74.981 101.472 73.1664 96.8116 72.9449 94.2293C72.8292 92.8781 72.8257 91.1774 73.6564 90.0246C73.5436 90.1813 73.772 89.8956 73.7784 89.8898C73.8328 89.8377 73.919 89.7446 73.9699 89.7047C74.2134 89.515 74.5015 89.3999 74.7988 89.3293C75.5826 89.1436 76.4237 89.2813 77.0339 89.8262C78.1417 90.8147 79.7839 89.1847 78.6698 88.1909Z" fill="#211715"/>
<path d="M122.673 89.8271C123.256 89.3065 124.052 89.1578 124.807 89.3088C125.14 89.3753 125.467 89.4939 125.737 89.7056C125.805 89.7594 126.116 90.1163 126.05 90.0255C126.881 91.1778 126.878 92.8796 126.762 94.2303C126.54 96.8125 124.726 101.472 121.514 101.055C120.893 100.975 120.357 101.645 120.357 102.212C120.357 102.904 120.891 103.288 121.514 103.369C125.366 103.869 127.698 99.666 128.657 96.5609C129.505 93.8179 129.541 89.4396 126.841 87.6654C125.049 86.4877 122.597 86.7995 121.037 88.1918C119.923 89.185 121.564 90.8169 122.673 89.8277V89.8271Z" fill="#211715"/>
<path d="M120.532 100.241C120.207 101.813 119.646 103.303 119.035 104.782C119.157 104.486 118.936 104.996 118.884 105.105C118.782 105.317 118.676 105.528 118.566 105.736C118.297 106.249 118.007 106.753 117.706 107.248C116.117 109.862 114.178 112.331 111.802 114.277C110.517 115.33 109.043 116.18 107.417 116.559C105.967 116.897 106.581 119.128 108.031 118.79C111.387 118.008 114.175 115.566 116.365 113.015C118.171 110.913 119.856 108.549 121.002 106.015C121.063 105.879 121.121 105.743 121.179 105.606C121.194 105.57 121.347 105.201 121.298 105.315C121.236 105.461 121.327 105.256 121.333 105.244C121.393 105.106 121.451 104.969 121.508 104.831C121.599 104.615 121.685 104.398 121.768 104.179C122.177 103.098 122.529 101.989 122.764 100.857C123.065 99.4035 120.835 98.7823 120.532 100.242V100.241Z" fill="#211715"/>
<path d="M76.8798 100.778C77.8805 105.182 79.9462 109.3 82.8986 112.72C85.744 116.015 89.3952 118.621 93.7775 119.275C94.3947 119.367 95.0212 119.12 95.2005 118.467C95.3503 117.921 95.0143 117.136 94.3924 117.044C90.3554 116.441 87.156 114.12 84.5344 111.083C81.84 107.963 80.0219 104.173 79.1103 100.163C78.7806 98.7113 76.5489 99.3257 76.8792 100.778L76.8798 100.778Z" fill="#211715"/>
<path d="M84.7149 130.948C88.1029 133.094 91.9733 134.258 95.9346 134.736C100.352 135.27 104.965 134.973 109.218 133.623C111.31 132.959 113.323 132.038 115.194 130.891C116.461 130.113 115.299 128.111 114.026 128.893C107.33 133.001 98.6874 133.719 91.2306 131.412C89.342 130.828 87.5522 130.008 85.8822 128.95C84.6206 128.151 83.4585 130.152 84.7143 130.948H84.7149Z" fill="#211715"/>
<path d="M55.2709 148.176C58.04 137.173 67.6226 129.78 78.0267 126.394C80.938 125.446 83.946 124.765 86.9875 124.403C87.6076 124.33 88.1444 123.925 88.1444 123.247C88.1444 122.679 87.6122 122.016 86.9875 122.09C75.5116 123.454 63.732 128.742 57.0757 138.537C55.2143 141.277 53.8479 144.35 53.0398 147.561C52.6766 149.005 54.9071 149.621 55.2709 148.176V148.176Z" fill="#211715"/>
<path d="M79.507 146.341C78.2228 143.939 76.9774 141.559 75.7817 139.224C75.6649 138.99 75.5596 138.74 75.5706 138.473C75.5816 138.156 75.7372 137.856 75.9489 137.622C77.4055 136.038 79.0014 134.52 80.5638 133.052C79.1796 132.262 77.7948 131.473 76.4105 130.683C76.2549 130.594 76.0883 130.489 76.0438 130.311C76.0102 130.16 76.0773 129.999 76.1496 129.86C76.7836 128.548 78.0626 127.08 79.5689 125.673C81.166 124.176 83.8882 122.354 86.1812 121.092C86.1985 121.165 86.2078 121.203 86.2078 121.203L86.5849 122.744C86.6271 122.975 86.6694 123.207 86.6694 123.207C86.6809 123.271 86.6983 123.341 86.7162 123.417C86.7862 123.727 86.862 124.042 86.9383 124.358C88.7547 132.045 90.9048 139.989 93.2175 147.612L79.5081 146.34L79.507 146.341Z" fill="#FEBE69"/>
<path d="M85.0913 121.511C86.1111 125.676 87.0638 129.856 88.1576 134.004C89.3869 138.667 90.7023 143.306 92.101 147.92C92.5319 149.341 94.7659 148.736 94.332 147.305C92.9339 142.691 91.6179 138.052 90.3887 133.389C89.2949 129.241 88.3422 125.061 87.3224 120.896C86.9683 119.451 84.7367 120.063 85.0913 121.511Z" fill="#211715"/>
<path d="M80.5061 145.757C79.2873 143.476 78.0598 141.196 76.9047 138.882C76.9926 139.058 76.7225 138.518 76.7201 138.547C76.7375 138.325 77.1731 138.003 77.3188 137.849C77.7544 137.391 78.1981 136.939 78.647 136.493C79.543 135.603 80.461 134.735 81.3807 133.87C81.9222 133.361 81.7793 132.414 81.1465 132.053L78.9478 130.799L77.9708 130.242L77.3599 129.894C77.2731 129.845 76.9851 129.618 77.0418 129.727L77.1997 130.311C77.2211 129.937 77.851 129.255 78.0749 128.961C78.4798 128.431 78.935 127.936 79.3989 127.457C80.2377 126.593 81.1326 125.792 82.1003 125.075C84.0081 123.661 86.0517 122.39 88.1885 121.352C89.5277 120.702 88.3557 118.706 87.0206 119.354C83.8698 120.884 80.756 122.88 78.2461 125.336C77.4918 126.074 76.7867 126.855 76.1498 127.697C75.6315 128.382 74.9067 129.3 74.8928 130.195C74.8743 131.368 76.0636 131.817 76.9255 132.308C77.9436 132.889 78.9616 133.469 79.9797 134.05L79.7454 132.233C78.6603 133.253 77.5791 134.277 76.5321 135.337C75.5667 136.314 74.1414 137.429 74.4671 138.977C74.6007 139.611 74.9865 140.205 75.2804 140.776C75.6159 141.427 75.9531 142.077 76.2915 142.727C77.0233 144.13 77.7625 145.528 78.5081 146.923C79.2104 148.237 81.2083 147.07 80.5061 145.756V145.757Z" fill="#211715"/>
<path d="M146.667 147.561C143.697 135.759 133.455 127.797 122.295 124.163C119.179 123.148 115.971 122.477 112.719 122.09C112.098 122.016 111.562 122.675 111.562 123.247C111.562 123.933 112.096 124.329 112.719 124.404C123.317 125.663 134.485 130.653 140.633 139.705C142.392 142.296 143.671 145.14 144.435 148.176C144.798 149.619 147.03 149.008 146.666 147.561L146.667 147.561Z" fill="#211715"/>
<path d="M105.89 147.613C108.203 139.99 110.353 132.046 112.169 124.359C112.245 124.044 112.321 123.728 112.391 123.418C112.409 123.343 112.427 123.273 112.438 123.208C112.438 123.208 112.481 122.977 112.523 122.745L112.9 121.204L113.013 120.74C115.152 122.16 117.954 124.19 119.538 125.674C121.045 127.081 122.324 128.549 122.957 129.861C123.03 130 123.096 130.161 123.063 130.312C123.019 130.49 122.852 130.595 122.697 130.684L118.543 133.053C120.106 134.521 121.702 136.039 123.158 137.624C123.369 137.857 123.525 138.157 123.537 138.474C123.548 138.741 123.442 138.992 123.325 139.225C122.13 141.56 120.884 143.94 119.6 146.342L105.891 147.613L105.89 147.613Z" fill="#FEBE69"/>
<path d="M111.784 120.896C110.764 125.061 109.812 129.24 108.718 133.389C107.488 138.051 106.173 142.69 104.774 147.305C104.342 148.733 106.574 149.343 107.005 147.919C108.404 143.305 109.72 138.666 110.949 134.004C112.043 129.855 112.995 125.676 114.015 121.511C114.369 120.065 112.139 119.448 111.784 120.896Z" fill="#211715"/>
<path d="M120.599 146.924C121.322 145.57 122.041 144.212 122.751 142.85C123.09 142.2 123.428 141.549 123.764 140.898C124.077 140.291 124.498 139.654 124.64 138.978C124.958 137.467 123.614 136.392 122.671 135.435C121.594 134.341 120.479 133.285 119.362 132.234L119.128 134.051L122.304 132.24C123.189 131.735 124.29 131.282 124.208 130.082C124.145 129.153 123.342 128.192 122.794 127.486C122.118 126.613 121.362 125.809 120.562 125.048C118.078 122.687 115.155 120.687 112.256 118.873C110.989 118.082 109.827 120.082 111.088 120.871C113.057 122.103 114.979 123.436 116.805 124.871C117.719 125.59 118.598 126.345 119.421 127.167C119.945 127.69 120.456 128.233 120.916 128.813C121.122 129.072 121.314 129.343 121.493 129.621C121.593 129.777 121.897 130.131 121.908 130.311L122.066 129.727C122.136 129.59 121.931 129.79 121.869 129.824C121.664 129.936 121.462 130.056 121.259 130.172L120.159 130.799L117.96 132.053C117.328 132.414 117.185 133.361 117.726 133.87C118.646 134.735 119.564 135.603 120.46 136.493C120.909 136.939 121.352 137.39 121.788 137.849C121.935 138.005 122.31 138.285 122.363 138.493C122.391 138.6 122.256 138.774 122.202 138.882C121.047 141.195 119.819 143.476 118.601 145.756C117.899 147.07 119.896 148.24 120.599 146.924Z" fill="#211715"/>
</svg>
