<svg width="200" height="200" viewBox="0 0 200 200" fill="none" xmlns="http://www.w3.org/2000/svg">
<path d="M123.529 88.0363C124.311 87.2803 125.365 86.9965 126.267 87.0279C128.23 87.0977 129.065 88.165 129.425 88.7922C130.497 90.6635 130.452 94.1114 129.732 96.2447C129.221 97.7553 128.386 100.067 126.372 101.724C125.542 102.407 124.321 102.857 123.153 102.659C123.153 102.659 123.074 102.645 122.93 102.622C122.549 103.74 122.072 104.734 121.912 105.226C121.107 107.422 116.688 115.083 111.081 118.155C111.118 119.639 111.062 119.982 111.179 121.6C111.227 122.258 111.278 122.968 111.52 123.609C111.845 124.452 112.281 125.182 112.983 125.752C114.471 126.957 116 127.533 117.883 128.245C117.883 128.245 119.38 128.802 120.07 129.075C120.07 129.075 116.85 142.22 99.6509 142.22C82.4517 142.22 80.11 129.004 80.11 129.004C80.8471 128.712 82.0746 128.246 82.0746 128.246C83.9576 127.533 85.4864 126.957 86.9744 125.752C87.6771 125.182 88.114 124.452 88.4383 123.609C88.6803 122.968 88.7307 122.258 88.7784 121.601C88.8861 120.12 88.8485 119.707 88.8702 118.511C86.2731 117.14 83.8703 115.055 81.7459 112.498C78.9934 109.185 77.3766 105.627 76.4517 102.624C75.2306 102.904 73.9247 102.443 73.0513 101.725C71.0371 100.068 70.202 97.7566 69.6918 96.246C68.9719 94.1127 68.9261 90.6648 69.9988 88.7935C70.3581 88.1663 71.1932 87.099 73.1565 87.0292C74.0585 86.9971 75.1121 87.281 75.895 88.0375C75.895 88.0375 69.3472 61.373 99.7114 61.373C130.076 61.373 123.528 88.0375 123.528 88.0375L123.529 88.0363Z" fill="white"/>
<path d="M80.5901 130.476C82.7775 129.553 85.1471 128.839 87.0617 127.331C88.2963 126.359 89.2454 125.034 89.5589 123.39C89.8177 122.035 89.8232 120.608 89.8305 119.228C89.839 117.547 87.4086 117.545 87.4001 119.228C87.3946 120.343 87.4141 121.517 87.2306 122.609C87.027 123.82 86.4121 124.676 85.4661 125.352C83.7739 126.562 81.8387 127.157 79.9442 127.957C79.3336 128.214 78.9082 128.832 79.0954 129.564C79.2552 130.19 79.9758 130.735 80.5901 130.476Z" fill="#211715"/>
<path d="M109.593 119.221C109.601 120.642 109.586 122.143 109.919 123.529C110.323 125.214 111.405 126.502 112.796 127.464C114.849 128.884 117.334 129.571 119.635 130.477C120.284 130.733 121.052 130.196 121.223 129.57C121.424 128.833 120.973 128.229 120.321 127.972C118.333 127.189 116.291 126.614 114.493 125.481C113.444 124.819 112.697 124.042 112.408 122.839C112.133 121.689 112.181 120.406 112.175 119.221C112.166 117.55 109.584 117.546 109.593 119.221Z" fill="#211715"/>
<path d="M100.015 142.505C95.6176 135.823 91.2202 129.14 86.8227 122.458C85.6632 123.297 84.5927 124.258 83.6358 125.322C83.297 125.698 82.9634 126.103 82.8247 126.589C82.7853 126.728 82.7627 126.869 82.7511 127.009C69.9588 129.926 57.0988 139.395 53.8983 152.102H145.525C142.376 139.596 129.87 130.226 117.281 127.152C117.281 126.962 117.258 126.773 117.206 126.589C117.067 126.103 116.734 125.698 116.395 125.322C115.438 124.258 114.368 123.297 113.208 122.458C108.811 129.14 104.413 135.823 100.016 142.505" fill="white"/>
<path d="M94.9553 107.883C96.4684 108.664 98.0976 108.994 99.8088 108.983C101.56 108.972 103.317 108.629 104.718 107.563C105.262 107.149 105.196 106.179 104.718 105.75C104.141 105.233 103.443 105.308 102.863 105.75C103.264 105.445 102.966 105.67 102.863 105.734C102.766 105.795 102.666 105.85 102.564 105.902C102.512 105.929 102.457 105.954 102.404 105.98C102.256 106.054 102.283 105.954 102.468 105.958C102.356 105.956 102.167 106.07 102.057 106.104C101.682 106.222 101.296 106.304 100.906 106.361C101.104 106.332 100.904 106.359 100.812 106.368C100.7 106.379 100.586 106.388 100.473 106.396C100.201 106.413 99.9276 106.42 99.6547 106.418C99.4101 106.417 99.1661 106.409 98.9221 106.393C98.8099 106.385 98.6984 106.377 98.5863 106.366C98.5607 106.363 98.1553 106.301 98.44 106.35C98.0773 106.287 97.7185 106.22 97.3643 106.117C97.2135 106.073 97.0666 106.02 96.9184 105.97C96.5878 105.86 97.1256 106.074 96.8272 105.936C96.6429 105.85 96.4612 105.762 96.2808 105.669C95.6741 105.356 94.8267 105.499 94.4863 106.129C94.1662 106.722 94.3092 107.549 94.9572 107.883H94.9553Z" fill="#211715"/>
<path d="M122.344 100.052C122.194 101.156 121.833 102.205 121.417 103.233C121.267 103.608 121.104 103.977 120.955 104.352C120.904 104.482 120.856 104.612 120.809 104.743C120.79 104.793 120.682 105.068 120.755 104.889C120.804 104.767 120.587 105.256 120.529 105.379C120.412 105.622 120.29 105.862 120.164 106.101C119.856 106.685 119.526 107.258 119.183 107.822C117.438 110.684 115.321 113.38 112.737 115.523C111.301 116.715 109.65 117.678 107.827 118.105C106.201 118.486 106.889 121.003 108.516 120.622C112.21 119.756 115.284 117.07 117.707 114.254C119.733 111.898 121.615 109.245 122.908 106.401C123.717 104.622 124.582 102.688 124.846 100.746C124.94 100.048 124.678 99.3451 123.939 99.1409C123.334 98.9739 122.439 99.3497 122.343 100.052H122.344Z" fill="#211715"/>
<path d="M74.598 100.72C75.7133 105.563 77.9692 110.094 81.1883 113.854C84.4074 117.615 88.6553 120.785 93.6021 121.538C94.2868 121.642 94.9819 121.364 95.1808 120.631C95.3477 120.018 94.9742 119.139 94.2843 119.034C89.7206 118.34 85.9611 115.474 83.0032 112.019C80.0716 108.594 78.0866 104.43 77.0733 100.03C76.6985 98.4035 74.2225 99.0923 74.598 100.72Z" fill="#211715"/>
<path d="M69.2944 71.9914C68.9082 75.8182 69.3977 79.6918 71.0415 83.0861C71.0415 83.0861 71.9763 85.3618 72.7725 87.2986C72.8674 87.2882 72.9656 87.2817 73.067 87.2784C73.9755 87.2459 75.0367 87.534 75.8252 88.3021L77.3297 84.5729C80.7276 83.9407 83.7476 81.7646 85.927 79.1117C86.1933 78.7878 86.448 78.4568 86.6925 78.1179C90.3104 80.0821 94.6854 82.4579 94.6854 82.4579C97.1312 82.2706 99.3216 80.7389 100.872 78.8125C102.406 76.9063 103.34 74.6632 104.349 72.4512C105.41 70.1262 106.224 67.6508 106.758 65.1463L111.61 68.8352C112.037 72.6535 112.418 75.6654 113.696 78.8737C114.814 81.6794 116.501 84.251 118.698 86.3074C119.892 87.4254 121.232 88.386 122.683 89.1307L122.858 89.2205C123.329 88.7613 123.8 88.3021 123.8 88.3021C124.588 87.5347 125.65 87.2466 126.558 87.2784C127.339 87.3064 127.942 87.4918 128.409 87.7454C129.056 85.3787 129.684 83.0861 129.684 83.0861C130.632 76.6689 130.647 69.8172 127.778 63.8572C125.155 58.4058 120.458 54.6902 114.719 53.1625C114.719 53.1625 111.867 52.4035 109.015 51.6439L108.473 51.2432C106.078 49.4736 103.124 48.5377 100.15 48.1501C89.2858 46.7329 78.7662 51.3544 73.0881 60.686C71.0729 63.9984 69.7005 67.9689 69.2944 71.9914Z" fill="#FEBE69"/>
<path d="M99.5735 97.0188C99.7646 97.7475 99.9475 98.4875 100.057 99.2329L100.015 98.9159C100.028 99.0184 100.033 99.1191 100.023 99.2216L100.065 98.9046C100.058 98.9523 100.048 98.9964 100.032 99.0423L100.152 98.7575C100.138 98.7896 100.123 98.817 100.104 98.8456L100.29 98.6043C100.268 98.6317 100.246 98.6532 100.218 98.6758L100.46 98.4893C100.404 98.5251 100.345 98.5543 100.285 98.5823L100.569 98.4619C100.473 98.5024 100.377 98.5316 100.274 98.5483L100.591 98.506C100.498 98.5173 100.407 98.5161 100.313 98.506L100.63 98.5483C100.525 98.534 100.423 98.5084 100.318 98.4941C100.159 98.4446 100.001 98.4375 99.8427 98.4727C99.6842 98.4798 99.5365 98.5269 99.3996 98.6139C99.1524 98.7586 98.9166 99.0417 98.8523 99.3259C98.7826 99.6309 98.7981 99.9735 98.9726 100.244C99.1274 100.484 99.3865 100.752 99.6842 100.792C99.9272 100.824 100.163 100.886 100.41 100.897C100.792 100.914 101.146 100.796 101.486 100.64C101.909 100.447 102.238 100.063 102.35 99.6089C102.446 99.2234 102.405 98.8903 102.34 98.5042C102.219 97.791 102.054 97.0838 101.871 96.3843C101.795 96.0965 101.579 95.8218 101.324 95.6723C101.068 95.5227 100.692 95.4596 100.406 95.5519C99.7855 95.7527 99.4049 96.3718 99.5741 97.0177L99.5735 97.0188Z" fill="#211715"/>
<path d="M86.3893 90.2115C85.9908 91.4697 86.2507 94.3635 88.7017 94.6099C91.9418 94.5912 92.1138 91.0923 91.0237 89.4473C90.1305 88.1005 87.505 87.5397 86.3893 90.2115Z" fill="#211715"/>
<path d="M113.035 90.2115C113.433 91.4697 113.173 94.3635 110.722 94.6099C107.482 94.5912 107.31 91.0923 108.4 89.4473C109.293 88.1005 111.919 87.5397 113.035 90.2115Z" fill="#211715"/>
<path d="M76.4894 86.9836C74.8536 85.5677 72.5311 85.2311 70.5275 86.1108C69.0603 86.7556 68.177 88.0868 67.7643 89.5563C66.7827 93.0548 67.7181 97.1343 69.7835 100.116C71.1622 102.106 73.3161 103.885 75.9524 103.553C76.6495 103.465 77.2543 103.035 77.2543 102.29C77.2543 101.675 76.6548 100.938 75.9524 101.027C72.3371 101.482 70.2958 96.3948 70.0465 93.5758C69.9163 92.1006 69.9124 90.244 70.8471 88.9854C70.7202 89.1565 70.9773 88.8446 70.9845 88.8383C71.0456 88.7814 71.1426 88.6798 71.1999 88.6362C71.474 88.4291 71.7981 88.3034 72.1327 88.2263C73.0147 88.0236 73.9612 88.1739 74.6479 88.7688C75.8945 89.848 77.7425 88.0678 76.4888 86.9829L76.4894 86.9836Z" fill="#211715"/>
<path d="M124.767 88.7768C125.421 88.2089 126.314 88.0468 127.161 88.2115C127.534 88.284 127.9 88.4134 128.203 88.6443C128.28 88.703 128.629 89.0923 128.555 88.9932C129.486 90.2502 129.483 92.1065 129.353 93.5798C129.104 96.3971 127.07 101.48 123.467 101.025C122.771 100.937 122.169 101.668 122.169 102.287C122.169 103.041 122.769 103.46 123.467 103.549C127.787 104.094 130.402 99.5091 131.479 96.122C132.43 93.1299 132.469 88.3541 129.441 86.4189C127.431 85.1342 124.682 85.4743 122.932 86.9931C121.683 88.0764 123.523 89.8564 124.766 88.7775L124.767 88.7768Z" fill="#211715"/>
<path d="M114.091 54.8634C118.055 55.9115 121.629 58.0618 124.191 61.2482C127.077 64.8371 128.347 69.4295 128.568 73.9426C128.704 76.716 128.498 79.5013 128.087 82.2451C127.987 82.916 128.257 83.5963 128.979 83.7918C129.58 83.9547 130.448 83.5894 130.549 82.9135C131.339 77.6371 131.546 72.1607 129.973 66.9956C128.577 62.4108 125.789 58.407 121.817 55.6323C119.697 54.1516 117.275 53.1004 114.77 52.4383C113.181 52.0183 112.503 54.444 114.091 54.8634Z" fill="#211715"/>
<path d="M108.967 50.4312C105.233 47.7661 100.442 46.9457 95.9357 47.0027C91.846 47.0547 87.8089 47.9498 84.0879 49.6444C76.4083 53.1426 70.726 60.2573 68.8972 68.4852C67.8032 73.4074 68.0705 78.6002 70.2769 83.1816C70.9845 84.65 73.17 83.3666 72.4649 81.9026C68.9859 74.6795 71.1606 65.5793 75.8185 59.4047C80.2097 53.5835 87.1697 50.0701 94.4052 49.5963C98.9675 49.2973 103.885 49.9048 107.688 52.6193C108.245 53.0171 109.098 52.7175 109.421 52.1645C109.794 51.5278 109.525 50.8297 108.966 50.4312H108.967Z" fill="#211715"/>
<path d="M105.332 64.9954C104.562 68.5729 103.224 71.9709 101.577 75.2158C100.175 77.9768 97.9539 80.9258 94.6845 81.2423C94.0068 81.3082 93.4237 81.7888 93.4237 82.5343C93.4237 83.1823 94.0024 83.8922 94.6845 83.8263C98.5906 83.4478 101.509 80.628 103.367 77.2526C105.342 73.666 106.898 69.7028 107.762 65.6821C108.111 64.0613 105.681 63.3694 105.331 64.9954H105.332Z" fill="#211715"/>
<path d="M90.0287 67.6734C88.0632 74.2604 84.4647 81.6327 77.2659 83.0833C75.6728 83.4042 76.3469 85.9192 77.9369 85.599C86.0168 83.971 90.2477 75.7906 92.4632 68.3674C92.9429 66.7596 90.5065 66.0715 90.0287 67.674V67.6734Z" fill="#211715"/>
<path d="M110.497 68.938C110.971 73.1448 111.561 77.2851 113.481 81.1062C115.359 84.8437 118.349 88.0353 122.051 89.9641C123.497 90.7174 124.779 88.5141 123.329 87.7589C119.974 86.0108 117.372 83.1997 115.668 79.8172C113.963 76.4347 113.451 72.6672 113.03 68.938C112.952 68.253 112.503 67.6611 111.763 67.6611C111.139 67.6611 110.419 68.2485 110.497 68.938Z" fill="#211715"/>
<path d="M124.415 101.796C122.556 101.796 121.271 103.232 121.271 104.911C121.271 106.79 122.584 108.085 124.415 108.085C126.317 108.085 127.559 106.778 127.559 104.911C127.559 103.22 126.267 101.796 124.415 101.796Z" fill="white"/>
<path d="M124.878 100.898C122.97 100.921 121.251 101.937 120.594 103.69C119.973 105.344 120.712 107.213 122.162 108.209C123.597 109.193 125.699 109.205 127.234 108.439C128.86 107.627 129.587 105.848 129.291 104.164C128.938 102.149 126.892 100.922 124.879 100.899C124.217 100.891 123.583 101.464 123.613 102.115C123.644 102.78 124.169 103.322 124.879 103.331C124.976 103.332 125.073 103.339 125.169 103.341C125.41 103.346 125.145 103.326 125.113 103.328C125.253 103.322 125.423 103.382 125.557 103.419C125.642 103.442 125.724 103.47 125.808 103.497C126.048 103.571 125.742 103.47 125.745 103.469C125.804 103.442 126.125 103.666 126.184 103.704L126.252 103.749C126.34 103.811 126.34 103.811 126.254 103.749L126.189 103.702C126.23 103.736 126.271 103.77 126.31 103.805C126.335 103.827 126.566 104.087 126.583 104.084C126.509 104.095 126.427 103.853 126.549 104.052C126.582 104.106 126.62 104.158 126.652 104.213C126.683 104.266 126.706 104.331 126.742 104.381C126.784 104.464 126.767 104.425 126.694 104.263C126.713 104.31 126.73 104.357 126.747 104.405C126.77 104.474 126.799 104.745 126.843 104.774C126.825 104.762 126.819 104.46 126.829 104.68C126.833 104.757 126.839 104.835 126.84 104.913C126.84 104.967 126.839 105.022 126.836 105.077L126.831 105.157C126.817 105.292 126.823 105.263 126.849 105.069C126.785 105.153 126.786 105.376 126.753 105.48C126.742 105.514 126.681 105.627 126.691 105.657C126.655 105.552 126.817 105.42 126.712 105.602C126.651 105.708 126.588 105.812 126.522 105.915C126.415 106.084 126.437 105.903 126.562 105.871C126.544 105.875 126.482 105.959 126.463 105.979C126.411 106.032 126.358 106.083 126.301 106.131C126.273 106.156 126.244 106.18 126.215 106.203C126.142 106.261 126.177 106.235 126.321 106.125C126.256 106.122 126.063 106.286 125.991 106.323C125.968 106.334 125.78 106.405 125.776 106.423C125.781 106.399 126.072 106.325 125.851 106.387C125.715 106.425 125.583 106.468 125.445 106.498C125.39 106.509 125.24 106.562 125.187 106.544L125.345 106.523C125.284 106.529 125.223 106.534 125.162 106.537C125.006 106.547 124.849 106.549 124.693 106.542C124.632 106.54 124.571 106.533 124.511 106.531C124.202 106.519 124.791 106.588 124.494 106.529C124.354 106.501 124.214 106.472 124.077 106.432C124.024 106.416 123.972 106.397 123.918 106.382C123.79 106.334 123.814 106.346 123.991 106.416C123.942 106.395 123.893 106.372 123.845 106.348C123.726 106.29 123.617 106.22 123.504 106.153C123.358 106.067 123.561 106.126 123.572 106.208C123.568 106.179 123.424 106.083 123.398 106.06C123.343 106.008 123.136 105.747 123.241 105.907C123.357 106.085 123.222 105.875 123.205 105.85C123.162 105.788 123.123 105.723 123.086 105.658L123.05 105.592C122.993 105.475 123.003 105.503 123.082 105.677C123.086 105.661 123.036 105.56 123.027 105.534C122.984 105.41 122.958 105.284 122.926 105.157C122.858 104.889 122.934 105.443 122.927 105.162C122.926 105.107 122.92 105.052 122.919 104.996C122.917 104.917 122.917 104.837 122.922 104.757C122.924 104.719 122.928 104.681 122.932 104.643C122.943 104.547 122.937 104.591 122.914 104.776C122.966 104.73 123.013 104.408 123.036 104.337C123.101 104.133 123.019 104.412 122.997 104.419C123.032 104.408 123.12 104.19 123.144 104.153C123.171 104.109 123.202 104.069 123.229 104.026C123.352 103.829 123.033 104.213 123.25 104.002C123.274 103.977 123.556 103.695 123.565 103.706C123.569 103.71 123.322 103.867 123.571 103.707C123.64 103.663 123.71 103.621 123.783 103.582C123.842 103.55 123.917 103.526 123.971 103.489C124.057 103.45 124.022 103.464 123.866 103.529C123.919 103.508 123.974 103.489 124.029 103.471C124.2 103.415 124.374 103.379 124.551 103.343C124.689 103.315 124.622 103.277 124.492 103.351C124.573 103.305 124.786 103.334 124.878 103.332C125.54 103.325 126.175 102.779 126.144 102.117C126.114 101.464 125.588 100.892 124.878 100.901V100.898Z" fill="#211715"/>
<path d="M55.542 152.097C58.3183 141.46 67.939 133.599 78.1052 129.859C81.0064 128.792 84.0196 128.028 87.0904 127.617C87.7835 127.525 88.1621 126.654 87.9944 126.057C87.7893 125.325 87.0975 125.078 86.4024 125.171C74.9011 126.71 63.4814 133.137 57.0272 142.695C55.2256 145.363 53.8555 148.322 53.0459 151.423C52.633 153.005 55.1291 153.681 55.542 152.097Z" fill="#211715"/>
<path d="M146.378 151.424C143.405 140.033 133.274 131.688 122.44 127.575C119.406 126.423 116.246 125.602 113.021 125.171C112.329 125.078 111.631 125.334 111.429 126.056C111.263 126.648 111.636 127.523 112.333 127.617C123.161 129.065 134.059 134.938 140.161 143.976C141.849 146.476 143.123 149.191 143.882 152.098C144.294 153.678 146.791 153.009 146.378 151.424Z" fill="#211715"/>
<path d="M93.4411 134.58C91.2718 136.307 88.63 137.32 86.0341 138.307C85.7421 138.418 85.378 138.518 85.1446 138.31C85.033 138.211 84.982 138.062 84.9361 137.919C83.8878 134.665 83.1411 131.316 82.7068 127.926C82.6475 127.461 82.5946 126.981 82.724 126.531C82.8611 126.051 83.1908 125.652 83.5256 125.281C84.4712 124.233 85.5291 123.285 86.675 122.458C91.0206 129.045 95.3662 135.633 99.7118 142.22" fill="white"/>
<path d="M105.983 134.58C108.152 136.307 110.794 137.32 113.39 138.307C113.682 138.418 114.046 138.518 114.279 138.31C114.391 138.211 114.442 138.062 114.488 137.919C115.536 134.665 116.283 131.316 116.717 127.926C116.776 127.461 116.829 126.981 116.7 126.531C116.563 126.051 116.233 125.652 115.898 125.281C114.952 124.233 113.895 123.285 112.749 122.458C108.403 129.045 104.057 135.633 99.7119 142.22" fill="white"/>
<path d="M92.9756 133.277C91.8948 134.122 90.6627 134.781 89.4197 135.354C88.8415 135.621 88.2543 135.866 87.6626 136.1C87.1235 136.315 86.3177 136.806 85.7394 136.767L86.3862 136.942L86.1888 136.838L86.6491 137.297C86.3061 136.819 86.2035 136.038 86.0394 135.462C85.8446 134.78 85.6625 134.094 85.4939 133.405C85.1561 132.027 84.8702 130.636 84.6375 129.236C84.5246 128.558 84.4016 127.873 84.3407 127.188C84.2836 126.547 84.3907 126.197 84.8214 125.707C85.6849 124.725 86.6747 123.834 87.728 123.06L85.9741 122.601C90.3428 129.245 94.7115 135.888 99.0803 142.532C99.9816 143.903 102.203 142.623 101.294 141.241C96.9257 134.597 92.557 127.954 88.1882 121.31C87.8389 120.779 87.0158 120.424 86.4343 120.851C85.3516 121.647 84.3214 122.506 83.3951 123.481C82.5361 124.384 81.7822 125.316 81.7483 126.619C81.7124 127.991 82.0765 129.468 82.3226 130.814C82.5688 132.159 82.8643 133.497 83.2079 134.821C83.3733 135.459 83.5502 136.093 83.7374 136.725C83.9201 137.341 84.0656 138.053 84.4355 138.587C85.3163 139.859 86.8228 139.161 87.953 138.72C90.3896 137.769 92.7198 136.703 94.7891 135.084C95.3346 134.658 95.2372 133.723 94.7891 133.276C94.2506 132.739 93.5224 132.848 92.9762 133.276L92.9756 133.277Z" fill="#211715"/>
<path d="M105.534 135.083C107.567 136.673 109.849 137.729 112.242 138.668C113.397 139.121 114.98 139.901 115.891 138.587C116.263 138.049 116.405 137.344 116.589 136.725C116.777 136.093 116.953 135.458 117.119 134.82C117.462 133.496 117.758 132.159 118.004 130.813C118.245 129.5 118.567 128.096 118.576 126.76C118.586 125.394 117.832 124.424 116.931 123.479C116.004 122.505 114.975 121.645 113.892 120.849C113.314 120.425 112.484 120.78 112.137 121.308C107.767 127.952 103.397 134.596 99.0275 141.24C98.1196 142.621 100.339 143.904 101.242 142.531C105.612 135.887 109.982 129.243 114.352 122.599L112.598 123.059C113.65 123.832 114.644 124.722 115.505 125.706C115.946 126.21 116.044 126.523 115.986 127.186C115.925 127.871 115.801 128.557 115.689 129.235C115.456 130.635 115.171 132.026 114.832 133.404C114.663 134.094 114.481 134.779 114.286 135.462C114.123 136.033 114.02 136.818 113.677 137.297L114.137 136.838L113.94 136.941L114.587 136.767C114.008 136.806 113.202 136.314 112.663 136.1C112.071 135.865 111.484 135.62 110.905 135.354C109.661 134.779 108.43 134.122 107.349 133.276C106.804 132.85 106.066 132.746 105.535 133.276C105.091 133.719 104.987 134.656 105.535 135.084L105.534 135.083Z" fill="#211715"/>
</svg>
