<svg width="200" height="200" viewBox="0 0 200 200" fill="none" xmlns="http://www.w3.org/2000/svg">
<path d="M124.888 86.8677C125.692 86.0956 126.775 85.8057 127.7 85.8378C129.716 85.9091 130.574 86.9992 130.943 87.6398C132.045 89.5511 131.999 93.0728 131.259 95.2517C130.735 96.7947 129.877 99.1555 127.808 100.848C126.955 101.546 125.701 102.005 124.501 101.803C124.501 101.803 124.386 101.783 124.183 101.749C123.803 103.007 123.333 104.239 123.045 104.837C122.248 107.003 118.021 114.322 112.568 117.73C112.566 120.02 112.566 121.535 112.566 121.535C112.566 122.218 112.566 122.961 112.818 123.625C113.156 124.497 113.611 125.253 114.342 125.843C115.891 127.091 117.483 127.687 119.443 128.425L122.123 129.482C122.123 129.482 116.352 139.749 99.9983 139.749C83.6451 139.749 78.4104 129.482 78.4104 129.482L81.0964 128.425C83.0568 127.687 84.6488 127.091 86.1977 125.843C86.9292 125.253 87.384 124.497 87.7216 123.625C87.9735 122.961 87.9736 122.217 87.9736 121.535C87.9736 121.535 87.9735 120.201 87.9729 118.01C85.6068 116.715 83.4481 114.809 81.3824 112.337C78.4025 108.77 76.7052 104.927 75.7682 101.744C74.4896 102.073 73.1076 101.598 72.1902 100.848C70.1212 99.1555 69.2634 96.7947 68.7392 95.2517C67.9998 93.0728 67.9527 89.5511 69.0546 87.6398C69.4237 86.9992 70.2815 85.9091 72.2976 85.8378C73.2241 85.8051 74.3064 86.0949 75.1099 86.8677C75.1099 86.8677 70.6925 65.1587 99.4834 65.1587C128.274 65.1587 124.885 86.8677 124.885 86.8677H124.888Z" fill="white"/>
<path d="M117.872 126.062C117.894 125.113 117.461 124.06 116.91 123.422C115.704 122.025 114.184 120.005 112.952 118.626C112.575 118.931 106.948 123.37 103.515 126.053H96.4844C93.0518 123.369 87.4245 118.93 87.0482 118.626C85.8154 120.005 84.2961 122.025 83.0901 123.422C82.5385 124.06 82.1066 125.113 82.1276 126.062C67.6307 128.047 51.9593 138.7 48.3068 153.453H151.692C148.04 138.7 132.368 128.047 117.872 126.062H117.872Z" fill="white"/>
<path d="M141.123 136.844C134.58 131.053 126.06 127.189 117.909 126.066C117.896 126.08 117.882 126.094 117.869 126.108C117.859 126.364 117.823 126.612 117.738 126.841C117.275 127.767 112.153 135.979 108.704 138.189L107.441 136.9L107.439 136.902C104.997 139.607 102.541 142.312 100.094 145.016C97.613 142.279 95.1317 139.542 92.6511 136.805L91.2954 138.189C87.8463 135.979 82.7248 127.767 82.2616 126.841C82.1719 126.601 82.1346 126.337 82.1281 126.067C74.1333 127.162 65.7827 130.886 59.2857 136.487C59.1228 142.124 59.3931 147.804 59.4611 153.445H140.936C141.003 147.923 141.263 142.364 141.122 136.844L141.123 136.844Z" fill="#A98A75"/>
<path d="M87.315 69.0818C83.0965 69.2683 80.1736 70.702 78.1432 74.3172C76.4537 77.3252 77.7211 85.1976 75.5003 87.3222C74.6902 86.2098 73.3874 85.8035 72.2993 85.8421C71.7117 85.863 71.2229 85.9703 70.8159 86.128C69.8664 82.6711 69.6355 79.2542 69.6067 76.2815C69.3999 68.9464 72.1599 61.5491 75.6194 58.1635C77.2199 55.8452 79.6926 53.5485 80.9555 52.6069C86.6044 48.3929 92.8095 46.3828 99.8895 46.3828C106.969 46.3828 114.146 48.126 119.37 54.5673C126.446 60.0232 129.74 64.154 130.253 76.2815C130.395 79.6599 130.002 82.4192 129.077 86.0875C128.692 85.952 128.237 85.8611 127.701 85.8421C126.466 85.7989 124.955 86.3283 124.203 87.8116C124.622 84.396 122.441 72.362 115.969 70.0745C115.969 70.0745 111.219 67.3603 102.542 67.3066C93.2741 67.249 87.3164 69.0825 87.3164 69.0825L87.315 69.0818Z" fill="#C6C6C6"/>
<path d="M125.56 86.73C125.511 83.4099 124.709 79.9883 123.459 76.9241C122.066 73.5104 119.928 70.1412 116.317 68.8122C114.734 68.2292 114.051 70.7582 115.621 71.336C118.449 72.3771 120.143 75.5251 121.154 78.1739C122.199 80.911 122.901 83.8483 122.943 86.73C122.968 88.413 125.586 88.4175 125.561 86.73H125.56Z" fill="#211715"/>
<path d="M111.396 68.0749C110.962 66.4842 110.473 64.8615 109.414 63.5659C108.967 63.0182 108.383 62.5922 107.808 62.1905C107.153 61.7331 106.472 61.3385 105.729 61.0408C105.092 60.7856 104.264 61.3189 104.12 61.9549C103.948 62.7113 104.351 63.2911 105.034 63.5646C104.598 63.3899 105.05 63.5783 105.16 63.6346C105.305 63.7098 105.448 63.7897 105.589 63.8728C105.883 64.0455 106.171 64.2307 106.451 64.4244C106.592 64.5225 106.729 64.6246 106.868 64.726C107.002 64.8242 106.646 64.5454 106.822 64.6914C106.879 64.7378 106.935 64.783 106.99 64.8301C107.197 65.0061 107.357 65.2489 107.564 65.4157C107.465 65.3352 107.397 65.19 107.53 65.3751C107.571 65.4334 107.611 65.4929 107.651 65.5531C107.725 65.667 107.793 65.7834 107.859 65.9019C107.927 66.0262 107.992 66.1525 108.052 66.2807C108.087 66.3534 108.119 66.4273 108.153 66.5013C108.266 66.7506 108.058 66.2552 108.15 66.498C108.431 67.2439 108.662 68.0017 108.872 68.7705C109.053 69.4307 109.811 69.9019 110.482 69.6846C111.158 69.4661 111.589 68.7823 111.396 68.0749Z" fill="#211715"/>
<path d="M105.016 67.5561C104.151 66.4012 103.224 65.3575 102.073 64.4807C101.113 63.7491 100.046 63.1583 98.9513 62.6531C97.9338 62.184 96.8404 61.879 95.7503 61.6343C94.6019 61.3759 93.3823 61.1383 92.2005 61.2018C91.4945 61.2398 90.8918 61.7763 90.8918 62.5105C90.8918 63.1897 91.4912 63.8571 92.2005 63.8192C93.2409 63.7629 94.0458 63.931 95.0548 64.1581C95.5874 64.2778 96.1167 64.4153 96.6389 64.5743C96.8548 64.6397 97.0695 64.7091 97.2828 64.7843C97.377 64.8177 97.4699 64.855 97.5641 64.887C97.9064 65.0055 97.343 64.7778 97.6309 64.9132C99.7143 65.8901 101.371 67.0261 102.756 68.8765C103.179 69.4412 103.888 69.7318 104.547 69.3464C105.103 69.0205 105.442 68.1247 105.016 67.5561H105.016Z" fill="#211715"/>
<path d="M87.3152 67.7732C83.3526 67.9728 79.8518 69.3829 77.5721 72.7507C75.6575 75.5788 75.897 79.1705 75.6176 82.4356C75.545 83.2823 75.4508 84.1284 75.2401 84.9535C75.1687 85.2342 75.0261 85.6766 74.9639 85.8081C74.7905 86.1739 74.7101 86.2661 74.5268 86.4408C73.3052 87.6049 75.1576 89.4541 76.3773 88.2913C77.7148 87.0166 77.9667 84.9692 78.1578 83.2293C78.3802 81.2042 78.3534 79.1476 78.6675 77.1329C78.9711 75.1829 79.8348 73.6315 81.4111 72.3195C83.062 70.9454 85.2214 70.4959 87.3146 70.3899C88.991 70.3055 89.0008 67.6875 87.3146 67.7725L87.3152 67.7732Z" fill="#211715"/>
<path d="M95.3588 107.927C96.888 108.734 98.5343 109.074 100.263 109.063C102.03 109.051 103.806 108.699 105.22 107.598C105.763 107.175 105.697 106.185 105.22 105.747C104.645 105.219 103.948 105.296 103.37 105.747C103.769 105.436 103.467 105.668 103.365 105.734C103.267 105.797 103.166 105.855 103.063 105.909C103.009 105.937 102.955 105.962 102.901 105.989C102.728 106.078 102.841 105.941 102.962 105.969C102.88 105.951 102.631 106.093 102.545 106.12C102.165 106.242 101.773 106.327 101.379 106.386C101.575 106.357 101.366 106.386 101.279 106.395C101.164 106.406 101.05 106.416 100.935 106.423C100.659 106.441 100.383 106.448 100.107 106.446C99.8594 106.445 99.6121 106.436 99.3647 106.419C99.2515 106.411 99.1383 106.402 99.0251 106.391C99.0035 106.389 98.5939 106.325 98.8713 106.375C98.5036 106.31 98.1404 106.24 97.7825 106.133C97.6301 106.087 97.4815 106.033 97.3304 105.981C96.9993 105.868 97.5326 106.085 97.2335 105.944C97.047 105.856 96.8625 105.764 96.68 105.668C96.0747 105.349 95.2293 105.494 94.8897 106.138C94.5704 106.742 94.713 107.587 95.3595 107.928L95.3588 107.927Z" fill="#211715"/>
<path d="M99.5801 96.3962C99.7927 97.2082 99.9975 98.0327 100.119 98.8643L100.073 98.5162C100.087 98.6301 100.094 98.7426 100.082 98.8571L100.128 98.509C100.121 98.562 100.109 98.6118 100.091 98.6621L100.223 98.3494C100.208 98.3854 100.191 98.4155 100.169 98.4482L100.374 98.1832C100.348 98.2139 100.324 98.2375 100.293 98.2623L100.558 98.0575C100.496 98.0975 100.43 98.1302 100.363 98.1609L100.675 98.0287C100.568 98.0739 100.461 98.1066 100.346 98.1249L100.694 98.0785C100.59 98.0909 100.488 98.0903 100.384 98.0785L100.732 98.1249C100.616 98.1086 100.501 98.0804 100.385 98.0647C100.211 98.0104 100.037 98.0026 99.8627 98.0412C99.6887 98.049 99.5264 98.1007 99.3759 98.1963C99.1044 98.3553 98.8453 98.6661 98.7746 98.9782C98.698 99.3132 98.715 99.6895 98.9068 99.9865C99.0769 100.25 99.3615 100.544 99.6887 100.588C99.9576 100.624 100.219 100.693 100.493 100.704C100.915 100.723 101.306 100.593 101.683 100.42C102.15 100.206 102.514 99.785 102.638 99.2825C102.743 98.8571 102.698 98.4881 102.626 98.0621C102.492 97.2671 102.308 96.4793 102.103 95.6993C101.93 95.0371 101.16 94.5693 100.494 94.7852C99.8117 95.0057 99.3936 95.6856 99.5794 96.3949L99.5801 96.3962Z" fill="#211715"/>
<path d="M86.5208 89.3961C86.1085 90.7355 86.3775 93.8162 88.9143 94.0786C92.2678 94.0583 92.4465 90.3338 91.3171 88.5821C90.3925 87.1484 87.675 86.5517 86.5201 89.3961H86.5208Z" fill="#211715"/>
<path d="M113.479 89.3961C113.891 90.7355 113.623 93.8162 111.085 94.0786C107.732 94.0583 107.553 90.3338 108.682 88.5821C109.606 87.1484 112.324 86.5517 113.479 89.3961Z" fill="#211715"/>
<path d="M76.0375 85.9457C74.3931 84.4787 72.0584 84.1299 70.0444 85.0414C68.5695 85.7095 67.6816 87.0888 67.2674 88.6115C66.2806 92.2365 67.2209 96.4635 69.2971 99.5527C70.683 101.615 72.8482 103.458 75.4983 103.114C76.1991 103.023 76.807 102.578 76.807 101.806C76.807 101.169 76.2043 100.405 75.4983 100.497C71.8648 100.969 69.8121 95.6973 69.5615 92.7763C69.4306 91.2478 69.4267 89.3241 70.3663 88.02C70.2387 88.1973 70.4972 87.874 70.5044 87.8675C70.5659 87.8086 70.6634 87.7033 70.721 87.6581C70.9965 87.4435 71.3223 87.3133 71.6586 87.2334C72.5453 87.0234 73.4967 87.1791 74.187 87.7955C75.4401 88.9138 77.2977 87.0699 76.0375 85.9457Z" fill="#211715"/>
<path d="M125.813 87.7968C126.473 87.2079 127.373 87.0397 128.228 87.2105C128.604 87.2857 128.974 87.4199 129.279 87.6594C129.356 87.7202 129.708 88.1239 129.634 88.0212C130.573 89.3247 130.569 91.2497 130.439 92.7776C130.188 95.6986 128.136 100.969 124.502 100.498C123.8 100.407 123.193 101.165 123.193 101.807C123.193 102.589 123.798 103.024 124.502 103.116C128.859 103.681 131.497 98.9264 132.583 95.4139C133.542 92.3111 133.582 87.3584 130.528 85.3515C128.5 84.0193 125.727 84.372 123.963 85.947C122.703 87.0705 124.559 88.9157 125.813 87.7968Z" fill="#211715"/>
<path d="M123.392 99.5778C123.024 101.356 122.389 103.042 121.699 104.714C121.837 104.379 121.586 104.956 121.527 105.08C121.412 105.32 121.292 105.558 121.168 105.793C120.863 106.374 120.536 106.944 120.195 107.504C118.397 110.461 116.203 113.254 113.517 115.455C112.062 116.646 110.396 117.607 108.556 118.036C106.916 118.418 107.61 120.943 109.251 120.56C113.047 119.675 116.2 116.913 118.678 114.028C120.72 111.65 122.626 108.976 123.923 106.109C123.992 105.956 124.057 105.801 124.123 105.646C124.14 105.606 124.314 105.188 124.258 105.318C124.188 105.483 124.291 105.251 124.298 105.237C124.365 105.081 124.431 104.926 124.496 104.77C124.598 104.525 124.696 104.28 124.79 104.032C125.252 102.81 125.65 101.555 125.916 100.274C126.257 98.6303 123.734 97.9269 123.392 99.5778Z" fill="#211715"/>
<path d="M74.0125 100.185C75.1445 105.167 77.4812 109.825 80.8209 113.693C84.0396 117.421 88.1698 120.369 93.127 121.108C93.8252 121.212 94.5339 120.933 94.7367 120.194C94.9062 119.577 94.526 118.689 93.8226 118.584C89.256 117.903 85.6368 115.277 82.6714 111.842C79.6235 108.312 77.5669 104.025 76.5356 99.4887C76.1627 97.8469 73.6382 98.5419 74.0119 100.184L74.0125 100.185Z" fill="#211715"/>
<path d="M119.565 52.7853C112.425 44.9306 100.354 43.5093 90.5366 46.3453C85.7193 47.737 81.1377 50.304 77.5807 53.8525C76.607 54.8235 75.704 55.8587 74.8809 56.9606C74.2272 57.8354 73.4525 58.6043 72.8295 59.5119C71.3926 61.6051 70.3758 64.0085 69.6429 66.4308C67.746 72.6961 67.8487 79.78 69.4551 86.1009C69.8699 87.7322 72.3944 87.0412 71.9789 85.4054C70.6584 80.2093 70.4301 74.3876 71.6301 69.1483C72.1745 66.7718 72.9839 64.4436 74.1755 62.3111C74.6643 61.4363 75.2094 60.5797 75.8643 59.8181C76.6136 58.9478 77.3 58.0324 78.0577 57.1674C84.4682 49.8466 94.2689 46.8668 103.84 47.8915C109.17 48.462 114.083 50.6397 117.716 54.6357C118.851 55.8849 120.698 54.0298 119.566 52.7853H119.565Z" fill="#211715"/>
<path d="M130.422 86.1003C131.041 83.5674 131.508 80.9906 131.579 78.3778C131.647 75.8782 131.428 73.3518 131.078 70.8784C130.562 67.239 129.488 63.6336 127.366 60.5922C126.265 59.0153 124.961 57.6084 123.539 56.3174C122.295 55.1874 120.439 57.0326 121.689 58.1679C123.94 60.2127 125.874 62.5539 127.011 65.4042C128.497 69.1268 128.927 73.2969 128.97 77.2746C129.001 80.0411 128.554 82.7239 127.899 85.4041C127.499 87.0399 130.022 87.7381 130.422 86.0997L130.422 86.1003Z" fill="#211715"/>
<path d="M49.569 153.801C52.4422 142.403 62.3868 133.867 73.046 129.778C76.1057 128.605 79.2884 127.764 82.5353 127.315C83.2361 127.218 83.6188 126.322 83.4494 125.705C83.2419 124.95 82.5424 124.694 81.8397 124.791C69.7874 126.458 57.8837 133.441 51.1924 143.7C49.3131 146.581 47.886 149.768 47.0452 153.105C46.6336 154.739 49.1568 155.436 49.569 153.801Z" fill="#211715"/>
<path d="M152.955 153.104C149.875 140.888 139.352 131.844 127.977 127.381C124.817 126.142 121.523 125.256 118.16 124.791C117.461 124.694 116.755 124.96 116.55 125.705C116.382 126.316 116.76 127.217 117.465 127.314C128.806 128.883 140.131 135.257 146.484 144.924C148.281 147.657 149.631 150.627 150.431 153.8C150.842 155.433 153.367 154.741 152.955 153.104Z" fill="#211715"/>
<path d="M100.8 143.849L93.5757 135.879C93.1144 135.371 92.1872 135.376 91.7253 135.879C91.226 136.423 91.2332 137.187 91.7253 137.73C94.1332 140.386 96.5412 143.043 98.9492 145.7C99.4105 146.208 100.338 146.203 100.8 145.7C101.299 145.156 101.292 144.392 100.8 143.849Z" fill="#211715"/>
<path d="M106.513 135.977C104.141 138.605 101.763 141.225 99.3877 143.849C98.9283 144.357 98.8491 145.206 99.3877 145.7C99.8889 146.16 100.748 146.241 101.238 145.7C103.613 143.076 105.992 140.455 108.364 137.828C108.823 137.32 108.903 136.472 108.364 135.977C107.863 135.518 107.003 135.435 106.513 135.977Z" fill="#211715"/>
<path d="M139.814 136.844C139.948 142.378 139.699 147.911 139.629 153.445C139.607 155.13 142.224 155.13 142.246 153.445C142.317 147.911 142.565 142.378 142.431 136.844C142.391 135.162 139.773 135.156 139.814 136.844Z" fill="#211715"/>
<path d="M57.9679 136.844C57.8338 142.378 58.0831 147.911 58.1531 153.445C58.1747 155.128 60.792 155.132 60.7704 153.445C60.6998 147.911 60.4511 142.378 60.5853 136.844C60.6258 135.159 58.0085 135.16 57.9679 136.844Z" fill="#211715"/>
<path d="M95.9719 131.546C94.1051 133.452 92.2376 135.358 90.3707 137.264L91.9569 137.06C90.518 136.115 89.2564 134.561 88.1466 133.17C86.9616 131.684 85.8722 130.118 84.8331 128.527C84.4679 127.968 84.1087 127.406 83.7652 126.834C83.4328 126.28 83.3556 126.247 83.4635 125.612C83.6566 124.481 84.6139 123.644 85.3035 122.789C86.1823 121.7 87.0454 120.598 87.9732 119.551H86.1228C89.7871 122.506 93.5077 125.398 97.2302 128.279C97.9879 128.865 98.4741 129.351 99.4805 129.351C100.043 129.351 100.737 129.456 101.288 129.304C101.608 129.217 101.863 128.978 102.12 128.78C104.178 127.201 106.212 125.592 108.251 123.989C110.128 122.513 112.018 121.05 113.877 119.551H112.027C112.955 120.598 113.818 121.7 114.696 122.789C115.385 123.642 116.344 124.482 116.536 125.612C116.646 126.258 116.566 126.282 116.235 126.834C115.891 127.406 115.532 127.968 115.167 128.527C114.128 130.118 113.038 131.684 111.853 133.17C110.744 134.561 109.482 136.115 108.043 137.06L109.629 137.264C107.762 135.358 105.895 133.452 104.028 131.546C102.848 130.34 100.997 132.191 102.178 133.396C104.044 135.302 105.912 137.209 107.779 139.115C108.167 139.511 108.887 139.633 109.365 139.32C112.205 137.455 114.31 134.384 116.22 131.639C117.002 130.515 117.762 129.372 118.469 128.199C119.337 126.758 119.349 125.24 118.629 123.7C118.128 122.628 117.201 121.749 116.464 120.834C115.614 119.78 114.776 118.715 113.879 117.701C113.375 117.132 112.55 117.28 112.028 117.701C110.102 119.254 108.143 120.771 106.198 122.3C104.881 123.335 103.564 124.369 102.243 125.401C101.778 125.764 101.312 126.128 100.845 126.488C101.126 126.271 100.646 126.641 100.554 126.711C100.463 126.779 100.374 126.847 100.282 126.913L100.942 126.734H99.061L99.7212 126.913C99.6296 126.847 99.54 126.779 99.4497 126.711C99.3574 126.641 98.8772 126.27 99.1585 126.488C98.6913 126.127 98.2254 125.764 97.7602 125.401C96.4397 124.37 95.1226 123.335 93.8054 122.3C91.86 120.77 89.9016 119.254 87.9752 117.701C87.4511 117.278 86.6325 117.127 86.1247 117.701C85.3768 118.546 84.6714 119.426 83.9648 120.305C83.2424 121.204 82.4277 122.066 81.7688 123.012C80.7722 124.443 80.4706 126.385 81.367 127.92C82.9191 130.578 84.7356 133.128 86.6875 135.504C87.8463 136.915 89.1007 138.312 90.6377 139.321C91.1154 139.634 91.8332 139.515 92.2238 139.116C94.0907 137.21 95.9581 135.303 97.825 133.397C99.0048 132.193 97.1556 130.341 95.9745 131.547L95.9719 131.546Z" fill="#211715"/>
</svg>
