<svg width="135" height="40" viewBox="0 0 135 40" fill="none" xmlns="http://www.w3.org/2000/svg">
<path d="M134.855 0L132.112 7.5258L130.079 5.25105C130.688 4.78335 131.39 4.46446 132.204 4.35107L131.992 2.86292C130.858 3.02591 129.908 3.48653 129.108 4.16682L127.166 1.99838L134.855 0Z" fill="#2E6BFF"/>
<path d="M131.992 2.86298L132.204 4.35113C131.389 4.46451 130.688 4.7834 130.079 5.25111L129.108 4.16688C129.908 3.48658 130.858 3.02596 131.992 2.86298Z" fill="#2E6BFF"/>
<path d="M129.108 4.16687L130.079 5.2511C127.882 6.93767 126.847 10.651 125.763 14.5272C124.324 19.6862 122.836 25.0223 118.322 25.6671C117.599 25.7734 116.919 25.738 116.274 25.5892L117.514 24.2357C117.713 24.2357 117.918 24.2215 118.117 24.1861C121.872 23.6475 123.176 18.9633 124.558 14.0028C125.635 10.1478 126.734 6.19359 129.108 4.16687Z" fill="#2E6BFF"/>
<path d="M113.433 28.7001L118.882 37.8912H114.148L110.555 31.478L108.933 33.1717V37.8912H105.078V17.6736H105.829L108.522 17.7091C108.656 17.9288 108.791 18.1484 108.933 18.3681V28.6009L113.085 23.8034C114.056 24.6821 115.105 25.327 116.274 25.5892L113.433 28.7001Z" fill="#2E6BFF"/>
<path d="M118.676 22.9601L117.514 24.2356C116.303 24.2498 115.218 23.7679 114.212 22.9601H118.676Z" fill="#2E6BFF"/>
<path d="M117.514 24.2356L116.274 25.5892C115.105 25.327 114.056 24.6821 113.085 23.8034L113.815 22.9601H114.212C115.218 23.7679 116.302 24.2498 117.514 24.2356Z" fill="#2E6BFF"/>
<path d="M114.205 22.9601H113.815L113.085 23.8034C111.555 22.4144 110.215 20.4302 108.933 18.3681V17.6736V15.8878L109.145 16.228C110.789 18.8925 112.37 21.4719 114.212 22.9601H114.205Z" fill="#2E6BFF"/>
<path d="M108.933 17.6736V18.3681C108.791 18.1484 108.656 17.9288 108.522 17.7091H108.926V17.6736H108.933Z" fill="#2E6BFF"/>
<path d="M108.925 17.6736V17.7162H108.522C108.522 17.7162 108.5 17.6878 108.5 17.6736H108.925Z" fill="#2E6BFF"/>
<path d="M108.926 15.8878V17.6736H108.5C108.373 17.4752 108.245 17.2697 108.125 17.0712C107.111 15.4201 106.119 13.8044 105.071 12.458V10.3817C106.467 11.9123 107.707 13.9036 108.926 15.8878Z" fill="#2E6BFF"/>
<path d="M108.926 7.85887V15.8878C107.707 13.9036 106.467 11.9123 105.071 10.3816V7.80927L108.926 7.85887Z" fill="#2E6BFF"/>
<path d="M108.5 17.6736C108.5 17.6736 108.507 17.6949 108.522 17.7091L105.829 17.6736H108.5Z" fill="#2E6BFF"/>
<path d="M108.5 17.6736H105.071V12.458C106.119 13.8044 107.111 15.4201 108.125 17.0713C108.245 17.2697 108.373 17.4752 108.5 17.6736Z" fill="#2E6BFF"/>
<path d="M105.071 10.3817V12.458C103.349 10.247 101.485 8.77306 99.1534 9.10612C95.3976 9.64469 94.0937 14.3288 92.7118 19.2893C92.3929 20.4373 92.0669 21.5995 91.7055 22.705C91.2803 22.627 90.841 22.5774 90.3875 22.5491C90.7843 21.3586 91.1457 20.0688 91.5071 18.7649C92.9457 13.606 94.4338 8.26992 98.9408 7.62506C101.379 7.27074 103.341 8.48252 105.071 10.3817Z" fill="#2E6BFF"/>
<path d="M102.42 14.4139H98.4944V37.8912H102.42V14.4139Z" fill="#2E6BFF"/>
<path d="M96.8998 37.3172V37.8912H92.6338C92.5133 37.5936 92.4283 37.3101 92.3857 37.0408C92.3361 36.7715 92.3007 36.4739 92.2724 36.1338C91.7338 36.7219 91.1102 37.218 90.4016 37.629C89.5583 38.118 88.6087 38.3589 87.5386 38.3589C86.1851 38.3589 85.0584 37.9762 84.1726 37.1967C83.2939 36.4243 82.8474 35.3259 82.8474 33.9015C82.8474 32.4772 83.2939 31.3008 84.1938 30.4788C84.5482 30.5 84.9096 30.4788 85.2781 30.4292C86.5111 30.252 87.5174 29.7205 88.3607 28.941C88.3819 28.941 88.4032 28.9339 88.4244 28.9339L89.7567 28.7709C90.4795 28.6788 90.9968 28.5654 91.3086 28.4237C91.8684 28.1899 92.1519 27.8143 92.1519 27.3111C92.1519 26.6946 91.9393 26.2694 91.5141 26.0356C91.259 25.8939 90.933 25.8017 90.5433 25.745C90.9897 24.8025 91.3653 23.775 91.7055 22.705C92.5842 22.8609 93.3991 23.1301 94.1503 23.5128C95.4187 24.1648 96.0565 25.3907 96.0565 27.1978V34.0787C96.0565 34.5606 96.0707 35.1346 96.0849 35.8149C96.1132 36.3322 96.1912 36.6794 96.3187 36.8637C96.4463 37.0479 96.6447 37.1967 96.8998 37.3172ZM92.1377 32.0591V30.5992C91.8897 30.7552 91.6417 30.8827 91.3866 30.9748C91.1315 31.074 90.7913 31.1662 90.3519 31.2441L89.4661 31.4142C88.6441 31.5559 88.0489 31.7402 87.6945 31.9457C87.0851 32.3071 86.7804 32.8598 86.7804 33.611C86.7804 34.2842 86.9717 34.7661 87.3473 35.0566C87.7158 35.3613 88.1622 35.5101 88.6937 35.5101C89.5441 35.5101 90.3165 35.2621 91.0322 34.7732C91.7409 34.2771 92.1094 33.37 92.1377 32.0591Z" fill="#2E6BFF"/>
<path d="M90.3874 22.5491C90.841 22.5775 91.2803 22.6271 91.7055 22.705C91.3654 23.7751 90.9898 24.8026 90.5433 25.7451C90.274 25.7097 89.9693 25.6884 89.6363 25.6884C89.4307 25.6884 89.2394 25.7026 89.0623 25.7239C89.5725 24.7955 89.9977 23.7113 90.3874 22.5491Z" fill="#2E6BFF"/>
<path d="M90.5433 25.745C89.9551 27.0135 89.2536 28.119 88.3607 28.941C86.8725 29.1324 85.7458 29.4583 84.9804 29.8977C84.6899 30.0678 84.4277 30.2662 84.1938 30.4788C83.5773 30.4504 82.9891 30.3158 82.4293 30.0961V28.5229C83.2513 28.9127 84.1159 29.0757 85.0655 28.941C86.8725 28.6788 88.1126 27.467 89.0622 25.7238C89.2394 25.7025 89.4307 25.6884 89.6362 25.6884C89.9693 25.6884 90.274 25.7096 90.5433 25.745Z" fill="#2E6BFF"/>
<path d="M89.7708 22.5349C89.9763 22.5349 90.1818 22.542 90.3873 22.5491C89.9976 23.7113 89.5724 24.7955 89.0622 25.7238C88.4315 25.8018 87.9638 26.0144 87.6661 26.3758C87.3898 26.7159 87.2055 27.1694 87.1134 27.7505H83.3292C83.4143 26.4395 83.7757 25.3624 84.4276 24.5191C85.4693 23.194 87.248 22.5349 89.7708 22.5349Z" fill="#2E6BFF"/>
<path d="M88.5023 17.6098V21.2026H82.4292V28.5229C80.849 27.7788 79.4813 26.1702 78.1632 24.2356V21.2026H76.2286C76.1861 21.1318 76.1365 21.0538 76.094 20.9829C75.3924 19.8349 74.6838 18.6869 73.9468 17.6098H88.5023Z" fill="#2E6BFF"/>
<path d="M88.3607 28.9411C87.5174 29.7206 86.5111 30.2521 85.2781 30.4293C84.9096 30.4789 84.5482 30.5001 84.1938 30.4789C84.4277 30.2663 84.6899 30.0678 84.9804 29.8978C85.7458 29.4584 86.8725 29.1324 88.3607 28.9411Z" fill="#2E6BFF"/>
<path d="M82.4295 30.0961V37.8912H78.1635V26.4821C79.439 28.1332 80.8209 29.4725 82.4295 30.0961Z" fill="#2E6BFF"/>
<path d="M82.4295 28.523V30.0961C80.8209 29.4725 79.439 28.1332 78.1635 26.4821V24.2357C79.4815 26.1703 80.8492 27.7789 82.4295 28.523Z" fill="#2E6BFF"/>
<path d="M78.1633 24.2356V26.482C77.079 25.0789 76.0728 23.442 75.0807 21.8262C74.9531 21.6137 74.8256 21.4081 74.698 21.2026H76.2287C76.8735 22.2514 77.5113 23.286 78.1633 24.2356Z" fill="#2E6BFF"/>
<path d="M76.094 20.9829C76.1365 21.0538 76.1861 21.1318 76.2286 21.2026H74.6979C73.9113 19.9271 73.1318 18.694 72.3311 17.6098H73.9468C74.6838 18.6869 75.3924 19.8349 76.094 20.9829Z" fill="#2E6BFF"/>
<path d="M74.6414 27.8001C74.7406 28.4875 74.7832 29.4796 74.7619 30.7693H64.5007C64.5503 32.2787 65.0251 33.3346 65.918 33.9369C66.4566 34.3125 67.1085 34.5038 67.8739 34.5038C68.6392 34.5038 69.3337 34.27 69.8368 33.8165C70.1132 33.5684 70.3541 33.2212 70.5667 32.7818H74.5706C74.4714 33.6676 74.0107 34.5747 73.1816 35.4959C71.899 36.9487 70.099 37.6786 67.7888 37.6786C65.8755 37.6786 64.196 37.0691 62.7362 35.8361C61.2764 34.6101 60.5465 32.6047 60.5465 29.8339C60.5465 27.2402 61.2055 25.249 62.5236 23.86C63.8417 22.4782 65.5495 21.7837 67.6471 21.7837C68.8943 21.7837 70.0211 22.0175 71.0203 22.4852C72.0194 22.953 72.8486 23.6899 73.5005 24.7033C74.0887 25.5891 74.4643 26.6237 74.6414 27.8001ZM64.5929 28.1827H70.6943C70.6305 27.1481 70.3116 26.3615 69.7518 25.823C69.1849 25.2844 68.4833 25.0222 67.6471 25.0222C66.7401 25.0222 66.0385 25.3057 65.5354 25.8726C65.0393 26.4395 64.7204 27.2119 64.5929 28.1827Z" fill="#2E6BFF"/>
<path d="M74.698 21.2026H72.069V17.6098H72.3312C73.1319 18.694 73.9114 19.9271 74.698 21.2026Z" fill="#2E6BFF"/>
<path d="M73.9469 17.6098H72.3312C70.5242 15.1792 68.5754 13.5068 66.1093 13.8682C62.3535 14.4067 61.0496 19.0838 59.6677 24.0443C59.5402 24.4907 59.4197 24.9301 59.2922 25.3765C59.0937 24.7033 58.8103 24.1364 58.4205 23.6758C58.4347 23.6262 58.4489 23.5695 58.463 23.5199C59.9016 18.361 61.3897 13.032 65.9038 12.38C69.277 11.8911 71.743 14.4067 73.9469 17.6098Z" fill="#2E6BFF"/>
<path d="M59.5401 26.7513H58.8882C59.0228 26.2978 59.1575 25.8443 59.2921 25.3837C59.4126 25.7947 59.4976 26.2553 59.5401 26.7513Z" fill="#2E6BFF"/>
<path d="M59.2921 25.3766C59.1575 25.8443 59.0228 26.2978 58.8882 26.7514H57.5134C57.8323 25.7663 58.1229 24.7246 58.4205 23.6758C58.8102 24.1365 59.0937 24.7034 59.2921 25.3766Z" fill="#2E6BFF"/>
<path d="M58.8032 29.8197C59.5686 30.578 59.9583 31.5134 59.9583 32.6401C59.9583 34.1283 59.4056 35.3472 58.3001 36.2826C57.1946 37.2251 55.4868 37.6928 53.1695 37.6928C50.8523 37.6928 49.0736 37.1967 47.9468 36.2046C46.8768 35.248 46.3099 34.0503 46.2673 32.5976C47.961 34.3976 49.8743 35.5243 52.2341 35.1842C52.8577 35.092 53.4246 34.9149 53.9419 34.6527C53.949 34.6527 53.9561 34.6456 53.9561 34.6456C54.5089 34.6102 54.9553 34.5039 55.3096 34.3196C55.7632 34.0929 55.9899 33.7527 55.9899 33.2921C55.9899 33.1929 55.9828 33.1008 55.9616 33.0157C56.819 31.9953 57.4852 30.6843 58.0379 29.2316C58.3285 29.4087 58.5836 29.6071 58.8032 29.8197Z" fill="#2E6BFF"/>
<path d="M57.5135 26.7513H58.8883C58.6261 27.6017 58.3497 28.4379 58.0379 29.2316C57.6907 29.0119 57.2939 28.8135 56.8545 28.6434C57.0954 28.0411 57.3151 27.4104 57.5135 26.7513Z" fill="#2E6BFF"/>
<path d="M57.5206 22.8751C57.8678 23.0948 58.1654 23.3641 58.4205 23.6759C58.1229 24.7246 57.8324 25.7664 57.5135 26.7514H55.6214C55.5647 26.2482 55.423 25.8514 55.1962 25.5538C54.7639 25.0223 54.0269 24.7601 52.9923 24.7601C52.142 24.7601 51.5325 24.8876 51.1711 25.1569C50.8097 25.4191 50.6255 25.738 50.6255 26.0923C50.6255 26.5388 50.8168 26.8648 51.2065 27.0703C51.5892 27.2829 52.9498 27.6443 55.2883 28.1545C55.8623 28.2891 56.3867 28.4521 56.8544 28.6434C56.33 29.997 55.7135 31.1804 54.9269 32.0662C54.2679 31.8323 53.0774 31.5135 51.3554 31.1024C49.6546 30.6773 48.457 30.1529 47.7625 29.5222C47.0681 28.8986 46.7137 27.9986 46.7137 26.8222C46.7137 25.4333 47.2594 24.2428 48.3507 23.2507C49.4349 22.2515 50.9656 21.7554 52.9356 21.7554C54.9057 21.7554 56.3371 22.131 57.5206 22.8751Z" fill="#2E6BFF"/>
<path d="M58.0379 29.2316C57.4852 30.6843 56.8191 31.9953 55.9616 33.0158C55.8978 32.711 55.7278 32.463 55.4443 32.2859C55.3451 32.2221 55.175 32.1512 54.927 32.0662C55.7136 31.1804 56.3301 29.9969 56.8545 28.6434C57.2939 28.8135 57.6907 29.0119 58.0379 29.2316Z" fill="#2E6BFF"/>
<path d="M55.4443 32.2858C55.7277 32.463 55.8978 32.711 55.9616 33.0157C55.3876 33.7031 54.7285 34.263 53.9561 34.6456C53.9561 34.6456 53.949 34.6527 53.9419 34.6527C53.7931 34.6598 53.6372 34.6669 53.4742 34.6669C52.1632 34.6669 51.2633 34.4047 50.7743 33.8803C50.7247 33.8236 50.668 33.7598 50.6255 33.6819C51.0719 33.7598 51.5396 33.7669 52.0286 33.696C53.212 33.526 54.1545 32.9449 54.927 32.0662C55.175 32.1512 55.3451 32.2221 55.4443 32.2858Z" fill="#2E6BFF"/>
<path d="M53.4742 34.6669C53.6372 34.6669 53.7931 34.6598 53.9419 34.6527C53.4246 34.9149 52.8577 35.0921 52.2341 35.1842C49.8743 35.5244 47.961 34.3976 46.2673 32.5977C46.2673 32.5339 46.2673 32.463 46.2673 32.3922H48.0319C48.8397 33.0654 49.6972 33.526 50.6326 33.6819C50.6751 33.7598 50.7318 33.8236 50.7814 33.8803C51.2704 34.4047 52.1703 34.6669 53.4813 34.6669H53.4742Z" fill="#2E6BFF"/>
<path d="M50.2428 32.3922C50.3066 32.952 50.4342 33.3843 50.6255 33.6819C49.6901 33.526 48.8326 33.0654 48.0248 32.3922H50.2428Z" fill="#2E6BFF"/>
<path d="M48.0247 32.3922H46.2602C46.2602 32.463 46.2602 32.5339 46.2602 32.5977C45.7642 32.0662 45.2823 31.478 44.8217 30.8544V28.5584C45.835 30.0962 46.8767 31.4568 48.0176 32.3922H48.0247Z" fill="#2E6BFF"/>
<path d="M45.672 36.6086V37.1826H41.406C41.2855 36.885 41.2005 36.6015 41.158 36.3322C41.1084 36.0629 41.0729 35.7653 41.0446 35.4252C40.506 36.0133 39.8824 36.5094 39.1738 36.9204C38.3305 37.4094 37.3738 37.6503 36.3109 37.6503C34.9503 37.6503 33.8306 37.2676 32.9448 36.4881C32.059 35.7157 31.6196 34.6173 31.6196 33.1929C31.6196 31.3505 32.3283 30.0182 33.7526 29.1891C34.5322 28.7427 35.6802 28.4167 37.1896 28.2253L38.5289 28.0624C39.2517 27.9702 39.769 27.8569 40.0808 27.7151C40.6407 27.4813 40.9241 27.1057 40.9241 26.6026C40.9241 25.986 40.7115 25.5608 40.2793 25.327C39.8541 25.0931 39.2305 24.9798 38.4013 24.9798C37.4801 24.9798 36.8211 25.2065 36.4384 25.6671C36.162 26.0073 35.9778 26.4608 35.8857 27.0419H32.1015C32.1795 25.7309 32.548 24.6538 33.1999 23.8105C34.2345 22.4853 36.0203 21.8263 38.5431 21.8263C38.6565 21.8263 38.7628 21.8263 38.8761 21.8334C39.9604 23.2011 40.9879 24.8735 42.0367 26.5813C42.9367 28.0482 43.8508 29.5363 44.8287 30.8544V33.3701C44.8287 33.852 44.8358 34.426 44.8571 35.1063C44.8854 35.6236 44.9634 35.9708 45.0909 36.1551C45.2185 36.3393 45.4098 36.4881 45.672 36.6086ZM40.9099 31.3505V29.8907C40.6619 30.0466 40.4068 30.1741 40.1588 30.2662C39.9037 30.3654 39.5564 30.4576 39.1171 30.5355L38.2384 30.7056C37.4092 30.8473 36.8211 31.0316 36.4597 31.2371C35.8573 31.5985 35.5526 32.1512 35.5526 32.9024C35.5526 33.5756 35.7439 34.0575 36.1195 34.348C36.488 34.6527 36.9345 34.8016 37.4659 34.8016C38.3092 34.8016 39.0887 34.5535 39.7974 34.0646C40.5131 33.5685 40.8816 32.6615 40.9099 31.3505Z" fill="#2E6BFF"/>
<path d="M44.8287 28.5584V30.8544C43.8508 29.5363 42.9366 28.0482 42.0366 26.5813C40.9879 24.8735 39.9603 23.2011 38.8761 21.8334C39.4997 21.8475 40.1021 21.9113 40.669 22.0318C41.491 23.2011 42.2776 24.4766 43.05 25.738C43.6453 26.7088 44.2334 27.6655 44.8287 28.5584Z" fill="#2E6BFF"/>
<path d="M44.8287 26.4892V28.5584C44.2334 27.6655 43.6452 26.7088 43.05 25.738C42.2776 24.4766 41.491 23.2011 40.6689 22.0318C41.4697 22.1877 42.2209 22.4499 42.9153 22.8042C44.1909 23.4562 44.8287 24.6821 44.8287 26.4892Z" fill="#2E6BFF"/>
<path d="M40.6689 22.0318C40.102 21.9113 39.4996 21.8475 38.876 21.8334C37.1824 19.6933 35.347 18.2972 33.0652 18.6232C30.7833 18.9492 29.529 20.6499 28.5157 23.0026C28.1826 22.705 27.7999 22.4711 27.3818 22.294C28.5511 19.587 30.1668 17.5248 32.8667 17.1351C36.1194 16.6673 38.5359 18.9917 40.676 22.0318H40.6689Z" fill="#2E6BFF"/>
<path d="M30.1031 28.3741V37.1826H26.0992V30.6631C26.2764 30.0465 26.4536 29.4229 26.6236 28.7993C27.1976 26.723 27.7716 24.6963 28.5086 23.0026C28.7637 23.2223 28.9976 23.4703 29.2031 23.7538C29.6141 24.3136 29.8692 24.8876 29.9613 25.4829C30.0535 26.0711 30.096 27.0348 30.096 28.3741H30.1031Z" fill="#2E6BFF"/>
<path d="M27.375 22.294C27.7931 22.4712 28.1757 22.705 28.5088 23.0027C27.7718 24.6963 27.1978 26.723 26.6238 28.7994C26.4537 29.423 26.2766 30.0466 26.0994 30.6631V28.0624C26.0994 27.4955 26.0356 27.0065 25.901 26.5955C26.3333 25.0861 26.801 23.6121 27.375 22.294Z" fill="#2E6BFF"/>
<path d="M27.3465 22.2798C27.3465 22.2798 27.3677 22.2869 27.3748 22.294C26.8008 23.612 26.3331 25.086 25.9008 26.5954C25.837 26.4183 25.7733 26.2553 25.6882 26.1065C25.3268 25.412 24.6465 25.0577 23.6473 25.0577C22.6481 25.0577 21.8261 25.4049 21.2876 26.0994C20.749 26.7939 20.4868 27.7789 20.4868 29.0686V37.1826H16.5751V16.965H20.4868V24.1364C21.0537 23.2648 21.7127 22.6554 22.4568 22.3152C23.208 21.968 23.9946 21.7979 24.8166 21.7979C25.7449 21.7979 26.5882 21.9609 27.3465 22.2798Z" fill="#2E6BFF"/>
<path d="M26.0993 28.0624V30.6631C24.7812 35.1771 23.1584 39.3723 19.19 39.9392C14.683 40.5912 11.7918 35.8858 8.9997 31.3363C8.70207 30.8473 8.40444 30.3654 8.10681 29.8907H8.51783C8.89341 29.8907 9.2619 29.8765 9.60914 29.841C9.74378 30.0607 9.87842 30.2733 10.0131 30.493C12.6988 34.8653 15.2358 38.9967 18.9845 38.4582C22.7332 37.9125 24.0442 33.2354 25.4261 28.2749C25.582 27.7151 25.7379 27.1553 25.9009 26.5955C26.0355 27.0065 26.0993 27.4954 26.0993 28.0624Z" fill="#2E6BFF"/>
<path d="M13.7052 18.4672C14.9169 19.516 15.5193 21.1317 15.5193 23.3285C15.5193 25.7237 14.9169 27.4103 13.7052 28.4024C12.6989 29.2244 11.3312 29.7063 9.60921 29.841C8.87931 28.6504 8.13523 27.467 7.34863 26.3969H8.15649C9.15568 26.3969 9.93518 26.1489 10.495 25.667C11.0478 25.1781 11.3241 24.4057 11.3241 23.3569C11.3241 22.3081 11.0478 21.5427 10.4879 21.0963C9.93518 20.6498 9.15568 20.4231 8.15649 20.4231H4.20934V23.0734C2.96213 22.1734 1.58028 21.6916 0 21.8687V16.9011H8.8297C10.8706 16.9011 12.4934 17.4184 13.7052 18.4672Z" fill="#2E6BFF"/>
<path d="M9.60924 29.841C9.262 29.8764 8.89351 29.8906 8.51792 29.8906H8.10691C7.31323 28.6221 6.51955 27.4174 5.68335 26.397H7.34866C8.13526 27.467 8.87933 28.6505 9.60924 29.841Z" fill="#2E6BFF"/>
<path d="M8.10688 29.8907H4.20934V37.1826H0V23.1798L0.0283458 23.3782C1.60153 23.1515 2.96213 23.7467 4.20934 24.838V26.3971H5.68332C6.51952 27.4175 7.3132 28.6222 8.10688 29.8907Z" fill="#2E6BFF"/>
<path d="M7.34143 26.397H5.68321C5.20842 25.8089 4.71945 25.2774 4.20923 24.838V23.0735C5.35014 23.8955 6.37768 25.0648 7.34143 26.397Z" fill="#2E6BFF"/>
<path d="M4.20934 23.0734V24.8379C2.96213 23.7466 1.60153 23.1514 0.0283458 23.3781L0 23.1797V21.8687C1.58028 21.6916 2.96213 22.1734 4.20934 23.0734Z" fill="#2E6BFF"/>
</svg>
