<?xml version="1.0" encoding="UTF-8"?>
<svg id="_x32_" xmlns="http://www.w3.org/2000/svg" version="1.1" viewBox="0 0 512 512">
  <!-- Generator: Adobe Illustrator 29.5.1, SVG Export Plug-In . SVG Version: 2.1.0 Build 141)  -->
  <defs>
    <style>
      .st0 {
        fill: #fff;
      }
    </style>
  </defs>
  <path class="st0" d="M379.9,200.7v49.6c0,34.2-13.9,65.1-36.3,87.6-22.5,22.5-53.4,36.3-87.6,36.3s-65.1-13.9-87.6-36.3c-22.5-22.5-36.3-53.4-36.3-87.6v-49.6h-36.6v49.6c0,82.4,62.3,150.3,142.2,159.4v69.8h-46.7v32.5h130v-32.5h-46.7v-69.8c79.9-9.1,142.2-77,142.2-159.4v-49.6h-36.6Z"/>
  <path class="st0" d="M256,334c46.2,0,83.7-37.6,83.7-83.7V83.7C339.7,37.6,302.2,0,256,0s-83.7,37.6-83.7,83.7v166.6c0,46.2,37.6,83.7,83.7,83.7Z"/>
</svg>