<svg width="127" height="119" viewBox="0 0 127 119" fill="none" xmlns="http://www.w3.org/2000/svg">
<g clip-path="url(#clip0_240_174)">
<path d="M102.183 54.2215C97.8498 37.3262 83.5008 30.4885 68.6881 31.9684C62.874 29.7489 56.6882 24.6415 50.9975 25.8059C45.411 26.9484 51.9145 32.8591 51.775 37.3582C51.5973 37.4581 51.4005 37.5296 51.2427 37.6575C39.5413 47.0831 34.288 58.9121 35.1339 72.0342C34.9911 76.3243 35.4827 78.1419 34.3698 81.5016C32.3614 87.5767 31.254 93.8923 31.7559 98.0958C38.5433 95.3691 42.2413 89.7709 42.2413 89.7709C46.8023 91.6679 53.1709 90.9777 53.7543 90.3199C53.2365 83.4229 42.3236 82.5248 47.5348 69.39C50.6601 65.2632 52.2986 62.6409 57.0641 59.8896C58.3914 59.1233 61.9644 57.4879 63.8783 57.1726C64.0973 55.9567 64.2681 54.7711 64.3425 53.6809L65.7238 53.7898C65.6542 54.7999 65.5094 55.8754 65.3209 56.9778C65.113 58.1742 64.855 59.4021 64.5873 60.6093C63.1503 67.0769 61.3994 72.9733 65.6281 70.5319C72.8783 66.346 77.7839 61.8228 80.43 58.4386C80.9123 58.5469 81.4015 58.6605 81.8997 58.7782C83.2979 59.1079 84.7401 59.4634 86.2357 59.834C89.9435 60.7525 95.0688 60.5683 97.9181 63.1904C106.124 70.738 110.308 65.5235 106.858 62.3183C103.41 59.1116 103.657 59.9525 102.183 54.2215ZM91.7142 53.1331C90.8595 53.6265 89.7667 53.3336 89.2739 52.4801C88.7805 51.6254 89.0743 50.5348 89.9291 50.0412C90.7826 49.5485 91.8724 49.8403 92.3658 50.695C92.8586 51.5485 92.5677 52.6403 91.7142 53.1331Z" fill="#333333"/>
</g>
<defs>
<clipPath id="clip0_240_174">
<rect width="84.1858" height="84.1858" fill="white" transform="translate(0 43.0928) rotate(-30)"/>
</clipPath>
</defs>
</svg>
