<svg width="119" height="119" viewBox="0 0 119 119" fill="none" xmlns="http://www.w3.org/2000/svg">
<g clip-path="url(#clip0_240_136)">
<path d="M28.6337 37.5729C31.7961 41.9817 36.3076 44.9233 40.4093 45.2556L40.5813 45.2713L48.2824 39.7462L48.3234 39.5788C49.3211 35.5865 47.9794 30.3686 44.8181 25.9624C41.8177 21.7819 38.3237 18.9138 34.9429 16.138C32.6364 14.2455 30.2496 12.2856 28.022 9.91449C26.1781 7.95066 25.5575 6.98055 25.5556 6.97805L24.9577 6L24.4561 6.59059C22.128 9.33978 21.1976 14.2954 21.8988 20.1844C22.6336 26.3685 25.0277 32.546 28.6337 37.5729ZM30.3503 30.2539C32.8619 33.0957 34.0347 31.2344 32.5237 28.3375C30.6264 24.7037 32.5442 24.5733 33.7112 25.7041C34.8744 26.8309 36.3321 29.3563 37.5874 28.6328C38.3421 28.1979 37.5314 26.6332 36.4631 24.2623C35.8504 22.9047 36.3795 20.8684 39.5354 23.586C40.6879 24.7446 41.7813 25.9942 42.7993 27.4123C45.007 30.4859 46.0521 34.1893 45.5414 37.0944L38.9479 41.8262C36.0299 41.3806 32.8623 39.2032 30.6519 36.1243C29.8057 34.9433 29.0299 33.6649 28.3367 32.3205C28.2623 32.1281 28.1773 31.9226 28.0784 31.7049C26.9777 29.2813 27.8389 27.415 30.3503 30.2539Z" fill="#333333"/>
<path d="M43.5403 51.1195C43.6471 52.8553 44.4089 54.7481 45.6465 56.3546L51.2579 63.6299L62.2534 55.7416L57.1592 48.0972C56.0349 46.4075 54.4857 45.0815 52.875 44.4241C51.2644 43.7664 49.7323 43.8402 48.6395 44.623L45.0881 47.172C43.9945 47.9551 43.4354 49.3849 43.5403 51.1195Z" fill="#333333"/>
<path d="M64.0645 58.4604L53.2554 66.2144L86.7405 109.627C89.0621 112.638 92.4897 113.844 94.5404 112.376L94.5647 112.355C96.6142 110.885 96.568 107.252 94.46 104.087L64.0645 58.4604Z" fill="#333333"/>
<path d="M50.4401 69.1995L42.4404 58.8268C40.6999 56.5677 39.6561 53.9198 39.4993 51.3683C39.4546 50.625 39.4914 49.908 39.5948 49.22C35.3094 48.7349 30.9278 46.2624 27.392 42.4165C20.9392 51.0492 17.9927 61.3417 20.1417 71.1094C24.3158 90.0794 46.0932 99.8697 68.7853 92.979L50.4428 69.1983L50.4401 69.1995ZM29.6553 54.0229C30.5489 51.3341 33.4511 49.8789 36.1384 50.77C38.8272 51.6636 40.2836 54.5658 39.3913 57.2546C38.4977 59.9434 35.594 61.3983 32.908 60.5072C30.2194 59.6111 28.763 56.7087 29.6553 54.0229ZM39.4638 77.6019C37.6187 79.5499 34.5424 79.6368 32.5943 77.7917C30.6449 75.9464 30.5606 72.8731 32.4058 70.9249C34.2496 68.9742 37.3244 68.8898 39.2738 70.7351C41.2222 72.5775 41.3079 75.6538 39.4638 77.6019Z" fill="#333333"/>
<path d="M97.6671 35.6841C89.5771 23.5663 71.7062 18.798 53.6734 24.2754C52.246 24.7091 50.8502 25.1981 49.4868 25.7398C52.2414 30.4701 53.2847 35.6525 52.3378 40.0784C53.0264 40.2009 53.7183 40.3948 54.4063 40.6755C56.7781 41.6443 58.9528 43.483 60.5304 45.8539L67.792 56.7512H67.7913L85.979 84.0537C88.592 82.0134 90.9756 79.7742 93.0555 77.3596C95.4832 74.5416 96.3242 65.8245 85.0762 66.2752C73.0824 66.7551 71.4216 52.0645 83.7266 50.9784C99.0232 49.6286 102.172 42.4297 97.6671 35.6841ZM64.9174 40.0439C61.8069 40.4078 58.9943 38.1777 58.6332 35.0697C58.2708 31.9592 60.4982 29.1466 63.6087 28.7855C66.718 28.4244 69.5318 30.652 69.8929 33.7598C70.2553 36.8703 68.0264 39.683 64.9174 40.0439ZM88.2302 42.9304C87.123 44.0349 85.5953 44.6702 84.0311 44.6702C82.4666 44.6702 80.9377 44.0349 79.8318 42.9304C78.726 41.8232 78.0922 40.2945 78.0922 38.7313C78.0922 37.1654 78.726 35.6367 79.8318 34.5295C80.9377 33.425 82.4666 32.7924 84.0311 32.7924C85.5956 32.7924 87.1232 33.425 88.2302 34.5295C89.336 35.6367 89.9698 37.1654 89.9698 38.7313C89.9698 40.2945 89.336 41.8232 88.2302 42.9304Z" fill="#333333"/>
</g>
<defs>
<clipPath id="clip0_240_136">
<rect width="107" height="107" fill="white" transform="translate(6 6)"/>
</clipPath>
</defs>
</svg>
