<svg width="119" height="119" viewBox="0 0 119 119" fill="none" xmlns="http://www.w3.org/2000/svg">
<path d="M108.139 78.0327C106.535 72.4666 104.934 66.897 103.334 61.3309C102.811 59.5199 102.288 57.7091 101.769 55.8947L97.424 60.2396C98.8314 65.7811 100.239 71.3227 101.646 76.8676C102.341 79.598 100.519 82.0267 97.5257 81.0932C92.623 79.0576 87.2182 77.6257 81.9084 77.3485C75.872 77.0397 69.6883 78.275 64.1256 80.5948C63.4974 80.8544 59.3001 83.8761 59.1317 81.732C59.0405 76.7203 58.9457 71.7088 58.8545 66.6971C58.6616 56.3439 58.472 45.9944 58.2788 35.6412C58.2683 35.048 59.7002 34.7498 59.9951 34.6375C62.3395 33.7496 64.7925 33.1389 67.2632 32.7388C73.2821 31.7598 79.2061 32.2615 85.0916 33.7532C86.9657 34.2305 88.9311 34.8131 90.3137 36.0204L93.1074 33.2303C92.1984 32.5423 91.1841 31.9599 90.0997 31.479C85.1057 29.2435 78.7675 28.359 73.3488 28.2327C67.5615 28.0959 61.648 29.0013 56.1731 30.8824C55.1062 31.2474 53.3619 30.2787 52.2705 29.984C50.986 29.6365 49.6875 29.3452 48.3785 29.0995C45.4936 28.566 42.5667 28.2747 39.6327 28.2291C34.028 28.1413 28.3004 29.2154 22.9449 30.8263C21.7657 31.2685 22.6079 30.9561 22.8712 30.858C19.5301 32.1214 15.8661 34.1851 14.8133 37.8489C14.5501 38.7649 14.2835 39.6808 14.0202 40.5968C12.6865 45.233 11.353 49.8655 10.0193 54.5015C8.19432 60.8397 6.37296 67.1744 4.54801 73.509C3.48808 77.1976 1.38596 81.9355 2.17209 85.8134C3.13364 90.6144 7.82955 92.8254 12.3673 91.9023C13.9641 91.5723 15.4276 90.8354 16.9507 90.2914C19.4951 89.3788 22.0992 88.6104 24.7489 88.0592C31.1292 86.736 37.6078 87.4379 43.8794 89.056C45.2796 89.4174 50.5264 90.3231 50.6774 91.8881C50.8214 93.3481 52.4987 92.9514 53.5553 92.9514C54.6047 92.9514 55.6541 92.9514 56.7034 92.9514C57.665 92.9514 59.2759 93.2848 60.1885 92.8847C61.1044 92.4881 60.3991 91.4845 61.2623 91.109C62.4379 90.6 63.6558 90.1789 64.8772 89.7999C67.734 88.9085 70.6678 88.2452 73.63 87.8135C79.9646 86.8906 85.9518 87.5572 92.034 89.477C95.5961 90.6 99.0495 92.6707 102.914 91.9793C108.181 91.0459 110.336 85.6622 108.954 80.8612C108.704 79.9102 108.409 78.9731 108.139 78.0327ZM52.8743 47.9489C52.6636 59.0777 52.4601 70.2028 52.253 81.3315C52.2389 82.0756 52.0354 82.5388 51.2072 82.5177C46.7009 79.8399 41.3525 78.2921 36.1795 77.6394C30.1009 76.8708 24.1524 77.6991 18.3267 79.5065C16.5192 80.0645 14.4978 81.2929 12.5816 81.2929C10.3881 81.2929 9.11409 79.3415 9.62665 77.3025C10.9673 72.0347 12.3008 66.7633 13.6415 61.4956C15.2138 55.3013 16.7825 49.1034 18.3583 42.9091C18.7514 41.3686 19.1409 39.8244 19.5339 38.2802C20.4921 34.5038 25.8336 33.788 29.0237 33.1247C34.9794 31.893 41.0158 31.8999 46.9504 33.2968C47.9753 33.5389 53.1272 34.332 53.0991 35.8025C53.0216 39.8524 52.948 43.9026 52.8743 47.9489Z" fill="#333333"/>
<path d="M70.4182 71.5784L86.0391 68.2654L117 37.3115L104.689 25L73.7348 55.9541L70.4182 71.5784ZM111.062 37.3115L84.516 63.854L81.7751 61.1131L108.321 34.5706L111.062 37.3115ZM104.689 30.9382L107.43 33.6791L80.8837 60.2217L78.1428 57.4808L104.689 30.9382ZM77.5215 58.6388L83.3577 64.4787L77.9215 65.6754L76.3212 64.0787L77.5215 58.6388Z" fill="#333333"/>
</svg>
