<svg width="237" height="134" viewBox="0 0 237 134" fill="none" xmlns="http://www.w3.org/2000/svg">
<rect width="237" height="134" rx="67" fill="#F54F07"/>
<path d="M63.676 49.875H73.455V90.223C73.455 91.5577 73.5577 92.5587 73.763 93.226C74.0197 93.842 74.4817 94.2527 75.149 94.458C75.8163 94.6633 76.8173 94.766 78.152 94.766C78.614 94.766 79.3583 94.766 80.385 94.766C81.463 94.766 82.618 94.766 83.85 94.766C85.082 94.766 86.237 94.766 87.315 94.766C88.4443 94.766 89.2657 94.766 89.779 94.766C91.1137 94.766 92.1147 94.4323 92.782 93.765C93.5007 93.0977 93.9883 91.8143 94.245 89.915C94.553 88.0157 94.8097 85.2437 95.015 81.599C95.785 82.1123 96.709 82.6513 97.787 83.216C98.865 83.7293 99.943 84.1913 101.021 84.602C102.15 85.0127 103.177 85.3207 104.101 85.526C103.69 90.1973 103.023 93.8677 102.099 96.537C101.226 99.2063 99.8917 101.106 98.095 102.235C96.2983 103.364 93.8087 103.929 90.626 103.929C90.164 103.929 89.4453 103.929 88.47 103.929C87.546 103.929 86.5193 103.929 85.39 103.929C84.2607 103.929 83.1313 103.929 82.002 103.929C80.8727 103.929 79.846 103.929 78.922 103.929C78.0493 103.929 77.4077 103.929 76.997 103.929C73.5063 103.929 70.7857 103.518 68.835 102.697C66.9357 101.927 65.601 100.541 64.831 98.539C64.061 96.537 63.676 93.765 63.676 90.223V49.875ZM64.6 39.172L70.529 32.473C72.6337 33.8077 74.8153 35.2707 77.074 36.862C79.384 38.4533 81.5913 40.019 83.696 41.559C85.8007 43.099 87.5973 44.4593 89.086 45.64L82.926 53.186C81.4887 51.954 79.7177 50.5167 77.613 48.874C75.5083 47.2313 73.301 45.563 70.991 43.869C68.7323 42.1237 66.602 40.558 64.6 39.172ZM51.279 53.417L60.134 55.65C59.6207 58.6787 58.979 61.8357 58.209 65.121C57.439 68.4063 56.5663 71.5377 55.591 74.515C54.6157 77.4923 53.4863 80.0847 52.203 82.292L43.117 78.981C44.4517 76.7223 45.6323 74.207 46.659 71.435C47.737 68.6117 48.661 65.66 49.431 62.58C50.2523 59.5 50.8683 56.4457 51.279 53.417ZM96.709 62.58L105.025 58.653C106.668 61.0143 108.259 63.581 109.799 66.353C111.339 69.125 112.699 71.8457 113.88 74.515C115.112 77.133 116.062 79.52 116.729 81.676L107.797 86.219C107.232 84.063 106.36 81.6247 105.179 78.904C104.05 76.1833 102.741 73.3857 101.252 70.511C99.7633 67.6363 98.249 64.9927 96.709 62.58ZM100.405 37.093L109.722 40.789C106.591 46.7437 102.972 52.5957 98.865 58.345C94.8097 64.0943 90.2667 69.587 85.236 74.823C80.2053 80.059 74.687 84.91 68.681 89.376C62.7263 93.842 56.3097 97.769 49.431 101.157C48.969 100.438 48.3787 99.617 47.66 98.693C46.9927 97.8203 46.274 96.9477 45.504 96.075C44.734 95.151 44.0153 94.4067 43.348 93.842C49.9187 90.8647 56.0787 87.2713 61.828 83.062C67.6287 78.8013 72.9673 74.1557 77.844 69.125C82.7207 64.0943 87.0583 58.8583 90.857 53.417C94.6557 47.9243 97.8383 42.483 100.405 37.093ZM138.674 33.859L147.375 37.555C145.63 39.9677 143.628 42.2777 141.369 44.485C139.11 46.641 136.775 48.6687 134.362 50.568C131.949 52.4673 129.537 54.187 127.124 55.727C126.354 54.649 125.327 53.494 124.044 52.262C122.812 50.9787 121.58 49.9007 120.348 49.028C122.504 47.8473 124.737 46.4613 127.047 44.87C129.357 43.2273 131.539 41.4563 133.592 39.557C135.645 37.6577 137.339 35.7583 138.674 33.859ZM140.368 55.496L148.915 59.192C147.118 61.656 145.039 64.0687 142.678 66.43C140.368 68.74 137.955 70.896 135.44 72.898C132.976 74.9 130.538 76.6967 128.125 78.288C127.355 77.1587 126.328 75.9267 125.045 74.592C123.813 73.2573 122.581 72.1023 121.349 71.127C123.608 69.9463 125.918 68.5347 128.279 66.892C130.692 65.198 132.95 63.3757 135.055 61.425C137.211 59.4743 138.982 57.498 140.368 55.496ZM142.062 76.979L150.84 80.367C148.941 83.601 146.733 86.6297 144.218 89.453C141.703 92.2763 138.982 94.8687 136.056 97.23C133.181 99.5913 130.153 101.67 126.97 103.467C126.303 102.286 125.353 100.977 124.121 99.54C122.889 98.1027 121.657 96.8963 120.425 95.921C123.248 94.5863 126.02 92.9693 128.741 91.07C131.513 89.1193 134.054 86.9633 136.364 84.602C138.674 82.1893 140.573 79.6483 142.062 76.979ZM148.684 35.861H192.42V43.638H148.684V35.861ZM160.465 66.353V71.281H180.793V66.353H160.465ZM160.465 77.595V82.523H180.793V77.595H160.465ZM160.465 55.188V60.039H180.793V55.188H160.465ZM151.841 48.412H189.802V89.299H151.841V48.412ZM165.547 39.942L176.327 41.251C175.557 43.6123 174.736 45.948 173.863 48.258C172.99 50.568 172.22 52.5443 171.553 54.187L163.314 52.724C163.776 50.8247 164.212 48.6943 164.623 46.333C165.085 43.9717 165.393 41.8413 165.547 39.942ZM160.465 89.453L167.934 94.689C166.24 95.9723 164.289 97.2557 162.082 98.539C159.875 99.8223 157.565 101.003 155.152 102.081C152.739 103.159 150.404 104.083 148.145 104.853C147.529 103.929 146.656 102.851 145.527 101.619C144.449 100.387 143.448 99.3347 142.524 98.462C144.629 97.7947 146.81 96.9733 149.069 95.998C151.379 94.9713 153.535 93.8933 155.537 92.764C157.539 91.5833 159.182 90.4797 160.465 89.453ZM172.169 94.766L179.022 89.838C180.665 90.7107 182.436 91.7117 184.335 92.841C186.286 93.9703 188.159 95.1253 189.956 96.306C191.753 97.4867 193.241 98.5647 194.422 99.54L187.107 105.007C186.029 104.032 184.643 102.928 182.949 101.696C181.255 100.515 179.458 99.309 177.559 98.077C175.66 96.845 173.863 95.7413 172.169 94.766Z" fill="white"/>
</svg>
